<svg id="Layer_1" enable-background="new 0 0 512.023 512.023" height="512" viewBox="0 0 512.023 512.023" width="512" xmlns="http://www.w3.org/2000/svg"><path d="m256.012 298.464c-88.418 0-160.353 71.934-160.353 160.353v37.207c0 8.836 7.164 16 16 16h288.705c8.836 0 16-7.164 16-16v-37.207c0-88.419-71.934-160.353-160.352-160.353z" fill="#c69a85"/><path d="m416.119 450.013c-4.586-84.34-74.643-151.549-160.108-151.549s-155.52 67.209-160.107 151.549c94.212 60.434 223.07 62.316 320.215 0z" fill="#606060"/><path d="m406.032 402.199c-22.932-60.56-81.524-103.735-150.02-103.735s-127.088 43.175-150.02 103.735c86.059 66.906 213.427 67.336 300.04 0z" fill="#7c7c7c"/><path d="m232.754 78.862-94.966-71.923c-22.345-16.922-54.428-.966-54.428 27.055v133.903c0 8.915 7.248 16 16 16 6.394 0-2.461 4.314 132.13-78.66 9.539-5.881 10.252-19.567 1.264-26.375z" fill="#7c7c7c"/><path d="m374.235 6.939-94.966 71.923c-8.934 6.767-8.333 20.458 1.264 26.375 134.432 82.875 125.66 78.66 132.13 78.66 8.75 0 16-7.085 16-16v-133.903c0-28.031-32.091-43.97-54.428-27.055z" fill="#7c7c7c"/><path d="m83.36 98.025v69.872c0 12.494 13.741 20.189 24.396 13.62l123.733-76.279c9.539-5.88 10.252-19.567 1.264-26.375l-52.482-39.748c-36.874 11.611-70.088 31.659-96.911 58.91z" fill="#c69a85"/><path d="m428.663 98.025c-26.799-27.226-60.003-47.288-96.911-58.91l-52.482 39.748c-8.934 6.767-8.333 20.458 1.264 26.375l123.733 76.279c10.635 6.558 24.396-1.104 24.396-13.62z" fill="#c69a85"/><path d="m392.262 114.284c-75.454-68.492-197.027-68.509-272.5 0-90.625 82.266-70.944 220.999 39.893 279.422 20.824 27.793 61.592 33.075 96.357 33.075 34.758 0 75.532-5.281 96.357-33.075 110.904-58.459 130.471-197.199 39.893-279.422z" fill="#7c7c7c"/><path d="m352.368 344.869c-20.824 27.793-61.592 33.075-96.357 33.075-34.758 0-75.532-5.281-96.357-33.075-49.265-25.968-86.793-72.345-95.298-129.239-11.19 74.86 29.41 143.346 95.298 178.076 20.824 27.793 61.592 33.075 96.357 33.075 34.758 0 75.532-5.281 96.357-33.075 66.742-35.18 106.358-104.089 95.298-178.076-8.501 56.872-46.011 103.259-95.298 129.239z" fill="#606060"/><path d="m311.506 287.175c-30.732-24.416-80.249-24.422-110.989 0-31.104 24.712-31.105 64.953 0 89.665 30.732 24.416 80.249 24.422 110.989 0 31.104-24.711 31.105-64.953 0-89.665z" fill="#727272"/><g fill="#3d3c3c"><ellipse cx="201.515" cy="220.338" rx="19.841" ry="19.841" transform="matrix(1 -.002 .002 1 -.532 .488)"/><ellipse cx="310.336" cy="220.075" rx="19.841" ry="19.841" transform="matrix(1 -.002 .002 1 -.531 .751)"/><path d="m321.822 316.24c-3.067-8.287-12.271-12.52-20.558-9.453s-12.519 12.272-9.452 20.559c1.257 3.397 1.681 3.879.995 4.865-.753 1.084.116.754-20.609.804l-.052-21.474 9.032-13.132c6.181-8.987-.27-21.217-11.177-21.191l-27.877.067c-10.907.026-17.299 12.288-11.074 21.245l9.096 13.089.052 21.474-19.165.046c-1.237.003-2.084-1.203-1.663-2.367l1.186-3.254c3.027-8.302-1.249-17.486-9.552-20.513-8.306-3.027-17.486 1.25-20.512 9.552l-1.187 3.256c-8.03 22.037 8.354 45.382 31.805 45.325l70.33-.17c23.452-.057 39.722-23.482 31.584-45.48z"/><path d="m371.774 279.877c-7.247 0-13.813-4.957-15.556-12.316-2.036-8.599 3.283-17.22 11.882-19.257l124.224-29.422c8.595-2.038 17.22 3.283 19.257 11.882 2.036 8.599-3.283 17.22-11.882 19.257-134.613 31.883-125.213 29.856-127.925 29.856z"/><path d="m482.119 352.357c-2.319 0 6.78 1.702-109.912-21.968-8.66-1.757-14.257-10.201-12.5-18.861 1.756-8.66 10.205-14.258 18.861-12.5l106.715 21.646c8.66 1.757 14.257 10.201 12.5 18.861-1.539 7.586-8.211 12.822-15.664 12.822z"/><path d="m140.249 279.877c-2.682 0 7.991 2.335-127.925-29.856-8.599-2.037-13.918-10.658-11.882-19.257 2.037-8.599 10.658-13.915 19.257-11.882l124.224 29.422c8.599 2.037 13.918 10.658 11.882 19.257-1.744 7.359-8.31 12.316-15.556 12.316z"/><path d="m28.904 352.357c-7.453 0-14.125-5.235-15.664-12.822-1.757-8.66 3.84-17.104 12.5-18.861l106.715-21.646c8.666-1.759 17.104 3.841 18.861 12.5 1.757 8.66-3.84 17.104-12.5 18.861-115.95 23.519-107.588 21.968-109.912 21.968z"/></g></svg>