<svg id="Layer_1" enable-background="new 0 0 512.023 512.023" height="512" viewBox="0 0 512.023 512.023" width="512" xmlns="http://www.w3.org/2000/svg"><path d="m232.754 78.862-94.966-71.923c-22.345-16.922-54.428-.966-54.428 27.055v133.903c0 8.915 7.248 16 16 16 6.394 0-2.461 4.314 132.13-78.66 9.539-5.881 10.252-19.567 1.264-26.375z" fill="#c69a85"/><path d="m374.235 6.939-94.966 71.923c-8.934 6.767-8.333 20.458 1.264 26.375 134.432 82.875 125.66 78.66 132.13 78.66 8.75 0 16-7.085 16-16v-133.903c0-28.031-32.091-43.97-54.428-27.055z" fill="#c69a85"/><path d="m83.36 98.025v69.872c0 12.494 13.741 20.189 24.396 13.62l123.733-76.279c9.539-5.88 10.252-19.567 1.264-26.375l-52.482-39.748c-36.874 11.611-70.088 31.659-96.911 58.91z" fill="#dfb7a4"/><path d="m428.663 98.025c-26.799-27.226-60.003-47.288-96.911-58.91l-52.482 39.748c-8.934 6.767-8.333 20.458 1.264 26.375l123.733 76.279c10.635 6.558 24.396-1.104 24.396-13.62z" fill="#dfb7a4"/><path d="m256.012 298.464c-88.418 0-160.353 71.934-160.353 160.353v37.207c0 8.836 7.164 16 16 16h288.705c8.836 0 16-7.164 16-16v-37.207c0-88.419-71.934-160.353-160.352-160.353z" fill="#dfb7a4"/><path d="m440.517 191.3c-3.727-5.418-10.386-8.007-16.794-6.522l-167.711 38.846-167.711-38.846c-6.544-1.514-13.334 1.217-17.006 6.838-50.705 77.631-67.005 134.457-51.297 178.834 22.038 62.26 101.226 87.783 201.481 120.096 32.67 10.531 31.011 10.37 34.533 10.37 3.374 0 2.739-.102 27.083-7.84 97.189-30.894 188.408-58.388 211.211-124.894 15.4-44.913-1.692-101.119-53.789-176.882z" fill="#c69a85"/><path d="m392.261 114.284c-75.453-68.492-197.027-68.509-272.499 0-74.796 67.895-78.319 180.232 1.287 251.595 75.18 67.395 192.835 69.109 269.926 0 79.54-71.305 76.151-183.638 1.286-251.595z" fill="#c69a85"/><path d="m121.049 291.368c-27.717-24.847-46.273-55.557-54.179-88.862-26.942 115.005 73.492 214.644 189.142 214.644 116.158 0 215.978-100.09 189.141-214.644-30.678 129.234-209.957 191.19-324.104 88.862z" fill="#e8d9d4"/><path d="m311.506 269.632c-30.732-24.416-80.249-24.422-110.989 0-31.104 24.712-31.105 64.953 0 89.665 30.732 24.416 80.249 24.422 110.989 0 31.104-24.712 31.105-64.953 0-89.665z" fill="#f4d3bd"/><g fill="#7f604b"><circle cx="188.745" cy="220.207" r="19.841"/><circle cx="323.279" cy="220.207" r="19.841"/><path d="m230.833 309.532h-15c-8.836 0-16 7.164-16 16s7.164 16 16 16c15.898 0 27.14 1.48 40.178-8.629 12.982 10.065 24.384 8.629 40.178 8.629 8.836 0 16-7.164 16-16s-7.164-16-16-16h-15c-5.061 0-9.178-4.117-9.178-9.178v-2.151l9.064-13.111c6.203-8.972-.219-21.218-11.126-21.218h-27.877c-10.907 0-17.328 12.246-11.126 21.218l9.064 13.111v2.151c.002 5.061-4.116 9.178-9.177 9.178z"/><path d="m371.769 284.875c-8.148 0-15.114-6.196-15.908-14.474-.844-8.796 5.603-16.611 14.399-17.454l124.224-11.913c8.787-.844 16.611 5.603 17.454 14.399.844 8.796-5.603 16.611-14.399 17.454-132.992 12.755-124.572 11.988-125.77 11.988z"/><path d="m468.093 379.026c-4.902 0 2.882 2.86-113.304-49.742-8.05-3.645-11.621-13.125-7.977-21.175s13.124-11.623 21.175-7.977l106.714 48.313c15.602 7.065 10.574 30.581-6.608 30.581z"/><path d="m140.254 284.875c-1.197 0 7.299.774-125.77-11.987-8.796-.843-15.243-8.658-14.399-17.454.843-8.796 8.662-15.244 17.454-14.399l124.224 11.913c8.796.843 15.243 8.658 14.399 17.454-.793 8.276-7.76 14.473-15.908 14.473z"/><path d="m43.93 379.026c-17.191 0-22.199-23.521-6.608-30.58l106.714-48.313c8.05-3.645 17.53-.074 21.175 7.977 3.645 8.05.073 17.53-7.977 21.175-116.154 52.587-108.397 49.741-113.304 49.741z"/></g></svg>