<svg id="Layer_1" enable-background="new 0 0 512.023 512.023" height="512" viewBox="0 0 512.023 512.023" width="512" xmlns="http://www.w3.org/2000/svg"><path d="m232.754 78.862-94.966-71.923c-22.345-16.922-54.428-.966-54.428 27.055v133.903c0 8.915 7.248 16 16 16 6.394 0-2.461 4.314 132.13-78.66 9.539-5.881 10.252-19.567 1.264-26.375z" fill="#e0c8bf"/><path d="m374.235 6.939-94.966 71.923c-8.934 6.767-8.333 20.458 1.264 26.375 134.432 82.875 125.66 78.66 132.13 78.66 8.75 0 16-7.085 16-16v-133.903c0-28.031-32.091-43.97-54.428-27.055z" fill="#e0c8bf"/><path d="m83.36 98.025v69.872c0 12.494 13.741 20.189 24.396 13.62l123.733-76.279c9.539-5.88 10.252-19.567 1.264-26.375l-52.482-39.748c-36.874 11.611-70.088 31.659-96.911 58.91z" fill="#dfb7a4"/><path d="m428.663 98.025c-26.799-27.226-60.003-47.288-96.911-58.91l-52.482 39.748c-8.934 6.767-8.333 20.458 1.264 26.375l123.733 76.279c10.635 6.558 24.396-1.104 24.396-13.62z" fill="#dfb7a4"/><path d="m256.012 298.464c-88.418 0-160.353 71.934-160.353 160.353v37.207c0 8.836 7.164 16 16 16h288.705c8.836 0 16-7.164 16-16v-37.207c0-88.419-71.934-160.353-160.352-160.353z" fill="#e8d9d4"/><path d="m416.119 450.013c-4.586-84.34-74.643-151.549-160.108-151.549s-155.52 67.209-160.107 151.549c94.212 60.434 223.07 62.316 320.215 0z" fill="#e0c8bf"/><path d="m406.032 402.199c-22.932-60.56-81.524-103.735-150.02-103.735s-127.088 43.175-150.02 103.735c86.059 66.906 213.427 67.336 300.04 0z" fill="#dfb7a4"/><path d="m481.488 337.211-28.577-112.587c-22.442-155.882-218.322-208.007-330.1-114.331-34.665 29.051-57.263 69.626-63.699 114.33l-28.577 112.588c-3.451 13.6 11.116 24.772 23.359 17.878 18.611-10.481 33.996-10.761 49.688-.846 43.71 48.545 65.88 85.162 152.43 85.162 86.309 0 108.397-36.278 152.537-85.281 9.446-6.365 24.718-12.563 49.783 1.078 12.228 6.656 26.586-4.478 23.156-17.991z" fill="#e8d9d4"/><path d="m481.489 337.211-28.578-112.587c-22.442-155.881-218.322-208.005-330.1-114.33-34.665 29.051-57.263 69.626-63.699 114.33l-28.577 112.587c-3.451 13.6 11.116 24.772 23.359 17.878 18.611-10.481 33.997-10.762 49.687-.846 1.248 1.385 2.474 2.757 3.681 4.114 15.409 17.322 37.545 27.257 60.733 27.257h24.097c26.305 0 49.682-12.773 64.253-32.444 14.572 19.671 37.949 32.444 64.253 32.444h23.428c23.188 0 45.325-9.935 60.733-27.257 1.242-1.396 2.504-2.808 3.789-4.234 9.446-6.366 24.715-12.563 49.784 1.078 12.23 6.653 26.586-4.477 23.157-17.99z" fill="#e0c8bf"/><path d="m481.019 335.359c-2.89-11.387-10.42-21.459-22.686-28.132-25.069-13.642-40.338-7.444-49.784-1.078-1.283 1.424-2.544 2.834-3.785 4.229-15.428 17.344-37.525 27.262-60.737 27.262h-23.427c-26.305 0-49.682-12.773-64.253-32.444-14.572 19.671-37.948 32.444-64.253 32.444h-24.097c-23.19 0-45.281-9.891-60.696-27.216-1.219-1.37-2.458-2.756-3.718-4.155-15.691-9.916-31.076-9.636-49.687.846-.295.166-.594.322-.896.468-11.121 5.37-18.955 15.807-21.993 27.777-4.373 17.227 11.614 26.079 22.889 19.729 18.611-10.481 33.997-10.762 49.687-.846 1.26 1.399 2.499 2.785 3.718 4.155 15.415 17.324 37.507 27.216 60.696 27.216h24.097c26.305 0 49.682-12.773 64.253-32.444 14.572 19.671 37.949 32.444 64.253 32.444h23.428c23.212 0 45.31-9.918 60.737-27.262 1.241-1.395 2.501-2.805 3.785-4.229 9.446-6.366 24.715-12.563 49.784 1.078 6.466 3.517 14.634 2.219 19.689-3.512 6.605-7.488 2.77-17.219 2.996-16.33z" fill="#dfb7a4"/><path d="m311.506 269.632c-30.732-24.416-80.249-24.422-110.989 0-31.104 24.712-31.105 64.953 0 89.665 14.855 11.802 34.563-22.952 55.494-22.952s40.64 34.754 55.494 22.952c31.105-24.712 31.106-64.953.001-89.665z" fill="#e8d9d4"/><g fill="#93786d"><circle cx="202.423" cy="224.842" r="19.841"/><circle cx="309.601" cy="224.842" r="19.841"/><path d="m135.664 283.863c8.528 2.305 17.314-2.739 19.622-11.269 2.307-8.53-2.738-17.315-11.269-19.622-49.323-13.337-95.169-7.541-136.266 17.231-7.568 4.562-10.004 14.396-5.443 21.963 4.555 7.557 14.385 10.011 21.963 5.443 33.806-20.378 70.243-24.873 111.393-13.746z"/><path d="m151.769 318.423c-4.956-7.315-14.906-9.227-22.221-4.271-34.305 23.245-59.707 48.995-75.502 76.533-6.142 10.71 1.687 23.963 13.865 23.963 5.545 0 10.937-2.887 13.894-8.042 13.352-23.279 35.454-45.472 65.693-65.962 7.316-4.957 9.228-14.906 4.271-22.221z"/><path d="m504.272 270.203c-41.095-24.772-86.941-30.568-136.266-17.231-8.53 2.307-13.575 11.092-11.269 19.622 2.307 8.53 11.09 13.574 19.622 11.269 41.148-11.128 77.586-6.631 111.392 13.747 7.596 4.578 17.418 2.096 21.963-5.443 4.562-7.568 2.126-17.401-5.442-21.964z"/><path d="m382.476 314.153c-7.316-4.958-17.265-3.044-22.221 4.27-4.957 7.315-3.045 17.264 4.27 22.221 30.24 20.491 52.342 42.684 65.693 65.962 2.958 5.156 8.348 8.042 13.894 8.042 12.187 0 20.004-13.258 13.865-23.963-15.795-27.538-41.197-53.287-75.501-76.532z"/><path d="m375.674 353.614h-55.074c-25.651 0-46.656-20.261-47.861-45.62l9.111-13.178c6.394-9.249-.226-21.873-11.469-21.873h-28.738c-11.244 0-17.863 12.625-11.469 21.873l9.721 14.06c-1.644 24.944-22.449 44.738-47.802 44.738h-56.074c-8.836 0-16 7.164-16 16s7.164 16 16 16h56.074c26.308 0 49.682-12.783 64.253-32.459 14.572 19.676 37.945 32.459 64.253 32.459h55.074c8.836 0 16-7.164 16-16s-7.163-16-15.999-16z"/></g></svg>