<svg id="Layer_1" enable-background="new 0 0 512.023 512.023" height="512" viewBox="0 0 512.023 512.023" width="512" xmlns="http://www.w3.org/2000/svg"><path d="m232.754 78.862-94.966-71.923c-22.345-16.922-54.428-.966-54.428 27.055v133.903c0 8.915 7.248 16 16 16 6.394 0-2.461 4.314 132.13-78.66 9.539-5.881 10.252-19.567 1.264-26.375z" fill="#e8d9d4"/><path d="m374.235 6.939-94.966 71.923c-8.934 6.767-8.333 20.458 1.264 26.375 134.432 82.875 125.66 78.66 132.13 78.66 8.75 0 16-7.085 16-16v-133.903c0-28.031-32.091-43.97-54.428-27.055z" fill="#e8d9d4"/><path d="m83.36 98.025v69.872c0 12.494 13.741 20.189 24.396 13.62l123.733-76.279c9.539-5.88 10.252-19.567 1.264-26.375l-52.482-39.748c-36.874 11.611-70.087 31.659-96.911 58.91z" fill="#e0c8bf"/><path d="m428.663 98.025c-26.799-27.226-60.003-47.288-96.911-58.91l-52.482 39.748c-8.934 6.767-8.333 20.458 1.264 26.375l123.733 76.279c10.635 6.558 24.396-1.104 24.396-13.62z" fill="#e0c8bf"/><path d="m256.012 298.464c-88.418 0-160.353 71.934-160.353 160.353v37.207c0 8.836 7.164 16 16 16h288.705c8.837 0 16-7.164 16-16v-37.207c0-88.419-71.933-160.353-160.352-160.353z" fill="#e0c8bf"/><path d="m440.517 191.3c-3.727-5.418-10.388-8.005-16.794-6.522l-167.711 38.846-167.711-38.846c-6.542-1.514-13.334 1.217-17.006 6.838-50.705 77.631-67.005 134.457-51.297 178.834 22.038 62.26 101.226 87.783 201.481 120.096 32.67 10.531 31.011 10.37 34.533 10.37 3.374 0 2.737-.102 27.083-7.84 97.196-30.897 188.406-58.389 211.211-124.894 15.4-44.913-1.692-101.119-53.789-176.882z" fill="#dfb7a4"/><path d="m392.261 114.284c-75.452-68.492-197.026-68.509-272.499 0-95.967 87.113-66.878 233.132 55.238 286.038 54.459 23.495 108.474 23.873 162.022 0 122.264-52.969 151.066-199.052 55.239-286.038z" fill="#dfb7a4"/><path d="m337.022 327.704c-115.795 51.623-245.602-18.52-270.33-124.427-32.422 141.469 128.924 260.086 270.33 197.045 78.482-34.002 127.486-113.364 108.309-197.045-12.473 53.422-52.249 100.139-108.309 124.427z" fill="#e0c8bf"/><path d="m311.506 265.849c-30.732-24.416-80.249-24.422-110.989 0-31.104 24.712-31.105 64.953 0 89.665 30.732 24.416 80.249 24.422 110.989 0 31.104-24.712 31.105-64.953 0-89.665z" fill="#e8d9d4"/><g fill="#93786d"><circle cx="188.745" cy="220.206" r="19.841"/><circle cx="323.279" cy="220.206" r="19.841"/><path d="m296.19 309.532h-15c-5.062 0-9.179-4.117-9.179-9.178v-2.151l9.064-13.111c6.203-8.972-.219-21.218-11.126-21.218h-27.877c-10.907 0-17.328 12.246-11.126 21.218l9.064 13.111v2.151c0 5.061-4.117 9.178-9.178 9.178h-15c-8.836 0-16 7.164-16 16s7.164 16 16 16c15.898 0 27.14 1.48 40.178-8.629 12.982 10.065 24.384 8.629 40.179 8.629 8.837 0 16-7.164 16-16s-7.162-16-15.999-16z"/><path d="m256.012 198.503c8.837 0 16-7.164 16-16v-103.558c0-8.836-7.163-16-16-16-8.836 0-16 7.164-16 16v103.559c0 8.836 7.163 15.999 16 15.999z"/><path d="m188.745 163.211c8.836 0 16-7.164 16-16v-54.086c0-8.836-7.164-16-16-16s-16 7.164-16 16v54.085c0 8.837 7.163 16.001 16 16.001z"/><path d="m317.734 167.025c8.837 0 16-7.164 16-16v-57.029c0-8.836-7.163-16-16-16s-16 7.164-16 16v57.029c0 8.837 7.163 16 16 16z"/><path d="m144.017 252.973c-49.324-13.337-95.169-7.541-136.266 17.231-7.568 4.562-10.004 14.396-5.443 21.963 4.555 7.557 14.385 10.011 21.963 5.443 33.805-20.379 70.243-24.874 111.392-13.747 8.531 2.305 17.315-2.739 19.622-11.269s-2.738-17.315-11.268-19.621z"/><path d="m129.548 314.153c-34.305 23.246-59.707 48.995-75.501 76.533-4.396 7.666-1.746 17.443 5.919 21.84 7.707 4.419 17.467 1.705 21.84-5.919 13.351-23.279 35.453-45.472 65.693-65.962 7.315-4.957 9.228-14.906 4.271-22.221-4.957-7.316-14.907-9.227-22.222-4.271z"/><path d="m504.271 270.203c-41.093-24.772-86.939-30.569-136.266-17.231-8.53 2.307-13.575 11.092-11.269 19.622 2.308 8.531 11.094 13.574 19.622 11.269 41.148-11.127 77.587-6.631 111.393 13.747 7.597 4.579 17.42 2.094 21.963-5.443 4.562-7.568 2.126-17.401-5.443-21.964z"/><path d="m382.476 314.153c-7.316-4.957-17.266-3.044-22.221 4.27-4.957 7.315-3.046 17.264 4.27 22.221 30.24 20.491 52.343 42.684 65.694 65.962 2.957 5.156 8.348 8.042 13.894 8.042 12.186 0 20.004-13.259 13.864-23.963-15.794-27.537-41.197-53.287-75.501-76.532z"/></g></svg>