<svg id="Layer_1" enable-background="new 0 0 512.023 512.023" height="512" viewBox="0 0 512.023 512.023" width="512" xmlns="http://www.w3.org/2000/svg"><path d="m443.252 195.318c-10.529-37.008-34.337-70.39-67.283-94.246-109.649-79.396-272.525-28.69-307.298 94.603-52.7 81.881-86.18 167.745-8.702 226.507 22.739 17.247 36.084 44.642 35.697 73.27-.139 9.775 7.465 16.571 15.993 16.571h288.705c9.001 0 16.123-7.401 15.999-16.223-.374-28.907 12.99-56.298 35.75-73.27 79.897-59.58 46.806-145.013-8.861-227.212z" fill="#eaeaea"/><path d="m232.754 78.862-94.966-71.923c-22.345-16.922-54.428-.966-54.428 27.055v133.903c0 8.915 7.248 16 16 16 6.394 0-2.461 4.314 132.13-78.66 9.539-5.881 10.252-19.567 1.264-26.375z" fill="#dfb7a4"/><path d="m374.235 6.939-94.966 71.923c-8.934 6.767-8.333 20.458 1.264 26.375 134.432 82.875 125.66 78.66 132.13 78.66 8.75 0 16-7.085 16-16v-133.903c0-28.031-32.091-43.97-54.428-27.055z" fill="#dfb7a4"/><path d="m83.36 98.025v69.872c0 12.494 13.741 20.189 24.396 13.62l123.733-76.279c9.539-5.88 10.252-19.567 1.264-26.375l-52.482-39.748c-36.874 11.611-70.088 31.659-96.911 58.91z" fill="#c69a85"/><path d="m428.663 98.025c-26.799-27.226-60.003-47.288-96.911-58.91l-52.482 39.748c-8.934 6.767-8.333 20.458 1.264 26.375l123.733 76.279c10.635 6.558 24.396-1.104 24.396-13.62z" fill="#c69a85"/><path d="m392.261 114.284c-75.452-68.492-197.026-68.509-272.499 0-95.967 87.113-66.878 233.132 55.238 286.038 54.459 23.495 108.474 23.873 162.022 0 122.264-52.969 151.066-199.052 55.239-286.038z" fill="#e0c8bf"/><path d="m337.022 327.704c-115.795 51.623-245.602-18.52-270.33-124.427-32.422 141.469 128.924 260.086 270.33 197.045 78.482-34.002 127.486-113.364 108.309-197.045-12.473 53.422-52.249 100.139-108.309 124.427z" fill="#f9f9f9"/><path d="m311.506 265.849c-30.732-24.416-80.249-24.422-110.989 0-31.104 24.712-31.105 64.953 0 89.665 30.732 24.416 80.249 24.422 110.989 0 31.104-24.712 31.105-64.953 0-89.665z" fill="#eaeaea"/><path d="m439.305 434.256c-19.464 15.42-41.366 28.613-65.316 38.989-77.984 34.766-156.646 34.215-235.956-.001-23.617-10.232-45.246-23.202-64.507-38.347 14.374 16.605 22.442 38.204 22.14 60.555-.139 9.775 7.465 16.571 15.993 16.571h288.705c9.001 0 16.123-7.401 15.999-16.223-.297-22.96 8.081-44.958 22.942-61.544z" fill="#f9f9f9"/><g fill="#93786d"><circle cx="188.745" cy="220.206" r="19.841"/><circle cx="323.279" cy="220.206" r="19.841"/><path d="m296.19 309.532h-15c-5.062 0-9.179-4.117-9.179-9.178v-2.151l9.064-13.111c6.203-8.972-.219-21.218-11.126-21.218h-27.877c-10.907 0-17.328 12.246-11.126 21.218l9.064 13.111v2.151c0 5.061-4.117 9.178-9.179 9.178h-15c-8.837 0-16 7.164-16 16s7.163 16 16 16c15.898 0 27.14 1.48 40.179-8.629 12.982 10.065 24.384 8.629 40.179 8.629 8.837 0 16-7.164 16-16s-7.162-16-15.999-16z"/><path d="m256.012 62.945c-8.837 0-16 7.164-16 16v103.559c0 8.836 7.163 16 16 16s16-7.164 16-16v-103.559c0-8.837-7.163-16-16-16z"/><path d="m188.744 77.125c-8.837 0-16 7.164-16 16v54.085c0 8.836 7.163 16 16 16s16-7.164 16-16v-54.085c0-8.836-7.163-16-16-16z"/><path d="m317.734 77.996c-8.837 0-16 7.164-16 16v57.029c0 8.836 7.163 16 16 16s16-7.164 16-16v-57.029c0-8.836-7.163-16-16-16z"/><path d="m511.938 255.433c-.844-8.797-8.666-15.244-17.454-14.399l-124.224 11.913c-8.796.843-15.243 8.658-14.399 17.454.794 8.277 7.76 14.474 15.908 14.474 1.197 0-7.299.774 125.77-11.987 8.796-.844 15.243-8.658 14.399-17.455z"/><path d="m474.701 348.447-106.715-48.313c-8.047-3.646-17.529-.074-21.175 7.977-3.645 8.05-.073 17.53 7.978 21.175l106.715 48.313c8.047 3.646 17.53.073 21.175-7.977 3.644-8.051.073-17.531-7.978-21.175z"/><path d="m140.254 284.875c8.148 0 15.114-6.197 15.908-14.474.844-8.796-5.604-16.611-14.399-17.454l-124.224-11.913c-8.798-.844-16.61 5.603-17.454 14.399s5.604 16.611 14.399 17.454c132.992 12.755 124.574 11.988 125.77 11.988z"/><path d="m144.037 300.133-106.715 48.314c-8.051 3.645-11.622 13.125-7.978 21.175 3.645 8.05 13.126 11.621 21.175 7.977l106.715-48.313c8.051-3.645 11.622-13.125 7.978-21.175-3.645-8.051-13.124-11.623-21.175-7.978z"/></g></svg>