<svg id="Layer_1" enable-background="new 0 0 512.023 512.023" height="512" viewBox="0 0 512.023 512.023" width="512" xmlns="http://www.w3.org/2000/svg"><path d="m232.754 78.862-94.966-71.923c-22.345-16.922-54.428-.966-54.428 27.055v133.903c0 8.915 7.248 16 16 16 6.394 0-2.461 4.314 132.13-78.66 9.539-5.881 10.252-19.567 1.264-26.375z" fill="#fdaa6a"/><path d="m374.235 6.939-94.966 71.923c-8.934 6.767-8.333 20.458 1.264 26.375 134.432 82.875 125.66 78.66 132.13 78.66 8.75 0 16-7.085 16-16v-133.903c0-28.031-32.091-43.97-54.428-27.055z" fill="#fdaa6a"/><path d="m83.36 98.025v69.872c0 12.494 13.741 20.189 24.396 13.62l123.733-76.279c9.539-5.88 10.252-19.567 1.264-26.375l-52.482-39.748c-36.874 11.611-70.088 31.659-96.911 58.91z" fill="#f0a567"/><path d="m428.663 98.025c-26.799-27.226-60.003-47.288-96.911-58.91l-52.482 39.748c-8.934 6.767-8.333 20.458 1.264 26.375l123.733 76.279c10.635 6.558 24.396-1.104 24.396-13.62z" fill="#f0a567"/><path d="m256.012 298.464c-88.419 0-160.353 71.934-160.353 160.353v37.207c0 8.836 7.163 16 16 16h288.705c8.837 0 16-7.164 16-16v-37.207c0-88.419-71.933-160.353-160.352-160.353z" fill="#fdaa6a"/><path d="m387.731 114.728c-69.533-68.445-192.539-69.792-263.439 0-33.377 32.854-51.758 77.36-51.758 125.319 0 54.581 40.882 102.342 85.098 134.288 39.779 68.647 147.312 71.16 190.823 4.177 46.854-32.201 91.035-81.695 91.035-138.465-.001-47.958-18.382-92.464-51.759-125.319z" fill="#fdaa6a"/><path d="m241.768 489.9c-21.981-53.057-79.726-79.738-133.424-64.324-6.167 1.77-10.68 7.053-11.465 13.421-1.585 12.855-1.22 18.39-1.22 57.026 0 8.836 7.163 16 16 16h115.326c11.394 0 19.141-11.6 14.783-22.123z" fill="#727272"/><path d="m402.531 393.593c-3.204-7.189-11.166-10.982-18.765-8.938-49.576 13.319-84.318 59.515-82.138 112.033.356 8.57 7.408 15.335 15.986 15.335h82.749c8.837 0 16-7.164 16-16 .001-40.157 2.401-66.016-13.832-102.43z" fill="#727272"/><path d="m348.455 311.243c-43.536 67.024-151.062 64.437-190.823-4.177-35.756-25.834-69.701-62.128-81.135-104.937-2.612 12.282-3.963 24.972-3.963 37.918 0 54.581 40.882 102.342 85.098 134.288 39.779 68.647 147.312 71.16 190.823 4.177 46.854-32.201 91.035-81.695 91.035-138.465 0-12.946-1.351-25.637-3.963-37.918-12.031 45.041-48.957 82.919-87.072 109.114z" fill="#f0a567"/><path d="m311.506 289.023c-30.732-24.416-80.249-24.422-110.989 0-31.104 24.712-31.105 64.953 0 89.665 30.732 24.416 80.249 24.422 110.989 0 31.104-24.712 31.105-64.953 0-89.665z" fill="#f9bf98"/><g fill="#727272"><circle cx="202.586" cy="232.571" r="19.841"/><circle cx="309.437" cy="232.571" r="19.841"/><path d="m290.905 336.39-18.894-5.843v-18.967l9.064-13.111c6.203-8.972-.219-21.218-11.126-21.218h-27.877c-10.907 0-17.328 12.246-11.126 21.218l9.064 13.111v18.967l-18.894 5.843c-8.442 2.61-13.17 11.57-10.56 20.013 2.611 8.442 11.571 13.17 20.013 10.559l25.44-7.867c28.029 8.667 26.955 8.585 30.172 8.585 6.83-.001 13.157-4.41 15.281-11.277 2.613-8.443-2.114-17.403-10.557-20.013z"/><path d="m511.938 225.087c-.844-8.797-8.659-15.246-17.454-14.399l-124.224 11.913c-8.796.843-15.243 8.658-14.399 17.454.794 8.277 7.76 14.474 15.908 14.474 1.197 0-7.299.774 125.77-11.987 8.796-.844 15.243-8.658 14.399-17.455z"/><path d="m474.701 318.1-106.715-48.313c-8.046-3.646-17.529-.074-21.175 7.977-3.645 8.05-.073 17.53 7.978 21.175l106.715 48.313c8.047 3.646 17.53.073 21.175-7.977 3.644-8.05.073-17.53-7.978-21.175z"/><path d="m140.254 254.529c8.148 0 15.114-6.197 15.908-14.474.844-8.796-5.604-16.611-14.399-17.454l-124.224-11.913c-8.791-.847-16.61 5.603-17.454 14.399s5.604 16.611 14.399 17.454c132.992 12.754 124.574 11.988 125.77 11.988z"/><path d="m144.037 269.787-106.715 48.313c-8.051 3.645-11.622 13.125-7.978 21.175 3.645 8.05 13.126 11.621 21.175 7.977l106.715-48.313c8.051-3.645 11.622-13.125 7.978-21.175-3.645-8.05-13.123-11.623-21.175-7.977z"/><path d="m256.012 62.945c-8.837 0-16 7.164-16 16v103.559c0 8.836 7.163 16 16 16s16-7.164 16-16v-103.559c0-8.837-7.163-16-16-16z"/><path d="m188.744 77.125c-8.837 0-16 7.164-16 16v54.085c0 8.836 7.163 16 16 16s16-7.164 16-16v-54.085c0-8.836-7.163-16-16-16z"/><path d="m317.734 77.996c-8.837 0-16 7.164-16 16v57.029c0 8.836 7.163 16 16 16s16-7.164 16-16v-57.029c0-8.836-7.163-16-16-16z"/></g></svg>