<svg id="Layer_1" enable-background="new 0 0 512.023 512.023" height="512" viewBox="0 0 512.023 512.023" width="512" xmlns="http://www.w3.org/2000/svg"><path d="m232.754 78.862-94.966-71.923c-22.345-16.922-54.428-.966-54.428 27.055v133.903c0 8.915 7.248 16 16 16 6.394 0-2.461 4.314 132.13-78.66 9.539-5.881 10.252-19.567 1.264-26.375z" fill="#fdaa6a"/><path d="m374.235 6.939-94.966 71.923c-8.934 6.767-8.333 20.458 1.264 26.375 134.432 82.875 125.66 78.66 132.13 78.66 8.75 0 16-7.085 16-16v-133.903c0-28.031-32.091-43.97-54.428-27.055z" fill="#fdaa6a"/><path d="m83.36 98.025v69.872c0 12.494 13.741 20.189 24.396 13.62l123.733-76.279c9.539-5.88 10.252-19.567 1.264-26.375l-52.482-39.748c-36.874 11.611-70.088 31.659-96.911 58.91z" fill="#f9b78a"/><path d="m428.663 98.025c-26.799-27.226-60.003-47.288-96.911-58.91l-52.482 39.748c-8.934 6.767-8.333 20.458 1.264 26.375l123.733 76.279c10.635 6.558 24.396-1.104 24.396-13.62z" fill="#f9b78a"/><path d="m256.012 298.464c-88.418 0-160.353 71.934-160.353 160.353v37.207c0 8.836 7.164 16 16 16h288.705c8.836 0 16-7.164 16-16v-37.207c0-88.419-71.934-160.353-160.352-160.353z" fill="#fdaa6a"/><path d="m387.731 114.728c-69.533-68.445-192.539-69.792-263.439 0-33.376 32.854-51.758 77.36-51.758 125.319 0 54.576 40.877 102.34 85.097 134.287 39.779 68.648 147.314 71.162 190.824 4.177 46.856-32.203 91.034-81.695 91.034-138.464 0-47.958-18.381-92.464-51.758-125.319z" fill="#fdaa6a"/><path d="m407.636 406.536c-3.323-9.639-14.722-13.762-23.444-8.453l-99.579 60.596c-18.572 11.39-41.558 11.29-60.022-.248l-95.286-62.818c-8.589-5.662-20.258-1.855-23.822 7.833-11.711 31.826-9.824 52.998-9.824 92.576 0 8.836 7.164 16 16 16h288.705c8.836 0 16-7.164 16-16 0-37.311 1.803-58.939-8.728-89.486z" fill="#f9b78a"/><path d="m348.455 317.256c-43.537 67.025-151.065 64.438-190.824-4.177-36.5-26.369-71.131-63.675-81.813-107.629-2.169 11.244-3.284 22.816-3.284 34.598 0 54.576 40.877 102.34 85.097 134.287 39.779 68.648 147.314 71.162 190.824 4.177 46.856-32.203 91.034-81.695 91.034-138.464 0-11.782-1.116-23.354-3.284-34.598-11.194 46.061-48.684 84.957-87.75 111.806z" fill="#f0a567"/><path d="m311.506 291.245c-30.732-24.416-80.249-24.422-110.989 0-31.104 24.712-31.105 64.953 0 89.665 30.732 24.416 80.249 24.422 110.989 0 31.104-24.712 31.105-64.953 0-89.665z" fill="#f9bf98"/><g fill="#7f604b"><circle cx="202.586" cy="245.404" r="19.841"/><circle cx="309.438" cy="245.404" r="19.841"/><path d="m290.906 336.39-18.895-5.843v-18.967l9.064-13.111c6.203-8.971-.219-21.218-11.126-21.218h-27.877c-10.907 0-17.328 12.246-11.126 21.218l9.064 13.111v18.967l-18.895 5.843c-8.442 2.61-13.169 11.57-10.559 20.012s11.571 13.171 20.013 10.559l25.44-7.867c28.029 8.667 26.955 8.585 30.172 8.585 6.831-.001 13.157-4.41 15.281-11.278 2.614-8.44-2.114-17.4-10.556-20.011z"/><path d="m511.938 225.087c-.843-8.797-8.667-15.246-17.454-14.399l-124.224 11.913c-8.796.843-15.243 8.658-14.399 17.454.793 8.277 7.759 14.474 15.908 14.474 1.197 0-7.299.774 125.77-11.987 8.796-.844 15.243-8.658 14.399-17.455z"/><path d="m474.702 318.1-106.714-48.313c-8.051-3.646-17.53-.074-21.175 7.977s-.073 17.53 7.977 21.175l106.714 48.313c8.049 3.646 17.531.072 21.175-7.977 3.644-8.05.072-17.53-7.977-21.175z"/><path d="m140.254 254.529c8.147 0 15.114-6.197 15.908-14.474.844-8.796-5.603-16.611-14.399-17.454l-124.224-11.913c-8.792-.848-16.611 5.604-17.454 14.399-.844 8.796 5.603 16.611 14.399 17.454 132.992 12.754 124.573 11.988 125.77 11.988z"/><path d="m144.036 269.787-106.714 48.313c-8.05 3.645-11.621 13.125-7.977 21.175 3.645 8.051 13.126 11.621 21.175 7.977l106.714-48.313c8.05-3.645 11.621-13.125 7.977-21.175-3.645-8.051-13.125-11.623-21.175-7.977z"/><path d="m185.606 166.86 9.23 6.161v12.274c0 8.836 7.164 16 16 16s16-7.164 16-16v-20.832c0-5.347-2.67-10.34-7.117-13.308l-3.182-2.124c1.732-11.018-2.583.314 25.222-61.115 3.644-8.05.072-17.53-7.979-21.174-8.05-3.646-17.53-.072-21.174 7.979l-32.695 72.232c-3.227 7.136-.818 15.56 5.695 19.907z"/><path d="m299.415 74.722c-3.644-8.05-13.124-11.622-21.174-7.979-8.05 3.644-11.623 13.124-7.979 21.174l23.923 52.854 1.299 8.261c-12.393 8.272-10.299 10.311-10.299 36.263 0 8.836 7.164 16 16 16s16-7.164 16-16v-12.274l9.23-6.161c6.513-4.347 8.923-12.771 5.693-19.905z"/><path d="m161.334 185.726-10.588-7.784 6.594-54.335c1.065-8.772-5.184-16.747-13.956-17.811-8.769-1.07-16.747 5.183-17.811 13.956l-7.721 63.617c-.696 5.734 1.752 11.397 6.406 14.819 18.598 13.673 20.672 16.432 27.585 16.432 15.433-.002 21.894-19.776 9.491-28.894z"/><path d="m360.179 214.618c7.054 0 9.602-3.211 27.585-16.432 4.654-3.421 7.102-9.085 6.406-14.819l-7.721-63.617c-1.064-8.772-9.04-15.027-17.811-13.956-8.772 1.064-15.021 9.039-13.956 17.811l6.594 54.335-10.588 7.784c-12.391 9.112-5.949 28.896 9.491 28.894z"/></g></svg>