<svg id="Layer_1" enable-background="new 0 0 512.02 512.02" height="512" viewBox="0 0 512.02 512.02" width="512" xmlns="http://www.w3.org/2000/svg"><path d="m256.01 298.46c-88.418 0-160.353 71.934-160.353 160.353v37.207c0 8.836 7.164 16 16 16h288.705c8.836 0 16-7.164 16-16v-37.207c0-88.418-71.934-160.353-160.352-160.353z" fill="#e0e0e0"/><path d="m416.117 450.009c-4.586-84.34-74.643-151.549-160.108-151.549s-155.52 67.21-160.107 151.549c94.212 60.434 223.07 62.316 320.215 0z" fill="#d3d1d1"/><path d="m406.03 402.195c-22.932-60.56-81.524-103.735-150.02-103.735s-127.088 43.175-150.02 103.735c119.393 92.821 180.479 92.951 300.04 0z" fill="#999"/><path d="m243.325 93.208-103.161-85.368c-21.593-17.869-54.335-3.313-55.543 24.684l-5.133 119.017c-.392 9.089 6.875 16.689 15.987 16.689 3.771 0-7.745 3.522 142.79-47.544 11.832-4.013 14.703-19.498 5.06-27.478z" fill="#e0e0e0"/><path d="m432.532 151.541-5.133-119.017c-1.209-28.003-33.957-42.55-55.544-24.684l-103.161 85.368c-9.626 7.966-6.793 23.457 5.061 27.479 149.946 50.867 138.993 47.544 142.79 47.544 9.125-.001 16.378-7.615 15.987-16.69z" fill="#e0e0e0"/><path d="m432.532 151.541-2.593-60.123c-27.214-24.437-59.524-42.467-94.72-53.261l-66.525 55.05c-9.626 7.966-6.793 23.457 5.061 27.479l137.651 46.696c10.611 3.601 21.612-4.576 21.126-15.841z" fill="#d3d1d1"/><path d="m79.488 151.541c-.392 9.089 6.875 16.689 15.987 16.689 3.771 0-7.745 3.522 142.79-47.544 11.832-4.014 14.704-19.499 5.061-27.479l-66.525-55.05c-35.195 10.794-67.506 28.824-94.72 53.261z" fill="#d3d1d1"/><path d="m406.664 114.66c-83.414-75.718-217.874-75.737-301.309 0-84.328 76.548-84.33 201.13 0 277.679 83.414 75.718 217.874 75.737 301.309 0 84.328-76.548 84.33-201.13 0-277.679z" fill="#d3d1d1"/><path d="m406.664 115.663c-83.414-75.718-217.874-75.737-301.309 0-33.166 30.107-54.202 68.371-60.885 109.896 6.683 41.525 27.719 79.79 60.886 109.896 83.414 75.718 217.874 75.737 301.309 0 33.166-30.106 54.203-68.371 60.886-109.896-6.684-41.525-27.721-79.789-60.887-109.896z" fill="#e0e0e0"/><path d="m324.314 280.892c-37.826-30.052-98.773-30.059-136.608 0-38.284 30.416-38.285 79.946 0 110.362 37.826 30.052 98.773 30.059 136.608 0 38.284-30.415 38.284-79.945 0-110.362z" fill="#f9f9f9"/><g fill="#999"><path d="m331.374 345.571h-28.136c-17.219 0-31.228-14.009-31.228-31.228v-12.173l9.064-13.111c6.203-8.971-.219-21.218-11.126-21.218h-27.877c-10.907 0-17.328 12.246-11.126 21.218l9.064 13.111v12.173c0 17.219-14.009 31.228-31.228 31.228h-28.136c-8.836 0-16 7.164-16 16s7.164 16 16 16h28.136c18.765 0 35.638-8.226 47.228-21.25 11.59 13.025 28.463 21.25 47.228 21.25h28.136c8.836 0 16-7.164 16-16s-7.163-16-15.999-16z"/><circle cx="201.011" cy="238.525" r="19.841"/><ellipse cx="311.004" cy="238.525" rx="19.841" ry="19.841" transform="matrix(.404 -.915 .915 .404 -32.843 426.639)"/><path d="m144.015 252.969c-49.323-13.337-95.169-7.541-136.265 17.231-7.568 4.562-10.004 14.396-5.443 21.963 4.555 7.557 14.385 10.011 21.963 5.443 33.805-20.378 70.242-24.875 111.392-13.747 8.528 2.308 17.314-2.739 19.622-11.269 2.306-8.529-2.739-17.315-11.269-19.621z"/><path d="m129.546 314.149c-34.305 23.245-59.707 48.995-75.502 76.533-4.396 7.665-1.746 17.443 5.919 21.84 7.691 4.411 17.458 1.721 21.84-5.919 13.352-23.279 35.454-45.472 65.693-65.962 7.315-4.957 9.228-14.906 4.271-22.221-4.956-7.316-14.906-9.227-22.221-4.271z"/><path d="m504.27 270.2c-41.095-24.771-86.941-30.568-136.266-17.231-8.53 2.307-13.575 11.092-11.269 19.622s11.09 13.574 19.622 11.269c41.148-11.129 77.586-6.632 111.392 13.747 7.596 4.578 17.418 2.096 21.963-5.443 4.562-7.569 2.126-17.402-5.442-21.964z"/><path d="m382.474 314.149c-7.316-4.958-17.265-3.045-22.221 4.27-4.957 7.315-3.045 17.264 4.27 22.221 30.24 20.491 52.342 42.684 65.693 65.962 2.958 5.156 8.348 8.042 13.894 8.042 12.187 0 20.004-13.258 13.865-23.963-15.795-27.537-41.197-53.286-75.501-76.532z"/></g></svg>