<svg id="Layer_1" enable-background="new 0 0 512.02 512.02" height="512" viewBox="0 0 512.02 512.02" width="512" xmlns="http://www.w3.org/2000/svg"><path d="m243.325 93.208-103.161-85.368c-21.593-17.869-54.335-3.313-55.543 24.684l-5.133 119.017c-.392 9.089 6.875 16.689 15.987 16.689 3.771 0-7.745 3.522 142.79-47.544 11.832-4.013 14.703-19.498 5.06-27.478z" fill="#e0c8bf"/><path d="m432.532 151.541-5.133-119.017c-1.209-28.003-33.957-42.55-55.544-24.684l-103.161 85.368c-9.626 7.966-6.793 23.457 5.061 27.479 149.946 50.867 138.993 47.544 142.79 47.544 9.125-.001 16.378-7.615 15.987-16.69z" fill="#e0c8bf"/><path d="m432.532 151.541-2.593-60.123c-27.214-24.437-59.524-42.467-94.72-53.261l-66.525 55.05c-9.626 7.966-6.793 23.457 5.061 27.479l137.651 46.696c10.611 3.601 21.612-4.576 21.126-15.841z" fill="#dfb7a4"/><path d="m79.488 151.541c-.392 9.089 6.875 16.689 15.987 16.689 3.771 0-7.745 3.522 142.79-47.544 11.832-4.014 14.704-19.499 5.061-27.479l-66.525-55.05c-35.195 10.794-67.506 28.824-94.72 53.261z" fill="#dfb7a4"/><path d="m419.714 196.103c-8.999-36.93-29.55-70.345-58.06-94.32-96.033-80.758-239.208-29.313-269.163 94.664-43.701 78.817-75.163 165.308-7.404 224.99 19.603 17.266 31.104 44.949 30.764 74.057-.112 9.793 7.519 16.525 15.995 16.525h248.596c8.997 0 16.143-7.427 15.999-16.194-.327-29.37 11.187-57.044 30.799-74.03 69.786-60.436 38.868-146.176-7.526-225.692z" fill="#e0c8bf"/><path d="m452.523 392.545c36.274-59.182 2.78-135.447-32.809-196.443-16.731-68.661-72.743-123.854-145.482-132.131-12.032-.795-23.749-.811-35.746-.049-72.516 8.054-129.198 63.005-145.995 132.525-33.683 60.749-66.771 137.968-31.581 196.489 6.081 1.221 12.055 3.723 18.066 7.522 5.302 5.888 10.288 11.575 15.128 17.097 41.639 47.495 71.724 54.32 161.906 54.32 90.181 0 120.266-6.825 161.905-54.32 4.879-5.565 9.906-11.299 15.255-17.236 4.937-3.328 11.252-6.609 19.353-7.774z" fill="#c69a85"/><path d="m481.486 336.207-28.577-112.587c-6.436-44.704-29.033-85.279-63.699-114.331-73.447-61.554-192.116-62.255-266.401 0-34.665 29.051-57.263 69.626-63.699 114.33l-28.577 112.588c-3.449 13.592 11.106 24.777 23.359 17.878 18.611-10.481 33.997-10.761 49.688-.846 43.71 48.545 65.88 85.162 152.43 85.162 86.309 0 108.395-36.281 152.538-85.281 9.444-6.365 24.715-12.563 49.783 1.078 12.232 6.655 26.586-4.483 23.155-17.991z" fill="#e0c8bf"/><path d="m472.433 301.541c-4.472 1.973-9.684 1.828-14.102-.576-25.068-13.641-40.339-7.443-49.783-1.078-43.756 48.572-65.901 85.281-152.538 85.281-85.611 0-107.555-35.324-152.43-85.162-15.691-9.915-31.077-9.636-49.688.846-4.456 2.509-9.761 2.697-14.307.691l-9.052 35.664c-3.449 13.592 11.106 24.777 23.359 17.878 18.611-10.481 33.997-10.761 49.688-.846 43.71 48.545 65.88 85.162 152.43 85.162 86.309 0 108.395-36.281 152.538-85.281 9.444-6.365 24.715-12.563 49.783 1.078 12.232 6.655 26.586-4.483 23.155-17.991z" fill="#dfb7a4"/><path d="m358.378 180.109c-56.69-45.039-148.032-45.051-204.736 0-57.377 45.584-57.378 119.816 0 165.401 56.69 45.039 148.032 45.051 204.736 0 57.377-45.585 57.378-119.816 0-165.401z" fill="#727272"/><path d="m324.314 288.803c-37.826-28.263-98.773-28.27-136.608 0-38.284 28.605-38.285 75.186 0 103.792 37.826 28.263 98.773 28.27 136.608 0 38.284-28.605 38.284-75.186 0-103.792z" fill="#e8d9d4"/><g fill="#3d3c3c"><circle cx="202.421" cy="251.697" r="19.841"/><circle cx="309.599" cy="251.697" r="19.841"/><path d="m310.69 348.033c-19.348 0-38.063-14.79-38.063-39.884l9.221-13.337c6.394-9.249-.226-21.873-11.469-21.873h-28.738c-11.244 0-17.863 12.625-11.469 21.873 11.291 16.331 9.89 13.954 9.89 15.158 0 20.988-17.075 38.063-38.063 38.063-8.836 0-16 7.164-16 16s7.164 16 16 16c21.906 0 41.489-10.112 54.346-25.906 12.857 15.794 32.44 25.906 54.346 25.906 8.837 0 16-7.164 16-16s-7.164-16-16.001-16z"/><path d="m511.937 278.377c-.845-8.797-8.664-15.248-17.454-14.399l-124.224 11.913c-8.796.843-15.243 8.658-14.399 17.454.794 8.277 7.76 14.474 15.908 14.474 1.197 0-7.299.774 125.77-11.987 8.795-.844 15.242-8.659 14.399-17.455z"/><path d="m485.153 385.813-116.715-57.313c-7.934-3.895-17.52-.623-21.415 7.31-3.895 7.932-.622 17.519 7.31 21.414l116.715 57.313c7.948 3.902 17.527.607 21.415-7.31 3.894-7.931.622-17.519-7.31-21.414z"/><path d="m140.252 307.818c8.147 0 15.114-6.197 15.908-14.474.844-8.796-5.603-16.611-14.399-17.454l-124.224-11.912c-8.796-.848-16.611 5.603-17.454 14.399-.844 8.796 5.603 16.611 14.399 17.454 132.993 12.754 124.573 11.987 125.77 11.987z"/><path d="m143.482 328.549-116.714 58.313c-7.905 3.95-11.111 13.559-7.162 21.464 3.95 7.905 13.56 11.111 21.464 7.162l116.714-58.313c7.905-3.95 11.112-13.559 7.162-21.464-3.949-7.904-13.559-11.112-21.464-7.162z"/></g></svg>