<svg id="Layer_1" enable-background="new 0 0 512.048 512.048" height="512" viewBox="0 0 512.048 512.048" width="512" xmlns="http://www.w3.org/2000/svg"><path d="m234.099 72.045c-130.832-73.544-122.66-69.036-124.208-69.641-26.115-10.185-52.628 13.913-44.987 40.872l43.186 152.361c3.34 11.786 18.234 15.632 26.843 6.813l102.775-105.281c7.343-7.523 5.551-19.976-3.609-25.124z" fill="#e0e0e0"/><path d="m437.313 8.902c-11.073-10.06-27.255-11.127-37.181-5.539l-122.183 68.682c-9.164 5.151-10.95 17.604-3.609 25.124l102.776 105.281c8.563 8.773 23.486 5.031 26.843-6.813l43.186-152.361c3.536-12.481-.232-25.652-9.832-34.374z" fill="#e0e0e0"/><path d="m338.848 37.812-60.899 34.233c-9.164 5.151-10.95 17.604-3.609 25.124l102.776 105.281c8.581 8.791 23.494 5.005 26.843-6.813l32.34-114.099c-25.002-26.194-61.634-37.875-97.451-43.726z" fill="#d3d1d1"/><path d="m75.749 81.538 32.341 114.099c3.34 11.786 18.234 15.632 26.843 6.813l102.775-105.281c7.343-7.522 5.551-19.975-3.609-25.124l-60.899-34.233c-35.791 5.846-72.418 17.512-97.451 43.726z" fill="#d3d1d1"/><path d="m256.024 298.489c-88.418 0-160.353 71.934-160.353 160.353v37.207c0 8.836 7.164 16 16 16h288.705c8.836 0 16-7.164 16-16v-37.207c0-88.419-71.934-160.353-160.352-160.353z" fill="#e0e0e0"/><path d="m416.131 450.037c-4.586-84.34-74.643-151.549-160.108-151.549s-155.52 67.21-160.107 151.549c94.212 60.434 223.07 62.316 320.215 0z" fill="#d3d1d1"/><path d="m406.044 402.223c-22.932-60.56-81.524-103.735-150.02-103.735s-127.088 43.175-150.02 103.735c86.06 66.906 213.427 67.336 300.04 0z" fill="#999"/><path d="m408.828 103.931c-27.771-27.946-76.326-40.962-152.804-40.962s-125.032 13.016-152.804 40.962c-34.57 34.786-30.674 85.269-30.674 136.141 0 51.886 42.375 95.343 79.771 123.586 15.636 37.21 55.466 63.727 102.021 63.727 44.983 0 83.692-24.756 100.359-59.996 42.224-30.763 84.804-75.323 84.804-127.317 0-50.578 3.925-101.325-30.673-136.141z" fill="#e0e0e0"/><path d="m354.697 304.475c-16.667 35.24-55.375 59.996-100.359 59.996-46.555 0-86.385-26.517-102.021-63.727-35.12-26.524-74.628-66.466-79.308-114.206-.917 17.206-.463 35.135-.463 53.533 0 51.886 42.375 95.343 79.771 123.586 15.636 37.21 55.466 63.727 102.021 63.727 44.983 0 83.692-24.756 100.359-59.996 42.224-30.763 84.804-75.323 84.804-127.317 0-18.5.455-36.332-.464-53.555-4.711 48.165-45.058 89.383-84.34 117.959z" fill="#d3d1d1"/><path d="m324.328 280.92c-37.826-30.052-98.773-30.059-136.608 0-38.284 30.416-38.285 79.946 0 110.362 37.826 30.052 98.773 30.059 136.608 0 38.284-30.415 38.285-79.945 0-110.362z" fill="#f9f9f9"/><g fill="#999"><path d="m291.057 332.231c-10.211 0-18.518-8.307-18.518-18.518v-2.853l8.549-12.365c6.203-8.971-.219-21.218-11.126-21.218h-27.877c-10.907 0-17.328 12.246-11.126 21.218 10.614 15.352 9.219 12.614 9.219 15.218 0 10.211-8.308 18.518-18.519 18.518-8.837 0-16 7.164-16 16s7.163 16 16 16c13.429 0 25.641-5.277 34.699-13.854 9.058 8.577 21.27 13.854 34.698 13.854 8.837 0 16-7.164 16-16s-7.162-16-15.999-16z"/><circle cx="212.77" cy="226.639" r="19.841"/><circle cx="299.277" cy="226.639" r="19.841"/><path d="m371.782 254.553c-8.148 0-15.114-6.196-15.908-14.474-.844-8.796 5.604-16.611 14.399-17.454l124.224-11.913c8.788-.848 16.61 5.602 17.454 14.399.844 8.796-5.604 16.611-14.399 17.454-132.993 12.755-124.575 11.988-125.77 11.988z"/><path d="m468.105 348.704c-4.902 0 2.883 2.86-113.304-49.742-8.051-3.645-11.622-13.125-7.978-21.175 3.646-8.05 13.128-11.622 21.175-7.977l106.715 48.313c15.602 7.065 10.576 30.581-6.608 30.581z"/><path d="m140.266 254.553c-1.197 0 7.299.774-125.77-11.987-8.796-.843-15.243-8.658-14.399-17.454.844-8.796 8.656-15.248 17.454-14.399l124.224 11.913c8.796.843 15.243 8.658 14.399 17.454-.794 8.276-7.76 14.473-15.908 14.473z"/><path d="m43.943 348.704c-17.192 0-22.201-23.521-6.608-30.58l106.715-48.313c8.051-3.645 17.53-.073 21.175 7.977s.073 17.53-7.978 21.175c-116.044 52.537-108.406 49.741-113.304 49.741z"/></g></svg>