<svg id="Layer_1" enable-background="new 0 0 512.023 512.023" height="512" viewBox="0 0 512.023 512.023" width="512" xmlns="http://www.w3.org/2000/svg"><path d="m256.012 298.464c-88.418 0-160.353 71.934-160.353 160.353v37.207c0 8.836 7.164 16 16 16h288.705c8.836 0 16-7.164 16-16v-37.207c0-88.419-71.934-160.353-160.352-160.353z" fill="#eaeaea"/><path d="m232.754 78.862-94.966-71.923c-22.345-16.922-54.428-.966-54.428 27.055v133.903c0 8.915 7.248 16 16 16 6.394 0-2.461 4.314 132.13-78.66 9.539-5.881 10.252-19.567 1.264-26.375z" fill="#e0e0e0"/><path d="m374.235 6.939-94.966 71.923c-8.934 6.767-8.333 20.458 1.264 26.375 134.432 82.875 125.66 78.66 132.13 78.66 8.75 0 16-7.085 16-16v-133.903c0-28.031-32.091-43.97-54.428-27.055z" fill="#e0e0e0"/><path d="m83.36 98.025v69.872c0 12.494 13.741 20.189 24.396 13.62l123.733-76.279c9.539-5.88 10.252-19.567 1.264-26.375l-52.482-39.748c-36.874 11.611-70.088 31.659-96.911 58.91z" fill="#d3d1d1"/><path d="m416.119 450.013c-4.586-84.34-74.643-151.549-160.108-151.549s-155.52 67.209-160.107 151.549c94.212 60.434 223.07 62.316 320.215 0z" fill="#d3d1d1"/><path d="m406.032 402.199c-22.932-60.56-81.524-103.735-150.02-103.735s-127.088 43.175-150.02 103.735c86.059 66.906 213.427 67.336 300.04 0z" fill="#999"/><path d="m428.663 98.025c-26.799-27.226-60.003-47.288-96.911-58.91l-52.482 39.748c-8.934 6.767-8.333 20.458 1.264 26.375l123.733 76.279c10.635 6.558 24.396-1.104 24.396-13.62z" fill="#d3d1d1"/><path d="m392.261 114.284c-75.453-68.492-197.027-68.509-272.499 0-76.367 69.321-76.369 182.206 0 251.528 75.453 68.492 197.027 68.509 272.499 0 76.367-69.321 76.369-182.206 0-251.528z" fill="#e0e0e0"/><path d="m392.261 290.193c-109.658 99.541-293.673 46.156-325.329-87.954-25.764 109.148 64.063 214.911 189.08 214.911 121.243 0 215.677-102.233 189.079-214.912-7.82 33.13-25.906 63.515-52.83 87.955z" fill="#d3d1d1"/><path d="m311.506 261.685c-30.732-24.416-80.249-24.422-110.989 0-31.104 24.712-31.105 64.953 0 89.665 30.732 24.416 80.249 24.422 110.989 0 31.104-24.711 31.105-64.953 0-89.665z" fill="#f9f9f9"/><g fill="#999"><path d="m288.602 65.458c-21.473-3.334-43.705-3.335-65.179 0-7.795 1.211-13.544 7.922-13.544 15.811v71.519c0 25.438 20.695 46.133 46.134 46.133s46.134-20.695 46.134-46.133v-71.52c-.002-7.888-5.751-14.599-13.545-15.81z"/><path d="m165.87 83.305c-25.35 12.234-47.825 29.83-64.994 50.885-3.092 3.792-4.279 8.791-3.222 13.569 4.635 20.94 23.575 36.138 45.037 36.138 25.438 0 46.134-20.695 46.134-46.134v-40.049c-.001-11.784-12.344-19.531-22.955-14.409z"/><path d="m411.147 134.189c-17.168-21.055-39.643-38.65-64.994-50.885-10.612-5.121-22.954 2.626-22.954 14.41v40.048c0 25.438 20.695 46.134 46.134 46.134 21.461 0 40.401-15.198 45.036-36.138 1.058-4.778-.129-9.776-3.222-13.569z"/><path d="m296.19 309.532h-15c-5.061 0-9.178-4.117-9.178-9.178v-2.151l9.064-13.111c6.203-8.972-.219-21.218-11.126-21.218h-27.877c-10.907 0-17.328 12.246-11.126 21.218l9.064 13.111v2.151c0 5.061-4.117 9.178-9.178 9.178h-15c-8.836 0-16 7.164-16 16s7.164 16 16 16c15.898 0 27.14 1.48 40.178-8.629 12.982 10.065 24.384 8.629 40.178 8.629 8.836 0 16-7.164 16-16s-7.163-16-15.999-16z"/><circle cx="188.745" cy="220.206" r="19.841"/><circle cx="323.279" cy="220.206" r="19.841"/><path d="m371.774 279.877c-7.247 0-13.813-4.957-15.556-12.316-2.037-8.599 3.283-17.22 11.882-19.257l124.224-29.422c8.598-2.037 17.22 3.283 19.257 11.882s-3.283 17.22-11.882 19.257c-134.613 31.883-125.213 29.856-127.925 29.856z"/><path d="m468.12 352.357c-2.318 0 6.857 1.717-109.912-21.968-8.66-1.757-14.257-10.201-12.5-18.861s10.2-14.257 18.861-12.5l106.714 21.646c8.66 1.757 14.257 10.201 12.5 18.861-1.538 7.586-8.211 12.822-15.663 12.822z"/><path d="m140.249 279.877c-2.682 0 7.991 2.335-127.925-29.856-8.599-2.037-13.918-10.658-11.882-19.257 2.037-8.599 10.658-13.917 19.257-11.882l124.224 29.422c8.599 2.037 13.918 10.658 11.882 19.257-1.744 7.359-8.31 12.316-15.556 12.316z"/><path d="m43.904 352.357c-7.453 0-14.125-5.235-15.664-12.822-1.757-8.66 3.84-17.104 12.5-18.861l106.714-21.646c8.661-1.755 17.104 3.84 18.861 12.5s-3.84 17.104-12.5 18.861c-115.718 23.473-107.582 21.968-109.911 21.968z"/></g></svg>