<svg id="Layer_1" enable-background="new 0 0 512.025 512.025" height="512" viewBox="0 0 512.025 512.025" width="512" xmlns="http://www.w3.org/2000/svg"><path d="m414.232 34.374c-.804-29.794-35.41-45.097-58.443-25.807l-99.536 83.356-95.438-78.977c-22.502-18.62-57.076-3.162-58.809 26.396l-7.763 132.27c-.669 11.39 10.513 19.857 21.33 16.014l142.911-50.78 138.349 45.255c10.518 3.441 21.267-4.598 20.969-15.639z" fill="#f9bf98"/><path d="m256.012 298.466c-88.419 0-160.353 71.934-160.353 160.353v37.207c0 8.836 7.163 16 16 16h288.705c8.837 0 16-7.164 16-16v-37.207c.001-88.419-71.933-160.353-160.352-160.353z" fill="#f2f2f2"/><path d="m310.479 46.511-54.226 45.412-54.838-45.38c-41.441 10.127-77.078 32.003-103.467 61.958l-3.704 63.11c-.539 9.187 6.773 16.938 15.974 16.938 3.94 0-8.026 3.832 148.267-51.703 151.068 49.416 139.675 46.048 143.323 46.048 9.023 0 16.238-7.453 15.995-16.432l-1.497-55.384c-26.565-31.241-63.069-54.147-105.827-64.567z" fill="#fdaa6a"/><path d="m277.757 486.786c-38.424-54.334-107.514-77.157-170.262-57.229-6.107 1.94-10.469 7.336-11.083 13.715-1 10.368-.753 13.875-.753 52.753 0 8.836 7.163 16 16 16h153.034c12.949 0 20.554-14.65 13.064-25.239z" fill="#eaeaea"/><path d="m463.87 320.125-26.168-105.604c-5.928-42.125-26.741-80.374-58.672-107.785-102.892-88.326-283.935-39.803-304.707 107.785l-26.168 105.604c-3.382 13.649 11.322 24.751 23.524 17.708 16.621-9.586 29.771-9.893 43.692-.93 40.512 46.102 61.333 80.25 140.641 80.25 76.352 0 96.446-29.983 140.744-80.367 16.62-11.306 32.103-5.352 43.793 1.164 12.194 6.796 26.682-4.265 23.321-17.825z" fill="#f9f9f9"/><path d="m254.908 62.957c-88.332.455-155.635 55.068-175.988 129.304-2.572 9.381 3.76 18.861 13.39 20.1 88.228 11.349 168.097-48.449 178.555-131.402 1.187-9.422-6.084-18.002-15.957-18.002z" fill="#f0a567"/><path d="m433.105 192.261c-20.36-74.259-87.679-128.849-175.988-129.304-9.797-.011-17.152 8.512-15.956 18.001 10.46 82.967 90.343 142.75 178.555 131.402 9.645-1.24 15.956-10.734 13.389-20.099z" fill="#f0a567"/><path d="m453.024 276.354c-4.091 1.252-8.6.841-12.474-1.319-11.69-6.515-27.173-12.469-43.793-1.164-40.11 45.621-61.038 80.367-140.744 80.367-79.7 0-100.773-34.881-140.641-80.25-13.922-8.962-27.071-8.656-43.692.93-3.913 2.259-8.51 2.708-12.677 1.432l-10.847 43.774c-3.382 13.649 11.322 24.751 23.524 17.708 16.621-9.586 29.771-9.893 43.692-.93 39.819 45.314 60.868 80.25 140.641 80.25 79.568 0 100.525-34.622 140.744-80.367 16.62-11.306 32.103-5.352 43.793 1.164 12.194 6.798 26.681-4.264 23.32-17.824z" fill="#eaeaea"/><path d="m324.316 280.897c-37.826-30.052-98.773-30.059-136.608 0-38.284 30.416-38.285 79.946 0 110.362 37.826 30.052 98.773 30.059 136.608 0 38.284-30.415 38.285-79.945 0-110.362z" fill="#f2f2f2"/><g fill="#999"><circle cx="202.587" cy="232.573" r="19.841"/><circle cx="309.438" cy="232.573" r="19.841"/><path d="m290.906 336.391-18.894-5.843v-18.967l9.064-13.111c6.203-8.971-.219-21.218-11.126-21.218h-27.877c-10.907 0-17.328 12.246-11.126 21.218l9.064 13.111v18.967l-18.894 5.843c-8.442 2.61-13.17 11.57-10.56 20.013 2.611 8.442 11.571 13.171 20.013 10.559l25.44-7.867c28.029 8.667 26.955 8.585 30.172 8.585 6.83-.001 13.157-4.41 15.281-11.277 2.613-8.442-2.115-17.402-10.557-20.013z"/><path d="m371.77 283.939c-8.148 0-15.114-6.196-15.908-14.474-.844-8.796 5.604-16.611 14.399-17.454l124.224-11.913c8.795-.842 16.61 5.602 17.454 14.399.844 8.796-5.604 16.611-14.399 17.454-132.992 12.754-124.574 11.988-125.77 11.988z"/><path d="m140.255 283.939c-1.197 0 7.299.774-125.77-11.987-8.796-.843-15.243-8.658-14.399-17.454s8.663-15.242 17.454-14.399l124.224 11.913c8.796.843 15.243 8.658 14.399 17.454-.794 8.275-7.76 14.473-15.908 14.473z"/><path d="m73.349 398.336c-14.088 0-21.448-17.159-11.325-27.302l73.665-73.815c6.242-6.255 16.373-6.265 22.627-.023 6.255 6.242 6.266 16.373.023 22.627l-73.665 73.815c-3.125 3.131-7.225 4.698-11.325 4.698z"/><path d="m438.675 398.336c-4.101 0-8.2-1.566-11.325-4.698l-73.665-73.815c-6.242-6.255-6.231-16.385.023-22.627s16.385-6.231 22.627.023l73.665 73.815c10.114 10.133 2.773 27.302-11.325 27.302z"/></g></svg>