<svg id="Layer_1" enable-background="new 0 0 512.023 512.023" height="512" viewBox="0 0 512.023 512.023" width="512" xmlns="http://www.w3.org/2000/svg"><path d="m400.364 512.023h-288.705c-8.334 0-16.124-6.482-15.99-16.884.129-10.606-9-18.972-19.557-18.093l-23.873 1.965c-16.566 1.381-23.95-20.49-9.914-29.437 15.268-9.734 24.332-24.259 28.523-45.711.392-2.002-.382-4.03-1.971-5.165-18.679-13.294-34.901-19.086-44.535-15.912-15.944 5.252-29.052-11.258-17.981-26.11 10.169-13.643 31.697-52.389 61.656-158.619 19.879-74.852 93.945-135.113 187.994-135.113 94.032 0 168.104 60.221 187.994 135.113 29.958 106.23 51.487 144.976 61.656 158.619 11.052 14.828-2.014 31.371-17.981 26.11-9.637-3.173-25.857 2.619-44.502 15.889-1.621 1.158-2.395 3.185-2.003 5.187 4.191 21.452 13.255 35.977 28.523 45.711 14.014 8.934 6.673 30.818-9.914 29.437l-23.873-1.965c-10.606-.875-19.685 7.516-19.556 18.115.13 10.302-7.585 16.863-15.991 16.863zm80.065-135.649h.01z" fill="#f9f9f9"/><path d="m232.754 78.862-94.966-71.923c-22.345-16.922-54.428-.966-54.428 27.055v133.903c0 8.915 7.248 16 16 16 6.394 0-2.461 4.314 132.13-78.66 9.539-5.881 10.252-19.567 1.264-26.375z" fill="#8e8e8e"/><path d="m374.235 6.939-94.966 71.923c-8.934 6.767-8.333 20.458 1.264 26.375 134.432 82.875 125.66 78.66 132.13 78.66 8.75 0 16-7.085 16-16v-133.903c0-28.031-32.091-43.97-54.428-27.055z" fill="#8e8e8e"/><path d="m83.36 98.025v69.872c0 12.494 13.741 20.189 24.396 13.62l123.733-76.279c9.539-5.88 10.252-19.567 1.264-26.375l-52.482-39.748c-36.874 11.611-70.088 31.659-96.911 58.91z" fill="#999"/><path d="m428.663 98.025c-26.799-27.226-60.003-47.288-96.911-58.91l-52.482 39.748c-8.934 6.767-8.333 20.458 1.264 26.375l123.733 76.279c10.635 6.558 24.396-1.104 24.396-13.62z" fill="#999"/><path d="m444.006 198.058c-19.879-74.852-93.945-135.113-187.994-135.113-94.032 0-168.104 60.221-187.994 135.113-21.503 76.246-38.662 117.725-50.396 140.112 8.868 17.655 20.16 34.397 33.734 49.895 5.478 2.7 11.362 6.25 17.522 10.634 3.008 2.149 1.982 5.333 1.232 8.618 103.251 95.695 267.122 97.038 371.803 0-.785-3.435-1.768-6.475 1.264-8.641 6.147-4.375 12.022-7.918 17.492-10.615 13.573-15.497 24.864-32.239 33.731-49.892-11.732-22.386-28.892-63.865-50.394-140.111z" fill="#eaeaea"/><path d="m392.261 114.284c-75.453-68.492-197.027-68.509-272.499 0-74.796 67.895-78.319 180.232 1.287 251.595 75.18 67.395 192.835 69.109 269.926 0 79.54-71.305 76.151-183.638 1.286-251.595z" fill="#d3d1d1"/><path d="m121.049 309.727c-30.228-27.098-49.563-61.169-56.065-97.975-19.468 111.819 79.035 205.398 191.028 205.398 111.355 0 210.597-92.996 191.027-205.398-23.792 134.691-208.87 202.968-325.99 97.975z" fill="#e0e0e0"/><path d="m311.506 291.245c-30.732-24.416-80.249-24.422-110.989 0-31.104 24.712-31.105 64.953 0 89.665 30.732 24.416 80.249 24.422 110.989 0 31.104-24.712 31.105-64.953 0-89.665z" fill="#f9f9f9"/><g fill="#8e8e8e"><circle cx="205.919" cy="240.048" r="19.841"/><circle cx="306.104" cy="240.048" r="19.841"/><path d="m290.906 336.39-18.895-5.843v-15.15l9.064-13.111c6.203-8.972-.219-21.218-11.126-21.218h-27.877c-10.907 0-17.328 12.246-11.126 21.218l9.064 13.111v15.15l-18.895 5.843c-8.442 2.61-13.169 11.57-10.559 20.012s11.571 13.172 20.013 10.559l25.44-7.867c28.029 8.667 26.955 8.585 30.172 8.585 6.831-.001 13.157-4.41 15.281-11.278 2.614-8.44-2.114-17.4-10.556-20.011z"/><path d="m256.012 198.503c8.836 0 16-7.164 16-16v-103.558c0-8.836-7.164-16-16-16s-16 7.164-16 16v103.559c0 8.836 7.163 15.999 16 15.999z"/><path d="m204.745 147.211v-54.086c0-8.836-7.164-16-16-16s-16 7.164-16 16v54.085c0 8.836 7.164 16 16 16s16-7.163 16-15.999z"/><path d="m317.734 77.996c-8.836 0-16 7.164-16 16v57.029c0 8.836 7.164 16 16 16s16-7.164 16-16v-57.029c0-8.836-7.163-16-16-16z"/><path d="m511.938 255.433c-.843-8.797-8.667-15.248-17.454-14.399l-124.224 11.913c-8.796.843-15.243 8.658-14.399 17.454.793 8.277 7.759 14.474 15.908 14.474 1.197 0-7.299.774 125.77-11.987 8.796-.844 15.243-8.658 14.399-17.455z"/><path d="m474.702 348.447-106.714-48.313c-8.051-3.645-17.53-.073-21.175 7.977s-.073 17.53 7.977 21.175l106.714 48.313c8.049 3.646 17.531.072 21.175-7.977 3.644-8.051.072-17.531-7.977-21.175z"/><path d="m140.254 284.875c8.147 0 15.114-6.197 15.908-14.474.844-8.796-5.603-16.611-14.399-17.454l-124.224-11.913c-8.792-.848-16.611 5.603-17.454 14.399-.844 8.796 5.603 16.611 14.399 17.454 132.992 12.755 124.573 11.988 125.77 11.988z"/><path d="m144.036 300.133-106.714 48.314c-8.05 3.645-11.621 13.125-7.977 21.175 3.645 8.051 13.126 11.621 21.175 7.977l106.714-48.313c8.05-3.645 11.621-13.125 7.977-21.175-3.645-8.052-13.125-11.623-21.175-7.978z"/></g></svg>