<svg id="Layer_1" enable-background="new 0 0 512.007 512.007" height="512" viewBox="0 0 512.007 512.007" width="512" xmlns="http://www.w3.org/2000/svg"><path d="m256.004 298c-88.418 0-160.353 71.934-160.353 160.353v37.207c0 8.836 7.164 16 16 16h288.705c8.836 0 16-7.164 16-16v-37.207c0-88.419-71.934-160.353-160.352-160.353z" fill="#727272"/><path d="m416.111 449.549c-4.586-84.34-74.643-151.549-160.107-151.549s-155.521 67.209-160.108 151.549c94.212 60.433 223.07 62.315 320.215 0z" fill="#d3d1d1"/><path d="m406.024 401.735c-22.932-60.56-81.525-103.735-150.02-103.735s-127.088 43.175-150.02 103.735c119.393 92.821 180.479 92.95 300.04 0z" fill="#e0e0e0"/><path d="m364.048 7.579-108.044 62.733-108.044-62.733c-37.512-21.78-81.433 9.061-81.433 55.605v178.467c0 8.853 7.185 16 16.001 16 5.133 0-8.834 5.872 173.476-80.292 182.641 86.32 168.347 80.292 173.476 80.292 8.817 0 16.001-7.149 16.001-16v-178.467c-.001-46.616-43.989-77.347-81.433-55.605z" fill="#727272"/><path d="m256.004 177.359c182.641 86.32 168.347 80.292 173.476 80.292 8.817 0 16.001-7.149 16.001-16v-119.529c-30.149-40.565-76.208-72.102-131.865-85.262l-57.612 33.451-57.613-33.451c-55.577 13.14-101.672 44.637-131.864 85.261v119.529c0 8.853 7.185 16 16.001 16 5.133.001-8.834 5.873 173.476-80.291z" fill="#606060"/><path d="m392.253 113.819c-75.453-68.492-197.027-68.509-272.499 0-76.367 69.321-76.369 182.206 0 251.528 75.453 68.492 197.027 68.509 272.499 0 76.367-69.321 76.369-182.205 0-251.528z" fill="#727272"/><path d="m392.253 302.425c-111.468 101.184-299.78 44.135-326.7-94.303-20.904 107.499 68.424 208.563 190.45 208.563 118.351 0 212.019-97.654 190.45-208.563-6.92 35.594-25.565 68.31-54.2 94.303z" fill="#606060"/><path d="m324.308 280.432c-37.826-30.052-98.773-30.059-136.608 0-38.284 30.416-38.285 79.946 0 110.362 37.826 30.052 98.773 30.059 136.608 0 38.284-30.416 38.284-79.946 0-110.362z" fill="#999"/><g fill="#3d3c3c"><circle cx="203.529" cy="244.693" r="19.841"/><circle cx="308.478" cy="244.693" r="19.841"/><path d="m290.898 335.926-18.895-5.843v-15.15l9.064-13.111c6.203-8.972-.219-21.218-11.126-21.218h-27.877c-10.907 0-17.328 12.246-11.126 21.218l9.064 13.111v15.15l-18.895 5.843c-8.442 2.61-13.169 11.57-10.559 20.012s11.571 13.172 20.013 10.559l25.44-7.867c28.029 8.667 26.955 8.585 30.172 8.585 6.831-.001 13.157-4.41 15.281-11.278 2.614-8.441-2.114-17.401-10.556-20.011z"/><path d="m371.766 279.413c-7.247 0-13.813-4.957-15.556-12.316-2.037-8.599 3.283-17.22 11.882-19.257l124.224-29.422c8.598-2.039 17.22 3.283 19.257 11.882s-3.283 17.22-11.882 19.257c-134.613 31.883-125.213 29.856-127.925 29.856z"/><path d="m468.112 351.893c-2.318 0 6.857 1.717-109.912-21.968-8.66-1.757-14.257-10.201-12.5-18.861s10.2-14.255 18.861-12.5l106.714 21.646c8.66 1.757 14.257 10.201 12.5 18.861-1.538 7.586-8.211 12.822-15.663 12.822z"/><path d="m140.241 279.413c-2.682 0 7.991 2.335-127.925-29.856-8.598-2.037-13.918-10.659-11.882-19.257 2.037-8.599 10.658-13.917 19.257-11.882l124.224 29.422c8.599 2.037 13.918 10.658 11.882 19.257-1.743 7.358-8.31 12.316-15.556 12.316z"/><path d="m43.896 351.893c-7.453 0-14.125-5.235-15.664-12.822-1.757-8.66 3.84-17.104 12.5-18.861l106.714-21.646c8.661-1.756 17.104 3.84 18.861 12.5s-3.84 17.104-12.5 18.861c-115.718 23.472-107.582 21.968-109.911 21.968z"/></g></svg>