<svg id="Layer_1" enable-background="new 0 0 512.007 512.007" height="512" viewBox="0 0 512.007 512.007" width="512" xmlns="http://www.w3.org/2000/svg"><path d="m231.453 76.852-114.376-70.176c-26.793-16.44-60.542 5.924-55.912 36.974l22.362 149.94c1.825 12.236 16.342 17.851 25.927 10.047l123.733-100.74c8.518-6.934 7.687-20.265-1.734-26.045z" fill="#606060"/><path d="m395.795 6.605-115.201 70.222c-9.395 5.728-10.359 19.081-1.773 26.07l123.733 100.74c9.527 7.759 24.027 2.273 25.914-9.968l23.119-149.85c4.798-31.101-28.952-53.574-55.792-37.214z" fill="#606060"/><path d="m428.468 193.669 9.729-63.059c-25.036-35.44-62.907-66.877-105.397-85.606l-52.207 31.823c-9.395 5.728-10.359 19.081-1.773 26.07l123.733 100.74c9.528 7.759 24.027 2.272 25.915-9.968z" fill="#4f4f4f"/><path d="m74.079 130.239 9.448 63.35c1.826 12.245 16.322 17.868 25.927 10.047l123.733-100.74c8.517-6.934 7.686-20.265-1.734-26.045l-52.048-31.934c-42.808 18.824-80.49 50.318-105.326 85.322z" fill="#4f4f4f"/><path d="m256.004 297.337c-88.418 0-160.353 71.934-160.353 160.353v37.207c0 8.836 7.164 16 16 16h288.705c8.836 0 16-7.164 16-16v-37.207c0-88.419-71.934-160.353-160.352-160.353z" fill="#606060"/><path d="m416.111 448.885c-4.586-84.34-74.643-151.549-160.108-151.549s-155.52 67.21-160.107 151.549c94.212 60.434 223.07 62.316 320.215 0z" fill="#4f4f4f"/><path d="m406.024 401.071c-22.932-60.56-81.524-103.735-150.02-103.735s-127.088 43.175-150.02 103.735c86.059 66.906 213.427 67.336 300.04 0z" fill="#3f3f3f"/><path d="m256.004 61.817c-80.539 0-183.478 79.329-183.478 177.103 0 54.576 40.877 102.34 85.097 134.287 39.779 68.647 147.312 71.162 190.823 4.177 46.855-32.201 91.035-81.695 91.035-138.465 0-95.107-100.189-177.102-183.477-177.102z" fill="#606060"/><path d="m348.447 314.464c-43.536 67.022-151.063 64.439-190.823-4.177-35.727-25.811-69.646-62.071-81.106-104.837-2.636 11.021-3.991 22.219-3.991 33.471 0 54.576 40.877 102.34 85.097 134.287 39.779 68.647 147.312 71.162 190.823 4.177 46.855-32.201 91.035-81.695 91.035-138.465 0-11.253-1.354-22.451-3.991-33.471-12.06 45.004-48.964 82.843-87.044 109.015z" fill="#4f4f4f"/><path d="m324.308 279.768c-37.826-30.052-98.773-30.059-136.608 0-38.284 30.416-38.285 79.946 0 110.362 37.826 30.052 98.773 30.06 136.608 0 38.284-30.415 38.284-79.945 0-110.362z" fill="#3f3f3f"/><circle cx="212.499" cy="240.987" fill="#3d3c3c" r="19.841"/><circle cx="299.509" cy="240.987" fill="#3d3c3c" r="19.841"/><path d="m290.897 335.262-18.894-5.843v-18.967l9.064-13.111c6.203-8.971-.219-21.218-11.126-21.218h-27.877c-10.907 0-17.328 12.246-11.126 21.218l9.064 13.111v18.967l-18.895 5.843c-8.442 2.61-13.169 11.57-10.559 20.012 2.611 8.442 11.569 13.172 20.013 10.559l25.44-7.867c28.029 8.667 26.955 8.585 30.172 8.585 6.83-.001 13.157-4.41 15.281-11.277 2.613-8.441-2.114-17.401-10.557-20.012z" fill="#606060"/><g fill="#3d3c3c"><path d="m371.766 249.698c-7.247 0-13.813-4.957-15.556-12.316-2.036-8.599 3.283-17.22 11.882-19.257l124.224-29.422c8.595-2.039 17.22 3.283 19.257 11.882 2.036 8.599-3.283 17.22-11.882 19.257-134.613 31.883-125.213 29.856-127.925 29.856z"/><path d="m468.111 322.178c-2.319 0 6.78 1.702-109.912-21.968-8.66-1.757-14.257-10.201-12.5-18.861s10.204-14.257 18.861-12.5l106.715 21.646c8.66 1.757 14.257 10.201 12.5 18.861-1.539 7.587-8.211 12.822-15.664 12.822z"/><path d="m140.241 249.698c-2.682 0 7.991 2.335-127.925-29.856-8.599-2.037-13.918-10.658-11.882-19.257 2.037-8.599 10.661-13.916 19.257-11.882l124.224 29.422c8.599 2.037 13.918 10.658 11.882 19.257-1.743 7.359-8.309 12.316-15.556 12.316z"/><path d="m43.896 322.178c-7.453 0-14.125-5.235-15.664-12.822-1.757-8.66 3.84-17.104 12.5-18.861l106.714-21.646c8.661-1.757 17.104 3.84 18.861 12.5s-3.84 17.104-12.5 18.861c-115.718 23.473-107.582 21.968-109.911 21.968z"/></g></svg>