<svg id="Layer_1" enable-background="new 0 0 512.023 512.023" height="512" viewBox="0 0 512.023 512.023" width="512" xmlns="http://www.w3.org/2000/svg"><path d="m232.754 78.862-94.966-71.923c-22.344-16.922-54.428-.966-54.428 27.055v133.903c0 8.915 7.248 16 16 16 6.394 0-2.461 4.314 132.13-78.66 9.539-5.881 10.252-19.567 1.264-26.375z" fill="#dfb7a4"/><path d="m374.235 6.939-94.965 71.923c-8.934 6.767-8.333 20.458 1.264 26.375 134.432 82.875 125.66 78.66 132.13 78.66 8.75 0 16-7.085 16-16v-133.903c-.001-28.031-32.092-43.97-54.429-27.055z" fill="#dfb7a4"/><path d="m83.36 98.025v69.872c0 12.494 13.741 20.189 24.396 13.62l123.733-76.279c9.539-5.88 10.252-19.567 1.264-26.375l-52.482-39.748c-36.874 11.611-70.087 31.659-96.911 58.91z" fill="#c69a85"/><path d="m428.663 98.025c-26.799-27.226-60.003-47.288-96.911-58.91l-52.482 39.747c-8.934 6.767-8.333 20.458 1.264 26.375l123.733 76.279c10.635 6.558 24.396-1.104 24.396-13.62z" fill="#c69a85"/><path d="m256.012 298.464c-88.418 0-160.353 71.934-160.353 160.353v37.207c0 8.836 7.164 16 16 16h288.705c8.836 0 16-7.164 16-16v-37.207c0-88.419-71.934-160.353-160.352-160.353z" fill="#c69a85"/><path d="m416.119 450.013c-4.586-84.34-74.643-151.549-160.108-151.549s-155.52 67.209-160.107 151.549c94.212 60.434 223.07 62.316 320.215 0z" fill="#dfb7a4"/><path d="m406.032 402.199c-22.932-60.56-81.524-103.735-150.02-103.735s-127.088 43.175-150.02 103.735c86.059 66.906 213.427 67.336 300.04 0z" fill="#e0c8bf"/><path d="m392.262 114.284c-75.454-68.492-197.027-68.509-272.5 0-36.903 33.5-57.228 78.163-57.228 125.764 0 62.295 162.291 292.19 330.857 105.216 32.505-36.056 56.098-80.306 56.098-105.216 0-47.601-20.324-92.265-57.227-125.764z" fill="#dfb7a4"/><path d="m393.392 273.113c-86.18 95.591-188.527 95.649-274.76 0-22.584-25.051-40.855-54.051-49.911-77.779-4.075 14.42-6.186 29.413-6.186 44.713 0 48.676 88.946 177.103 193.478 177.103 63.144 0 113.176-45.039 137.38-71.886 32.505-36.056 56.098-80.306 56.098-105.216 0-15.3-2.111-30.293-6.186-44.713-9.058 23.727-27.33 52.727-49.913 77.778z" fill="#c69a85"/><path d="m324.316 280.896c-37.826-30.052-98.773-30.059-136.608 0-38.284 30.416-38.285 79.946 0 110.362 37.826 30.052 98.773 30.06 136.608 0 38.284-30.416 38.285-79.946 0-110.362z" fill="#e0c8bf"/><g fill="#a57d6d"><circle cx="212.507" cy="234.823" r="19.841"/><circle cx="299.517" cy="234.823" r="19.841"/><path d="m290.905 319.645-18.778-5.807 8.949-12.944c6.203-8.971-.219-21.218-11.126-21.218h-27.877c-10.907 0-17.328 12.246-11.126 21.218l8.949 12.944-18.778 5.807c-8.442 2.61-13.17 11.57-10.56 20.013 2.611 8.442 11.57 13.171 20.013 10.559l25.44-7.867c28.029 8.667 26.955 8.585 30.172 8.585 6.83-.001 13.157-4.41 15.281-11.277 2.611-8.443-2.116-17.403-10.559-20.013z"/><path d="m16.027 282.989c-16.148.001-22.133-21.352-8.275-29.706 41.095-24.771 86.94-30.568 136.266-17.231 8.53 2.307 13.575 11.092 11.269 19.622-2.308 8.53-11.09 13.574-19.622 11.269-41.148-11.125-77.585-6.632-111.393 13.747-2.584 1.557-5.433 2.299-8.245 2.299z"/><path d="m67.911 393.974c-12.186 0-20.004-13.259-13.864-23.963 15.794-27.538 41.196-53.287 75.501-76.533 7.315-4.956 17.264-3.045 22.221 4.27s3.046 17.264-4.27 22.221c-30.24 20.491-52.343 42.684-65.694 65.962-2.957 5.155-8.349 8.043-13.894 8.043z"/><path d="m495.996 282.989c-2.813 0-5.66-.742-8.244-2.299-33.805-20.377-70.243-24.874-111.393-13.747-8.529 2.306-17.315-2.738-19.622-11.269-2.307-8.53 2.738-17.315 11.269-19.622 49.327-13.337 95.172-7.541 136.266 17.231 13.836 8.341 7.905 29.705-8.276 29.706z"/><path d="m444.112 393.974c-5.546 0-10.937-2.887-13.894-8.042-13.352-23.278-35.454-45.471-65.694-65.962-7.315-4.957-9.227-14.906-4.27-22.221 4.956-7.314 14.905-9.227 22.221-4.27 34.305 23.246 59.707 48.995 75.501 76.533 6.144 10.708-1.686 23.962-13.864 23.962z"/></g></svg>