<svg id="Layer_1" enable-background="new 0 0 512.023 512.023" height="512" viewBox="0 0 512.023 512.023" width="512" xmlns="http://www.w3.org/2000/svg"><path d="m256.012 298.464c-88.419 0-160.353 71.934-160.353 160.353v37.207c0 8.836 7.163 16 16 16h288.705c8.837 0 16-7.164 16-16v-37.207c0-88.419-71.933-160.353-160.352-160.353z" fill="#dfb7a4"/><path d="m387.831 367.508c-66.191-95.397-208.496-90.842-268.762 7.851-3.225 5.281-3.115 11.948.28 17.12l73.755 112.326c2.959 4.505 7.985 7.218 13.375 7.218h88.258c5.338 0 10.324-2.662 13.295-7.098l79.948-119.395c3.661-5.466 3.602-12.617-.149-18.022z" fill="#f2f2f2"/><path d="m232.754 78.862-94.966-71.923c-22.345-16.922-54.428-.966-54.428 27.055v133.903c0 8.915 7.248 16 16 16 6.394 0-2.461 4.314 132.13-78.66 9.539-5.881 10.252-19.567 1.264-26.375z" fill="#aa8579"/><path d="m374.235 6.939-94.966 71.923c-8.934 6.767-8.333 20.458 1.264 26.375 134.432 82.875 125.66 78.66 132.13 78.66 8.75 0 16-7.085 16-16v-133.903c0-28.031-32.091-43.97-54.428-27.055z" fill="#aa8579"/><path d="m83.36 98.025v69.872c0 12.494 13.741 20.189 24.396 13.62l123.733-76.279c9.539-5.88 10.252-19.567 1.264-26.375l-52.482-39.748c-36.874 11.611-70.088 31.659-96.911 58.91z" fill="#ba9283"/><path d="m428.663 98.025c-26.799-27.226-60.003-47.288-96.911-58.91l-52.482 39.748c-8.934 6.767-8.333 20.458 1.264 26.375l123.733 76.279c10.635 6.558 24.396-1.104 24.396-13.62z" fill="#ba9283"/><path d="m392.262 114.284c-73.604-66.813-198.026-67.602-272.5 0-76.367 69.323-76.367 182.206 0 251.528 75.454 68.492 197.027 68.509 272.5 0 76.367-69.323 76.366-182.205 0-251.528z" fill="#f9f9f9"/><path d="m392.261 114.284c-75.452-68.492-197.027-68.509-272.498 0-86.272 78.312-72.585 207.709 24.84 270.592 9.642 6.223 22.549.549 24.455-10.79l5.084-30.239c3.42-20.344 14.432-38.312 31.008-50.593l32.898-24.374c3.072-2.275 5.228-5.576 6.076-9.303l11.888-52.193 11.888 52.193c.849 3.727 3.004 7.027 6.076 9.303l32.898 24.374c16.576 12.281 27.588 30.249 31.008 50.594l5.084 30.238c1.915 11.387 14.869 16.979 24.455 10.79 97.527-62.95 111.01-192.372 24.84-270.592z" fill="#c69a85"/><g fill="#82645d"><circle cx="180.933" cy="232.699" r="19.841"/><circle cx="331.091" cy="232.699" r="19.841"/><path d="m290.905 333.574-18.778-5.807 8.949-12.944c6.203-8.972-.219-21.218-11.126-21.218h-27.877c-10.907 0-17.328 12.246-11.126 21.218l8.949 12.944-18.778 5.807c-8.442 2.61-13.17 11.57-10.56 20.013 2.611 8.442 11.571 13.172 20.013 10.559l25.44-7.867c28.029 8.667 26.955 8.585 30.172 8.585 6.83-.001 13.157-4.41 15.281-11.277 2.611-8.443-2.116-17.403-10.559-20.013z"/><path d="m386.778 250.827c-7.057 0-13.517-4.704-15.439-11.842-2.299-8.532 2.755-17.313 11.287-19.611l109.224-29.422c8.535-2.298 17.313 2.756 19.611 11.288 2.299 8.532-2.755 17.313-11.287 19.611-119.676 32.236-110.371 29.976-113.396 29.976z"/><path d="m468.11 323.307c-3.194 0 2.328 1.305-80.12-22.266-8.497-2.429-13.415-11.286-10.986-19.782 2.43-8.496 11.291-13.413 19.781-10.986l75.715 21.646c8.497 2.429 13.415 11.286 10.986 19.782-2.009 7.026-8.414 11.606-15.376 11.606z"/><path d="m125.245 250.827c-3.017 0 6.352 2.28-113.396-29.977-8.532-2.298-13.586-11.079-11.287-19.611 2.298-8.532 11.075-13.586 19.611-11.288l109.224 29.422c8.532 2.298 13.586 11.079 11.287 19.611-1.922 7.138-8.383 11.843-15.439 11.843z"/><path d="m43.912 323.307c-6.982 0-13.4-4.607-15.39-11.659-2.4-8.504 2.549-17.344 11.054-19.744l76.715-21.646c8.5-2.399 17.344 2.549 19.743 11.054 2.4 8.504-2.549 17.344-11.054 19.744-83.641 23.6-77.912 22.251-81.068 22.251z"/></g></svg>