<svg id="Layer_1" enable-background="new 0 0 512.007 512.007" height="512" viewBox="0 0 512.007 512.007" width="512" xmlns="http://www.w3.org/2000/svg"><path d="m231.453 76.852-114.376-70.176c-26.793-16.44-60.542 5.924-55.912 36.974l22.362 149.94c1.825 12.236 16.342 17.851 25.927 10.047l123.733-100.74c8.518-6.934 7.687-20.265-1.734-26.045z" fill="#c69a85"/><path d="m395.795 6.605-115.201 70.222c-9.395 5.728-10.359 19.081-1.773 26.07l123.733 100.74c9.527 7.759 24.027 2.273 25.914-9.968l23.119-149.85c4.798-31.101-28.952-53.574-55.792-37.214z" fill="#c69a85"/><path d="m428.468 193.669 9.729-63.059c-25.036-35.44-62.907-66.877-105.397-85.606l-52.207 31.823c-9.395 5.728-10.359 19.081-1.773 26.07l123.733 100.74c9.528 7.759 24.027 2.272 25.915-9.968z" fill="#dfb7a4"/><path d="m74.079 130.239 9.448 63.35c1.826 12.245 16.322 17.868 25.927 10.047l123.733-100.74c8.517-6.934 7.686-20.265-1.734-26.045l-52.048-31.934c-42.808 18.824-80.49 50.318-105.326 85.322z" fill="#dfb7a4"/><path d="m256.004 297.337c-88.418 0-160.353 71.934-160.353 160.353v37.207c0 8.836 7.164 16 16 16h288.705c8.836 0 16-7.164 16-16v-37.207c0-88.419-71.934-160.353-160.352-160.353z" fill="#dfb7a4"/><path d="m416.111 448.885c-4.586-84.34-74.643-151.549-160.108-151.549s-155.52 67.21-160.107 151.549c94.212 60.434 223.07 62.316 320.215 0z" fill="#d3d1d1"/><path d="m406.024 401.071c-22.932-60.56-81.524-103.735-150.02-103.735s-127.088 43.175-150.02 103.735c119.393 92.821 180.479 92.951 300.04 0z" fill="#e0e0e0"/><path d="m392.253 113.156c-75.453-68.492-197.027-68.509-272.499 0-76.367 69.321-76.368 182.206 0 251.527 75.453 68.492 197.027 68.509 272.499 0 76.368-69.32 76.369-182.205 0-251.527z" fill="#e0c8bf"/><path d="m392.253 297.453c-110.994 100.754-297.724 44.748-326.261-92.148-22.595 108.393 67.306 210.718 190.012 210.718 119.416 0 213.242-99.278 190.012-210.718-7.246 34.757-25.707 66.68-53.763 92.148z" fill="#dfb7a4"/><path d="m322.967 268.049c-37.083-29.462-96.833-29.469-133.926 0-37.532 29.819-37.533 78.376 0 108.195 37.083 29.462 96.833 29.469 133.926 0 37.532-29.818 37.533-78.375 0-108.195z" fill="#e8d9d4"/><g fill="#a57d6d"><circle cx="188.737" cy="219.079" r="19.841"/><circle cx="323.271" cy="219.079" r="19.841"/><path d="m326.413 297.151c-8.837 0-16 7.163-16 16 0 6.619-5.386 12.005-12.005 12.005-14.183 0-25.737-11.449-25.92-25.589l8.58-12.41c6.203-8.972-.219-21.218-11.126-21.218h-27.877c-10.907 0-17.328 12.246-11.126 21.218l8.58 12.41c-.183 14.141-11.737 25.589-25.92 25.589-6.62 0-12.005-5.386-12.005-12.005 0-8.837-7.164-16-16-16s-16 7.163-16 16c0 24.265 19.741 44.005 44.005 44.005 16.731 0 31.82-7.138 42.404-18.519 10.584 11.381 25.673 18.519 42.404 18.519 24.265 0 44.005-19.74 44.005-44.005.001-8.836-7.162-16-15.999-16z"/><path d="m371.766 278.75c-7.247 0-13.813-4.957-15.556-12.316-2.036-8.599 3.283-17.22 11.882-19.257l124.224-29.423c8.595-2.041 17.22 3.282 19.257 11.882 2.036 8.599-3.283 17.22-11.882 19.257-135.543 32.104-125.201 29.857-127.925 29.857z"/><path d="m468.108 351.231c-2.668 0 4.984 1.615-95.403-22.077-8.601-2.03-13.927-10.647-11.897-19.247 2.03-8.602 10.657-13.928 19.247-11.897l91.715 21.646c8.601 2.03 13.927 10.647 11.897 19.247-1.739 7.363-8.308 12.328-15.559 12.328z"/><path d="m140.241 278.75c-2.695 0 7.965 2.329-127.925-29.857-8.599-2.037-13.918-10.658-11.882-19.257 2.037-8.599 10.659-13.919 19.257-11.882l124.224 29.423c8.599 2.037 13.918 10.658 11.882 19.257-1.743 7.358-8.309 12.316-15.556 12.316z"/><path d="m43.899 351.231c-7.252 0-13.82-4.964-15.559-12.329-2.03-8.6 3.297-17.217 11.897-19.247l91.714-21.646c8.6-2.033 17.218 3.297 19.248 11.897s-3.297 17.217-11.897 19.247c-100.288 23.67-92.739 22.078-95.403 22.078z"/><path d="m215.832 173.589c-8.836 0-16-7.163-16-16v-73.945c0-8.837 7.164-16 16-16s16 7.163 16 16v73.945c0 8.837-7.164 16-16 16z"/><path d="m296.176 173.589c-8.837 0-16-7.163-16-16v-73.945c0-8.837 7.163-16 16-16s16 7.163 16 16v73.945c0 8.837-7.164 16-16 16z"/></g></svg>