<svg id="Layer_1" enable-background="new 0 0 512.023 512.023" height="512" viewBox="0 0 512.023 512.023" width="512" xmlns="http://www.w3.org/2000/svg"><path d="m256.012 298.464c-88.418 0-160.353 71.934-160.353 160.353v37.207c0 8.836 7.164 16 16 16h288.705c8.836 0 16-7.164 16-16v-37.207c0-88.419-71.934-160.353-160.352-160.353z" fill="#dfb7a4"/><path d="m416.119 450.013c-4.586-84.34-74.643-151.549-160.108-151.549s-155.521 67.209-160.107 151.549c94.212 60.433 223.069 62.315 320.215 0z" fill="#e8d9d4"/><path d="m406.031 402.198c-22.932-60.56-81.524-103.735-150.02-103.735s-127.088 43.175-150.02 103.735c119.394 92.822 180.48 92.951 300.04 0z" fill="#f2f2f2"/><path d="m232.754 78.862-94.966-71.923c-22.344-16.922-54.428-.965-54.428 27.055v158.362c0 13.54 15.764 20.829 26.102 12.407l123.733-100.738c8.043-6.55 7.816-18.91-.441-25.163z" fill="#e8d9d4"/><path d="m374.235 6.939-94.966 71.923c-8.271 6.263-8.473 18.623-.441 25.163l123.733 100.738c10.373 8.448 26.102 1.085 26.102-12.407v-158.362c0-28.031-32.091-43.972-54.428-27.055z" fill="#e8d9d4"/><path d="m328.976 41.216-49.706 37.645c-8.271 6.263-8.473 18.623-.441 25.163l123.733 100.738c10.373 8.448 26.102 1.085 26.102-12.407v-91.843c-26.88-27.629-60.988-48.06-99.688-59.296z" fill="#e0c8bf"/><path d="m83.36 100.513v91.843c0 13.452 15.669 20.907 26.102 12.407l123.733-100.738c8.043-6.55 7.816-18.91-.441-25.163l-49.706-37.645c-38.677 11.229-72.791 31.648-99.688 59.296z" fill="#e0c8bf"/><path d="m481.488 337.21-28.577-112.587c-6.436-44.704-29.033-85.279-63.699-114.331-73.453-61.557-192.122-62.249-266.4 0-34.666 29.052-57.264 69.627-63.699 114.331l-28.578 112.587c-3.456 13.614 11.125 24.767 23.358 17.878 18.61-10.481 33.997-10.761 49.687-.847 43.748 48.576 65.896 85.162 152.432 85.162 86.309 0 108.396-36.282 152.539-85.282 9.444-6.364 24.715-12.562 49.782 1.079 12.225 6.656 26.587-4.476 23.155-17.99z" fill="#dfb7a4"/><path d="m470.166 292.604c-3.903 1.058-8.144.629-11.833-1.379-25.067-13.641-40.338-7.443-49.782-1.079-43.756 48.572-65.902 85.282-152.539 85.282-86.548 0-108.737-36.645-152.432-85.162-15.689-9.914-31.076-9.635-49.687.847-3.732 2.102-8.059 2.57-12.037 1.493l-11.321 44.604c-3.456 13.614 11.125 24.767 23.358 17.878 18.61-10.481 33.997-10.761 49.687-.847 43.748 48.576 65.896 85.162 152.432 85.162 86.309 0 108.396-36.282 152.539-85.282 9.444-6.364 24.715-12.562 49.782 1.079 12.225 6.655 26.587-4.477 23.155-17.99z" fill="#e8d9d4"/><path d="m322.975 289.15c-37.083-29.462-96.833-29.469-133.926 0-37.532 29.819-37.533 78.376 0 108.195 37.083 29.462 96.833 29.469 133.926 0 37.532-29.819 37.533-78.376 0-108.195z" fill="#e0c8bf"/><g fill="#a57d6d"><circle cx="215.348" cy="249.743" r="19.841"/><circle cx="296.675" cy="249.743" r="19.841"/><path d="m326.421 319.135c-8.837 0-16 7.163-16 16 0 6.619-5.386 12.005-12.005 12.005-14.183 0-25.737-11.449-25.92-25.589l8.58-12.411c6.203-8.971-.219-21.218-11.126-21.218h-27.877c-10.907 0-17.328 12.247-11.126 21.218l8.58 12.411c-.183 14.14-11.737 25.589-25.92 25.589-6.619 0-12.005-5.386-12.005-12.005 0-8.837-7.163-16-16-16s-16 7.163-16 16c0 24.265 19.74 44.005 44.005 44.005 16.731 0 31.82-7.138 42.404-18.519 10.584 11.381 25.673 18.519 42.404 18.519 24.265 0 44.005-19.74 44.005-44.005.001-8.837-7.162-16-15.999-16z"/><path d="m16.027 299.909c-16.149.003-22.133-21.351-8.276-29.705 41.096-24.772 86.941-30.571 136.267-17.231 8.53 2.307 13.575 11.092 11.269 19.622-2.308 8.529-11.09 13.572-19.622 11.269-41.151-11.13-77.587-6.632-111.392 13.747-2.585 1.556-5.434 2.298-8.246 2.298z"/><path d="m67.911 414.649c-12.185 0-20.005-13.256-13.864-23.963 15.794-27.538 41.196-53.288 75.501-76.533 7.315-4.957 17.264-3.045 22.221 4.27s3.046 17.264-4.27 22.221c-30.24 20.491-52.343 42.685-65.694 65.963-2.957 5.154-8.349 8.042-13.894 8.042z"/><path d="m495.996 299.909c-2.813.001-5.66-.741-8.245-2.299-33.803-20.378-70.241-24.874-111.392-13.747-8.529 2.306-17.315-2.738-19.622-11.269s2.738-17.315 11.269-19.622c49.327-13.34 95.172-7.541 136.267 17.231 13.836 8.343 7.903 29.706-8.277 29.706z"/><path d="m444.112 414.649c-5.546 0-10.937-2.887-13.894-8.043-13.352-23.278-35.454-45.472-65.694-65.963-7.315-4.957-9.227-14.905-4.27-22.221 4.956-7.314 14.905-9.226 22.221-4.27 34.305 23.245 59.707 48.995 75.501 76.533 6.143 10.711-1.686 23.964-13.864 23.964z"/></g></svg>