<svg id="Layer_1" enable-background="new 0 0 512.023 512.023" height="512" viewBox="0 0 512.023 512.023" width="512" xmlns="http://www.w3.org/2000/svg"><path d="m232.754 78.862-94.966-71.923c-22.344-16.922-54.428-.965-54.428 27.055v158.362c0 13.54 15.764 20.829 26.102 12.407l123.733-100.738c8.043-6.55 7.816-18.91-.441-25.163z" fill="#e0e0e0"/><path d="m374.235 6.939-94.966 71.923c-8.271 6.263-8.473 18.623-.441 25.163l123.733 100.738c10.373 8.448 26.102 1.085 26.102-12.407v-158.362c0-28.031-32.091-43.972-54.428-27.055z" fill="#e0e0e0"/><path d="m328.976 41.216-49.706 37.645c-8.271 6.263-8.473 18.623-.441 25.163l123.733 100.738c10.373 8.448 26.102 1.085 26.102-12.407v-91.843c-26.88-27.629-60.988-48.06-99.688-59.296z" fill="#d3d1d1"/><path d="m83.36 100.513v91.843c0 13.452 15.669 20.907 26.102 12.407l123.733-100.738c8.043-6.55 7.816-18.91-.441-25.163l-49.706-37.645c-38.678 11.229-72.792 31.648-99.688 59.296z" fill="#d3d1d1"/><path d="m256.011 298.464c-88.418 0-160.353 71.934-160.353 160.353v37.207c0 8.836 7.164 16 16 16h288.705c8.836 0 16-7.164 16-16v-37.207c.001-88.419-71.933-160.353-160.352-160.353z" fill="#e0e0e0"/><path d="m416.119 450.013c-4.586-84.34-74.643-151.549-160.108-151.549s-155.521 67.209-160.107 151.549c94.212 60.433 223.069 62.315 320.215 0z" fill="#f9f9f9"/><path d="m406.031 402.198c-22.932-60.56-81.524-103.735-150.02-103.735s-127.088 43.175-150.02 103.735c119.394 92.822 180.48 92.951 300.04 0z" fill="#f9f9f9"/><path d="m481.488 337.21-28.577-112.587c-6.436-44.704-29.033-85.279-63.699-114.331-73.453-61.557-192.122-62.249-266.4 0-34.666 29.052-57.264 69.627-63.699 114.331l-28.578 112.587c-3.456 13.614 11.126 24.767 23.358 17.878 18.61-10.481 33.996-10.761 49.687-.847 18.219 20.23 32.602 38.293 49.53 52.594 16.166 36.232 55.441 61.868 101.217 61.868 43.888 0 81.801-23.567 99.1-57.443 19.423-14.923 34.976-34.773 55.125-57.139 9.444-6.364 24.715-12.562 49.782 1.079 12.223 6.657 26.586-4.477 23.154-17.99z" fill="#e0e0e0"/><path d="m467.176 280.824c-3.009.226-6.081-.395-8.843-1.898-25.067-13.641-40.338-7.443-49.782-1.079-12.421 13.788-23.371 26.948-34.408 38.345-11.113 11.475-21.749 23.397-31.811 35.804-44.908 55.37-136.656 53.553-178.824-3.634-13.09-17.753-26.339-33.099-59.928-70.396-15.69-9.914-31.076-9.635-49.687.847-2.812 1.583-5.962 2.243-9.046 2.011l-14.312 56.386c-3.387 13.342 10.746 24.941 23.553 17.769 18.523-10.374 33.856-10.617 49.492-.737 18.219 20.23 32.602 38.293 49.53 52.594 16.166 36.232 55.441 61.868 101.217 61.868 43.888 0 81.801-23.567 99.1-57.443 19.423-14.923 34.976-34.773 55.125-57.139 9.444-6.364 24.715-12.562 49.782 1.079 12.224 6.656 26.587-4.477 23.155-17.99z" fill="#d3d1d1"/><path d="m322.974 315.622c-37.083-29.462-96.833-29.469-133.926 0-37.532 29.819-37.533 78.376 0 108.195 37.083 29.462 96.833 29.469 133.926 0 37.533-29.818 37.533-78.376 0-108.195z" fill="#f9f9f9"/><g fill="#727272"><circle cx="202.586" cy="258.583" r="19.841"/><circle cx="309.437" cy="258.583" r="19.841"/><path d="m290.905 362.747-18.894-5.842v-18.966l9.064-13.111c6.203-8.971-.219-21.218-11.126-21.218h-27.877c-10.907 0-17.328 12.247-11.126 21.218l9.064 13.111v18.966l-18.894 5.842c-8.442 2.61-13.17 11.57-10.56 20.013 2.61 8.44 11.567 13.17 20.013 10.56l25.44-7.867c28.031 8.668 26.954 8.585 30.172 8.585 6.831 0 13.157-4.409 15.281-11.277 2.613-8.444-2.115-17.404-10.557-20.014z"/><path d="m371.769 254.529c-8.148 0-15.114-6.196-15.908-14.474-.844-8.796 5.604-16.61 14.399-17.454l124.224-11.913c8.81-.845 16.61 5.604 17.454 14.399.844 8.796-5.604 16.61-14.399 17.454-132.992 12.754-124.574 11.988-125.77 11.988z"/><path d="m468.092 348.68c-4.898 0 2.883 2.86-113.304-49.741-8.051-3.645-11.622-13.125-7.978-21.175 3.646-8.051 13.129-11.62 21.175-7.978l106.716 48.314c15.602 7.063 10.575 30.58-6.609 30.58z"/><path d="m140.254 254.529c-1.197 0 7.299.774-125.77-11.987-8.796-.844-15.243-8.658-14.399-17.454.844-8.795 8.643-15.244 17.454-14.399l124.224 11.913c8.796.844 15.243 8.658 14.399 17.454-.794 8.275-7.76 14.473-15.908 14.473z"/><path d="m43.93 348.68c-17.19 0-22.203-23.521-6.608-30.58l106.715-48.313c8.052-3.643 17.53-.072 21.175 7.978s.073 17.53-7.978 21.175c-116.154 52.586-108.397 49.74-113.304 49.74z"/></g></svg>