<svg id="Layer_1" enable-background="new 0 0 511.988 511.988" height="512" viewBox="0 0 511.988 511.988" width="512" xmlns="http://www.w3.org/2000/svg"><path d="m231.444 77.402-114.376-70.175c-26.794-16.441-60.542 5.924-55.912 36.973l22.362 149.94c1.825 12.237 16.342 17.851 25.927 10.047l123.733-100.74c8.517-6.933 7.687-20.264-1.734-26.045z" fill="#727272"/><path d="m395.785 7.156-115.201 70.222c-9.395 5.728-10.359 19.081-1.773 26.07l123.733 100.74c9.527 7.759 24.027 2.273 25.914-9.968l23.119-149.85c4.799-31.101-28.951-53.574-55.792-37.214z" fill="#727272"/><path d="m428.458 194.219 9.729-63.059c-25.035-35.439-62.906-66.876-105.396-85.606l-52.207 31.823c-9.395 5.728-10.359 19.081-1.773 26.07l123.733 100.74c9.527 7.76 24.027 2.273 25.914-9.968z" fill="#606060"/><path d="m74.07 130.79 9.448 63.35c1.826 12.245 16.322 17.868 25.927 10.047l123.733-100.74c8.517-6.934 7.686-20.265-1.734-26.045l-52.048-31.934c-42.808 18.824-80.491 50.318-105.326 85.322z" fill="#606060"/><path d="m255.994 296.766c-88.418 0-160.353 71.934-160.353 160.353v37.207c0 8.836 7.164 16 16 16h288.705c8.836 0 16-7.164 16-16v-37.207c.001-88.419-71.933-160.353-160.352-160.353z" fill="#727272"/><path d="m416.102 448.576c-4.59-83.861-74.7-150.689-160.23-150.689s-155.64 66.828-160.23 150.689c94.284 60.091 223.24 61.962 320.46 0z" fill="#606060"/><path d="m406.014 401.622c-22.932-60.56-81.524-103.735-150.02-103.735s-127.088 43.175-150.02 103.735c119.394 92.821 180.48 92.951 300.04 0z" fill="#3f3f3f"/><path d="m439.472 238.471c0-47.959-18.381-92.465-51.758-125.319-69.704-68.613-192.687-69.645-263.439 0-33.376 32.854-51.758 77.36-51.758 125.319 0 76.414-14.477 152.297 108.971 172.045 41.193 33.466 103.333 33.711 144.843.641 126.554-18.503 113.141-93.008 113.141-172.686z" fill="#727272"/><path d="m439.508 244.948c-3.864 57.331-30.947 93.52-113.177 105.542-41.51 33.071-103.65 32.825-144.843-.641-67.36-10.775-104.524-38.393-109.007-104.901-.728 72.102-12.168 146.183 109.007 165.567 41.193 33.466 103.333 33.711 144.843.641 125.409-18.334 113.915-93.103 113.177-166.208z" fill="#606060"/><path d="m322.957 292.115c-37.083-29.462-96.833-29.469-133.926 0-37.532 29.819-37.533 78.376 0 108.195 37.083 29.462 96.833 29.469 133.926 0 37.533-29.819 37.533-78.376 0-108.195z" fill="#999"/><g fill="#3d3c3c"><circle cx="202.568" cy="243.706" r="19.841"/><circle cx="309.42" cy="243.706" r="19.841"/><path d="m290.889 334.692-18.895-5.843v-18.966l9.064-13.11c6.203-8.972-.219-21.218-11.126-21.218h-27.877c-10.907 0-17.328 12.247-11.126 21.218l9.064 13.11v18.966l-18.895 5.843c-8.442 2.611-13.169 11.571-10.559 20.013s11.571 13.171 20.013 10.56l25.44-7.867c28.031 8.668 26.955 8.585 30.172 8.585 6.831 0 13.157-4.409 15.281-11.277 2.613-8.443-2.114-17.403-10.556-20.014z"/><path d="m16.009 292.159c-16.148.003-22.132-21.351-8.275-29.705 41.094-24.772 86.94-30.571 136.266-17.231 8.53 2.307 13.575 11.092 11.269 19.622-2.307 8.529-11.093 13.571-19.622 11.269-41.15-11.129-77.587-6.632-111.392 13.747-2.584 1.557-5.434 2.298-8.246 2.298z"/><path d="m57.894 406.9c-12.184 0-20.005-13.256-13.865-23.963 15.794-27.539 41.197-53.288 75.502-76.533 7.315-4.957 17.265-3.045 22.221 4.27 4.957 7.315 3.045 17.264-4.271 22.221-30.239 20.491-52.342 42.685-65.693 65.963-2.957 5.154-8.349 8.042-13.894 8.042z"/><path d="m495.979 292.159c-2.813.001-5.661-.741-8.245-2.299-33.806-20.38-70.242-24.874-111.392-13.747-8.532 2.305-17.315-2.738-19.622-11.269s2.738-17.315 11.269-19.622c49.327-13.338 95.172-7.54 136.266 17.231 13.834 8.342 7.905 29.706-8.276 29.706z"/><path d="m454.095 406.9c-5.546 0-10.937-2.887-13.894-8.043-13.352-23.278-35.454-45.472-65.693-65.963-7.315-4.957-9.228-14.905-4.271-22.221s14.906-9.23 22.221-4.27c34.305 23.245 59.708 48.994 75.502 76.533 6.142 10.71-1.688 23.964-13.865 23.964z"/></g></svg>