<svg id="Layer_1" enable-background="new 0 0 512.018 512.018" height="512" viewBox="0 0 512.018 512.018" width="512" xmlns="http://www.w3.org/2000/svg"><path d="m142.572 10.316c-6.514-8.34-22.936-13.962-37.828-7.344-12.299 5.467-19.758 17.284-20.13 29.745l-5.134 165.712c-.346 11.147 10.561 19.23 21.132 15.647l137.651-46.695c10.395-3.528 14.268-16.297 7.469-25.002z" fill="#fdaa6a"/><path d="m432.538 198.429c-5.295-170.923-5.133-165.718-5.14-165.906-1.208-28.003-33.954-42.547-55.543-24.684-1.974 1.633 4.688-6.607-105.57 134.541-6.761 8.656-2.982 21.455 7.469 25.002 150.629 51.098 139.011 47.543 142.79 47.543 8.972 0 16.276-7.415 15.994-16.496z" fill="#fdaa6a"/><path d="m339.336 48.863-73.05 93.517c-6.761 8.656-2.982 21.455 7.469 25.002l137.651 46.695c10.569 3.58 21.478-4.497 21.132-15.647l-2.505-80.872c-22.097-29.789-52.734-53.967-90.697-68.695z" fill="#f0a567"/><path d="m81.986 117.557-2.505 80.872c-.346 11.147 10.561 19.23 21.132 15.647l137.651-46.695c10.395-3.528 14.268-16.297 7.469-25.002l-73.05-93.517c-37.97 14.732-68.605 38.912-90.697 68.695z" fill="#f0a567"/><path d="m256.009 298.459c-88.418 0-160.353 71.934-160.353 160.353v37.207c0 8.836 7.164 16 16 16h288.705c8.836 0 16-7.164 16-16v-37.207c.001-88.419-71.933-160.353-160.352-160.353z" fill="#fdaa6a"/><path d="m416.117 450.008c-4.586-84.34-74.643-151.549-160.108-151.549s-155.521 67.209-160.107 151.549c94.211 60.434 223.069 62.316 320.215 0z" fill="#f0a567"/><path d="m406.029 402.194c-22.932-60.56-81.524-103.735-150.02-103.735s-127.088 43.175-150.02 103.735c119.394 92.821 180.48 92.951 300.04 0z" fill="#db935d"/><path d="m387.729 114.723c-69.704-68.613-192.687-69.645-263.439 0-33.376 32.854-51.758 77.36-51.758 125.319 0 98.687 141.428 177.103 183.478 177.103 42.307 0 183.478-78.525 183.478-177.103-.001-47.958-18.383-92.464-51.759-125.319z" fill="#fdaa6a"/><path d="m256.009 352.739c-39.02 0-157.82-65.367-179.802-149.24-2.423 11.853-3.676 24.08-3.676 36.543 0 98.622 141.397 177.103 183.478 177.103 42.137 0 183.478-78.491 183.478-177.103 0-12.463-1.253-24.69-3.676-36.543-21.912 83.609-140.659 149.24-179.802 149.24z" fill="#f0a567"/><path d="m322.972 271.429c-37.083-29.462-96.833-29.469-133.926 0-37.532 29.819-37.533 78.376 0 108.195 37.083 29.462 96.833 29.469 133.926 0 37.533-29.818 37.533-78.376 0-108.195z" fill="#f9bf98"/><g fill="#7f604b"><circle cx="202.583" cy="245.399" r="19.841"/><circle cx="309.435" cy="245.399" r="19.841"/><path d="m471.281 320.669-106.714-21.646c-8.664-1.754-17.104 3.84-18.861 12.5s3.84 17.104 12.5 18.861l106.714 21.646c8.678 1.76 17.109-3.858 18.861-12.5 1.756-8.66-3.84-17.104-12.5-18.861z"/><path d="m147.452 299.023-106.714 21.646c-8.66 1.757-14.257 10.201-12.5 18.861 1.758 8.664 10.206 14.256 18.861 12.5l106.714-21.646c8.66-1.757 14.257-10.201 12.5-18.861-1.756-8.659-10.193-14.256-18.861-12.5z"/><path d="m511.936 255.428c-.843-8.797-8.669-15.244-17.454-14.399l-124.224 11.913c-8.796.844-15.243 8.658-14.399 17.454.793 8.277 7.759 14.474 15.908 14.474 1.197 0-7.299.774 125.77-11.987 8.796-.844 15.243-8.659 14.399-17.455z"/><path d="m140.252 284.87c8.147 0 15.114-6.197 15.908-14.474.844-8.796-5.603-16.61-14.399-17.454l-124.225-11.913c-8.794-.852-16.611 5.603-17.454 14.399-.844 8.796 5.603 16.61 14.399 17.454 132.993 12.755 124.573 11.988 125.771 11.988z"/><path d="m326.418 324.727c-8.836 0-16 7.163-16 16 0 6.62-5.385 12.006-12.005 12.006-14.297 0-25.929-11.632-25.929-25.929v-14.082c0-2.552-1.624.515 8.589-14.257 6.203-8.972-.219-21.218-11.126-21.218h-27.877c-10.907 0-17.328 12.247-11.126 21.218l8.681 12.556c-.126 1.195-.092.336-.092 15.783 0 14.297-11.631 25.929-25.929 25.929-6.62 0-12.005-5.386-12.005-12.006 0-8.837-7.164-16-16-16s-16 7.163-16 16c0 24.265 19.741 44.006 44.005 44.006 16.731 0 31.82-7.138 42.404-18.519 10.585 11.381 25.673 18.519 42.404 18.519 24.264 0 44.005-19.741 44.005-44.006.001-8.837-7.162-16-15.999-16z"/></g></svg>