<svg id="Layer_1" enable-background="new 0 0 512.018 512.018" height="512" viewBox="0 0 512.018 512.018" width="512" xmlns="http://www.w3.org/2000/svg"><path d="m142.572 10.316c-6.514-8.339-22.936-13.962-37.828-7.344-12.299 5.467-19.758 17.284-20.13 29.745l-5.134 165.712c-.346 11.147 10.561 19.23 21.132 15.647l137.651-46.695c10.395-3.528 14.268-16.297 7.469-25.002z" fill="#e0e0e0"/><path d="m432.538 198.429c-5.295-170.923-5.133-165.718-5.14-165.906-1.208-28.003-33.954-42.547-55.543-24.684-1.974 1.633 4.688-6.607-105.57 134.541-6.761 8.656-2.982 21.455 7.469 25.002 150.629 51.098 139.011 47.543 142.79 47.543 8.972 0 16.276-7.415 15.994-16.496z" fill="#e0e0e0"/><path d="m339.336 48.863-73.05 93.517c-6.761 8.656-2.982 21.455 7.469 25.002l137.651 46.695c10.569 3.58 21.478-4.497 21.132-15.647l-2.505-80.872c-22.097-29.789-52.734-53.967-90.697-68.695z" fill="#d3d1d1"/><path d="m81.986 117.557-2.505 80.872c-.346 11.147 10.561 19.23 21.132 15.647l137.651-46.695c10.395-3.528 14.268-16.297 7.469-25.002l-73.05-93.517c-37.97 14.732-68.605 38.912-90.697 68.695z" fill="#d3d1d1"/><path d="m256.009 298.459c-88.418 0-160.353 71.934-160.353 160.353v37.207c0 8.836 7.164 16 16 16h288.705c8.836 0 16-7.164 16-16v-37.207c.001-88.419-71.933-160.353-160.352-160.353z" fill="#e0e0e0"/><path d="m416.117 450.008c-4.586-84.34-74.643-151.549-160.108-151.549s-155.521 67.209-160.107 151.549c94.211 60.434 223.069 62.316 320.215 0z" fill="#d3d1d1"/><path d="m406.029 402.194c-22.932-60.56-81.524-103.735-150.02-103.735s-127.088 43.175-150.02 103.735c119.394 92.821 180.48 92.951 300.04 0z" fill="#e0e0e0"/><path d="m387.729 114.723c-69.704-68.613-192.687-69.645-263.439 0-33.376 32.854-51.758 77.36-51.758 125.319 0 98.687 141.428 177.103 183.478 177.103 42.014 0 183.478-78.267 183.478-177.103-.001-47.958-18.382-92.464-51.759-125.319z" fill="#e0e0e0"/><path d="m256.009 347.593c-39.282 0-155.946-64.854-179.191-147.014-2.833 12.76-4.287 25.976-4.287 39.464 0 98.622 141.397 177.103 183.478 177.103 42.477 0 183.478-78.718 183.478-177.103 0-13.489-1.454-26.704-4.287-39.464-23.331 82.471-140.382 147.014-179.191 147.014z" fill="#d3d1d1"/><path d="m320.593 273.351c-35.766-28.415-93.393-28.422-129.168 0-36.199 28.759-36.2 75.592 0 104.351 35.766 28.415 93.393 28.422 129.168 0 36.199-28.759 36.2-75.591 0-104.351z" fill="#f9f9f9"/><g fill="#727272"><circle cx="202.583" cy="245.399" r="19.841"/><circle cx="309.435" cy="245.399" r="19.841"/><path d="m290.903 322.779-21.947-6.786 12.118-17.527c6.203-8.972-.219-21.218-11.126-21.218h-27.877c-10.907 0-17.328 12.247-11.126 21.218l12.118 17.527-21.948 6.787c-8.442 2.61-13.17 11.57-10.56 20.013 2.607 8.43 11.558 13.172 20.013 10.56l25.441-7.867 25.44 7.867c8.442 2.608 17.401-2.118 20.013-10.56 2.611-8.444-2.117-17.404-10.559-20.014z"/><path d="m256.009 173.311c8.837 0 16-7.163 16-16v-19.998c0-8.837-7.163-16-16-16-8.836 0-16 7.163-16 16v19.998c0 8.837 7.164 16 16 16z"/><path d="m256.009 224.552c8.837 0 16-7.163 16-16v-9.999c0-8.837-7.163-16-16-16-8.836 0-16 7.163-16 16v9.999c0 8.836 7.164 16 16 16z"/><path d="m202.583 204.683c8.836 0 16-7.163 16-16v-26.093c0-8.837-7.164-16-16-16s-16 7.163-16 16v26.094c0 8.836 7.164 15.999 16 15.999z"/><path d="m309.435 204.683c8.837 0 16-7.163 16-16v-26.093c0-8.837-7.163-16-16-16s-16 7.163-16 16v26.094c0 8.836 7.163 15.999 16 15.999z"/><path d="m198.26 411.563-28.657-10.069c-8.338-2.927-17.47 1.455-20.399 9.792s1.454 17.47 9.791 20.399l28.657 10.069c8.354 2.933 17.476-1.471 20.399-9.792 2.929-8.336-1.454-17.469-9.791-20.399z"/><path d="m365.541 411.286c-2.93-8.337-12.063-12.72-20.399-9.792l-28.657 10.069c-8.337 2.93-12.721 12.063-9.792 20.399 2.313 6.583 8.493 10.7 15.096 10.7 3.625 0 2.329.137 33.961-10.978 8.336-2.928 12.72-12.061 9.791-20.398z"/><path d="m260.921 433.573h-10.824c-8.836 0-16 7.163-16 16s7.164 16 16 16h10.824c8.837 0 16-7.163 16-16s-7.163-16-16-16z"/><path d="m468.117 352.352c-2.319 0 6.78 1.702-109.912-21.968-8.66-1.757-14.257-10.201-12.5-18.861s10.204-14.253 18.861-12.5l106.715 21.646c8.66 1.757 14.257 10.201 12.5 18.861-1.539 7.587-8.211 12.822-15.664 12.822z"/><path d="m43.902 352.352c-7.454 0-14.125-5.235-15.664-12.822-1.757-8.66 3.84-17.104 12.5-18.861l106.714-21.646c8.665-1.756 17.105 3.841 18.861 12.5 1.757 8.66-3.84 17.104-12.5 18.861-115.95 23.519-107.587 21.968-109.911 21.968z"/><path d="m371.767 284.87c-8.148 0-15.114-6.196-15.908-14.474-.844-8.796 5.604-16.61 14.399-17.454l124.224-11.913c8.807-.849 16.61 5.604 17.454 14.399s-5.604 16.61-14.399 17.454c-132.993 12.755-124.574 11.988-125.77 11.988z"/><path d="m140.252 284.87c-1.197 0 7.299.774-125.77-11.987-8.796-.844-15.243-8.658-14.399-17.454.843-8.797 8.658-15.251 17.454-14.399l124.224 11.913c8.796.844 15.243 8.658 14.399 17.454-.794 8.276-7.761 14.473-15.908 14.473z"/><path d="m144.233 469.577c-3.746 0-2.867-.046-33.813-11.005-8.33-2.95-12.691-12.094-9.741-20.423 2.95-8.33 12.097-12.693 20.423-9.741l28.472 10.083c8.33 2.95 12.691 12.094 9.741 20.423-2.324 6.563-8.495 10.663-15.082 10.663z"/><path d="m370.511 469.577c-6.588 0-12.758-4.099-15.082-10.663-2.95-8.329 1.411-17.473 9.741-20.423l28.472-10.083c8.328-2.947 17.474 1.411 20.423 9.741 2.95 8.329-1.411 17.473-9.741 20.423-31.402 11.121-30.162 11.005-33.813 11.005z"/></g></svg>