<svg id="Layer_1" enable-background="new 0 0 512.002 512.002" height="512" viewBox="0 0 512.002 512.002" width="512" xmlns="http://www.w3.org/2000/svg"><path d="m231.451 76.849-114.376-70.176c-26.794-16.44-60.542 5.925-55.912 36.974l22.362 149.94c1.825 12.237 16.342 17.851 25.927 10.047l123.733-100.74c8.517-6.933 7.686-20.264-1.734-26.045z" fill="#e0c8bf"/><path d="m395.792 6.602-115.201 70.223c-9.395 5.728-10.359 19.081-1.773 26.07l123.733 100.74c9.527 7.759 24.027 2.273 25.914-9.968l23.119-149.85c4.799-31.102-28.952-53.575-55.792-37.215z" fill="#e0c8bf"/><path d="m428.465 193.666 9.729-63.059c-25.035-35.439-62.906-66.876-105.396-85.606l-52.207 31.823c-9.395 5.728-10.359 19.081-1.773 26.07l123.733 100.74c9.527 7.759 24.026 2.273 25.914-9.968z" fill="#dfb7a4"/><path d="m74.076 130.236 9.448 63.35c1.826 12.245 16.322 17.868 25.927 10.047l123.733-100.74c8.517-6.934 7.686-20.265-1.734-26.045l-52.048-31.934c-42.807 18.824-80.49 50.318-105.326 85.322z" fill="#dfb7a4"/><path d="m256.001 297.334c-88.418 0-160.353 71.934-160.353 160.353v37.207c0 8.836 7.164 16 16 16h288.705c8.836 0 16-7.164 16-16v-37.207c.001-88.419-71.934-160.353-160.352-160.353z" fill="#e0c8bf"/><path d="m416.109 448.883c-4.586-84.34-74.643-151.549-160.108-151.549s-155.521 67.209-160.108 151.549c94.212 60.433 223.07 62.315 320.216 0z" fill="#e8d9d4"/><path d="m406.021 401.069c-22.932-60.56-81.524-103.735-150.02-103.735s-127.088 43.175-150.02 103.735c119.393 92.821 180.48 92.951 300.04 0z" fill="#f9f9f9"/><path d="m460.05 326.52c-7.393-108.13-6.903-101.28-7.022-102.131-12.488-89.875-89.605-161.521-197.027-161.521-107.07 0-184.464 71.32-197.019 161.465l-14.156 96.684c-1.924 13.134 12.116 22.768 23.682 16.26 10.954-6.169 9.341-1.544 35.109 15.843 47.537 50.491 143.198 82.952 147.3 84.326 3.299 1.105 6.869 1.105 10.168 0 4.104-1.375 99.896-33.875 147.398-84.431 9.387-6.703 16.37-13.727 19.06-15.096.708.096 3.189.643 8.896 3.747 11.074 6.027 24.471-2.569 23.611-15.146z" fill="#e0c8bf"/><path d="m456.191 270.09c-4.966 5.753-13.196 7.17-19.752 3.601-5.707-3.104-8.188-3.651-8.896-3.747-2.672 1.359-9.67 8.391-19.06 15.096-47.502 50.556-143.294 83.056-147.398 84.431-3.299 1.105-6.869 1.105-10.168 0-4.102-1.374-99.763-33.835-147.3-84.326-24.68-16.652-23.993-22.103-35.109-15.843-5.032 2.832-11.168 2.72-16.077-.224l-7.605 51.938c-1.924 13.134 12.116 22.768 23.682 16.26 11.074-6.236 10.077-1.047 35.109 15.843 47.537 50.491 143.198 82.952 147.3 84.326 3.299 1.105 6.869 1.105 10.168 0 4.104-1.375 99.896-33.875 147.398-84.431 9.387-6.703 16.37-13.727 19.06-15.096.708.096 3.189.643 8.896 3.747 11.073 6.028 24.47-2.569 23.61-15.146z" fill="#dfb7a4"/><path d="m320.585 272.226c-35.766-28.415-93.393-28.422-129.168 0-36.199 28.759-36.2 75.592 0 104.351 35.766 28.415 93.393 28.422 129.168 0 36.199-28.759 36.2-75.591 0-104.351z" fill="#e8d9d4"/><g fill="#a57d6d"><circle cx="215.338" cy="248.613" r="19.841"/><circle cx="296.664" cy="248.613" r="19.841"/><path d="m290.895 326.318-18.526-5.729 8.697-12.579c6.203-8.971-.219-21.218-11.126-21.218h-27.877c-10.907 0-17.328 12.247-11.126 21.218l8.697 12.579-18.526 5.729c-8.442 2.61-13.17 11.57-10.56 20.013 2.61 8.44 11.567 13.169 20.013 10.56l25.44-7.867c28.031 8.668 26.954 8.585 30.172 8.585 6.831 0 13.157-4.409 15.281-11.277 2.61-8.444-2.117-17.404-10.559-20.014z"/><path d="m67.9 413.519c-12.185 0-20.005-13.256-13.864-23.963 15.794-27.538 41.196-53.288 75.501-76.533 7.315-4.957 17.264-3.045 22.221 4.27s3.046 17.264-4.27 22.221c-30.24 20.491-52.343 42.685-65.694 65.963-2.956 5.154-8.349 8.042-13.894 8.042z"/><path d="m444.102 413.519c-5.546 0-10.937-2.887-13.894-8.043-13.352-23.278-35.454-45.472-65.694-65.963-7.315-4.957-9.227-14.905-4.27-22.221 4.956-7.314 14.905-9.226 22.221-4.27 34.305 23.245 59.707 48.995 75.501 76.533 6.143 10.711-1.687 23.964-13.864 23.964z"/><path d="m371.759 283.745c-8.148 0-15.114-6.196-15.908-14.474-.844-8.796 5.604-16.61 14.399-17.454l124.224-11.913c8.809-.849 16.61 5.604 17.454 14.399s-5.604 16.61-14.399 17.454c-132.993 12.754-124.574 11.988-125.77 11.988z"/><path d="m140.243 283.745c-1.197 0 7.299.774-125.77-11.987-8.796-.844-15.243-8.658-14.399-17.454.844-8.795 8.642-15.248 17.454-14.399l124.224 11.913c8.796.844 15.243 8.658 14.399 17.454-.794 8.275-7.759 14.473-15.908 14.473z"/></g></svg>