<svg id="Layer_1" enable-background="new 0 0 512.002 512.002" height="512" viewBox="0 0 512.002 512.002" width="512" xmlns="http://www.w3.org/2000/svg"><path d="m231.451 76.849-114.376-70.176c-26.794-16.44-60.542 5.925-55.912 36.974l22.362 149.94c1.825 12.237 16.342 17.851 25.927 10.047l123.733-100.74c8.517-6.933 7.686-20.264-1.734-26.045z" fill="#e0e0e0"/><path d="m395.792 6.602-115.201 70.223c-9.395 5.728-10.359 19.081-1.773 26.07l123.733 100.74c9.527 7.759 24.027 2.273 25.914-9.968l23.119-149.85c4.799-31.102-28.952-53.575-55.792-37.215z" fill="#e0e0e0"/><path d="m428.465 193.666 9.729-63.059c-25.035-35.439-62.906-66.876-105.396-85.606l-52.207 31.823c-9.395 5.728-10.359 19.081-1.773 26.07l123.733 100.74c9.527 7.759 24.026 2.273 25.914-9.968z" fill="#d3d1d1"/><path d="m74.076 130.236 9.448 63.35c1.826 12.245 16.322 17.868 25.927 10.047l123.733-100.74c8.517-6.934 7.686-20.265-1.734-26.045l-52.048-31.934c-42.807 18.824-80.49 50.318-105.326 85.322z" fill="#d3d1d1"/><path d="m256.001 297.334c-88.418 0-160.353 71.934-160.353 160.353v37.207c0 8.836 7.164 16 16 16h288.705c8.836 0 16-7.164 16-16v-37.207c.001-88.419-71.934-160.353-160.352-160.353z" fill="#d3d1d1"/><path d="m416.109 448.883c-4.586-84.34-74.643-151.549-160.108-151.549s-155.521 67.209-160.108 151.549c94.212 60.433 223.07 62.315 320.216 0z" fill="#e0e0e0"/><path d="m406.021 401.069c-22.932-60.56-81.524-103.735-150.02-103.735s-127.088 43.175-150.02 103.735c119.393 92.821 180.48 92.951 300.04 0z" fill="#f9f9f9"/><path d="m256.001 60.688c-77.069 0-183.478 79.53-183.478 177.103 0 51.348 40.999 94.277 77.104 122.12 16.713 44.461 76.603 75.193 104.688 75.193 30.782 0 86.076-32.365 103.19-71.504 67.623-50.259 81.973-96.039 81.973-125.81.001-95.84-104.505-177.102-183.477-177.102z" fill="#e0e0e0"/><path d="m357.506 291.309c-17.181 39.29-72.642 71.504-103.19 71.504-28.085 0-87.975-30.732-104.688-75.193-28.025-21.612-58.994-52.315-71.454-88.988-3.724 12.87-5.65 25.989-5.65 39.16 0 51.348 40.999 94.277 77.104 122.12 16.713 44.461 76.603 75.193 104.688 75.193 30.782 0 86.076-32.365 103.19-71.504 67.623-50.259 81.973-96.039 81.973-125.81 0-13.193-1.933-26.334-5.67-39.225-8.944 26.419-30.287 58.543-76.303 92.743z" fill="#e0e0e0"/><path d="m256.001 136.995c-57.233 0-133.432 58.888-133.432 128.796 0 37.342 29.816 68.562 56.074 88.811 12.154 32.334 55.708 54.684 76.133 54.684 22.386 0 62.598-23.537 75.044-52.001 49.178-36.55 59.614-69.844 59.614-91.494-.001-69.699-76.002-128.796-133.433-128.796z" fill="#7c7c7c"/><path d="m320.585 272.226c-35.766-28.415-93.393-28.422-129.168 0-36.199 28.759-36.2 75.592 0 104.351 35.766 28.415 93.393 28.422 129.168 0 36.199-28.759 36.2-75.591 0-104.351z" fill="#727271"/><g fill="#3d3c3c"><circle cx="202.575" cy="243.153" r="19.841"/><circle cx="309.427" cy="243.153" r="19.841"/><path d="m290.896 334.139-18.895-5.843v-18.966l9.064-13.111c6.203-8.971-.219-21.218-11.126-21.218h-27.877c-10.907 0-17.328 12.247-11.126 21.218l9.064 13.111v18.965l-18.895 5.843c-8.441 2.611-13.169 11.571-10.559 20.014 2.611 8.441 11.571 13.168 20.014 10.559l25.439-7.867c27.975 8.651 26.948 8.585 30.172 8.585 6.83 0 13.157-4.409 15.281-11.276 2.612-8.443-2.115-17.403-10.556-20.014z"/><path d="m67.9 384.219c-12.185 0-20.005-13.256-13.864-23.963 15.794-27.538 41.196-53.288 75.501-76.533 7.316-4.957 17.264-3.046 22.221 4.27s3.046 17.264-4.27 22.221c-30.24 20.491-52.343 42.685-65.694 65.963-2.956 5.154-8.349 8.042-13.894 8.042z"/><path d="m443.102 384.219c-5.546 0-10.937-2.887-13.894-8.043-13.352-23.278-35.454-45.472-65.694-65.963-7.315-4.957-9.227-14.905-4.27-22.221 4.956-7.315 14.905-9.227 22.221-4.27 34.305 23.245 59.707 48.995 75.501 76.533 6.143 10.711-1.687 23.964-13.864 23.964z"/><path d="m371.759 272.745c-8.148 0-15.114-6.196-15.908-14.474-.844-8.796 5.604-16.61 14.399-17.454l124.224-11.913c8.81-.843 16.61 5.603 17.454 14.399s-5.604 16.61-14.399 17.454c-132.993 12.754-124.574 11.988-125.77 11.988z"/><path d="m140.243 272.745c-1.197 0 7.299.774-125.77-11.987-8.796-.844-15.243-8.658-14.399-17.454s8.643-15.241 17.454-14.399l124.224 11.913c8.796.844 15.243 8.658 14.399 17.454-.794 8.275-7.759 14.473-15.908 14.473z"/></g></svg>