<svg id="Layer_1" enable-background="new 0 0 512.023 512.023" height="512" viewBox="0 0 512.023 512.023" width="512" xmlns="http://www.w3.org/2000/svg"><path d="m232.754 78.862-94.966-71.923c-22.345-16.922-54.428-.966-54.428 27.055v133.903c0 8.915 7.248 16 16 16 6.394 0-2.461 4.314 132.13-78.66 9.539-5.881 10.252-19.567 1.264-26.375z" fill="#3f3f3f"/><path d="m374.235 6.939-94.966 71.923c-8.934 6.767-8.333 20.458 1.264 26.375 134.432 82.875 125.66 78.66 132.13 78.66 8.75 0 16-7.085 16-16v-133.903c0-28.031-32.091-43.97-54.428-27.055z" fill="#3f3f3f"/><path d="m83.36 98.025v69.872c0 12.494 13.741 20.189 24.396 13.62l123.733-76.279c9.539-5.88 10.252-19.567 1.264-26.375l-52.482-39.748c-36.874 11.611-70.088 31.659-96.911 58.91z" fill="#606060"/><path d="m428.663 98.025c-26.799-27.226-60.003-47.288-96.911-58.91l-52.482 39.748c-8.934 6.767-8.333 20.458 1.264 26.375l123.733 76.279c10.635 6.558 24.396-1.104 24.396-13.62z" fill="#606060"/><path d="m256.012 298.464c-88.418 0-160.353 71.934-160.353 160.353v37.207c0 8.836 7.164 16 16 16h288.705c8.836 0 16-7.164 16-16v-37.207c0-88.419-71.934-160.353-160.352-160.353z" fill="#d3d1d1"/><path d="m416.119 450.013c-4.586-84.34-74.643-151.549-160.108-151.549s-155.52 67.209-160.107 151.549c94.212 60.434 223.07 62.316 320.215 0z" fill="#d3d1d1"/><path d="m406.032 402.199c-22.932-60.56-81.524-103.735-150.02-103.735s-127.088 43.175-150.02 103.735c119.393 92.821 180.479 92.951 300.04 0z" fill="#e0e0e0"/><path d="m392.261 114.284c-75.453-68.492-197.027-68.509-272.499 0-76.367 69.321-76.368 182.206 0 251.527 75.453 68.492 197.027 68.509 272.499 0 76.367-69.32 76.369-182.205 0-251.527z" fill="#727272"/><path d="m374.522 368.78-11.456-68.149c-.687-4.082-2.928-7.739-6.254-10.204-58.118-43.059-55.954-41.529-56.055-41.529-1.918-1.421-3.266-3.485-3.796-5.813-9.949-43.682-72.008-43.434-81.901 0-.53 2.328-1.878 4.393-3.797 5.813l-56.054 41.529c-3.326 2.465-5.567 6.122-6.254 10.204l-11.456 68.149c-1.059 6.302 1.733 12.63 7.102 16.096 66.317 42.805 155.717 43.31 222.817 0 5.371-3.466 8.163-9.794 7.104-16.096z" fill="#f9f9f9"/><g fill="#3d3c3c"><circle cx="180.933" cy="232.699" r="19.841"/><circle cx="331.091" cy="232.699" r="19.841"/><path d="m281.453 364.145c8.461 2.614 17.407-2.135 20.013-10.56 2.61-8.442-2.117-17.402-10.56-20.013l-18.779-5.807 8.949-12.943c6.203-8.972-.219-21.218-11.126-21.218h-27.877c-10.907 0-17.328 12.246-11.126 21.218l8.949 12.943-18.779 5.807c-8.442 2.61-13.17 11.57-10.56 20.013 2.61 8.441 11.57 13.168 20.013 10.56l25.441-7.867z"/><path d="m386.778 250.827c-7.057 0-13.517-4.703-15.439-11.842-2.298-8.533 2.755-17.313 11.288-19.611l109.224-29.423c8.531-2.295 17.313 2.755 19.611 11.287 2.298 8.533-2.755 17.313-11.288 19.611-119.676 32.239-110.371 29.978-113.396 29.978z"/><path d="m125.245 250.827c-3.017 0 6.438 2.303-113.395-29.978-8.533-2.299-13.586-11.078-11.288-19.611 2.298-8.532 11.077-13.592 19.611-11.287l109.224 29.423c8.533 2.299 13.586 11.078 11.288 19.611-1.923 7.138-8.384 11.842-15.44 11.842z"/><path d="m48.922 368.839c-12.184 0-20.005-13.256-13.865-23.963 15.793-27.538 41.196-53.287 75.501-76.533 7.316-4.957 17.264-3.045 22.221 4.27s3.045 17.264-4.27 22.221c-30.24 20.492-52.343 42.685-65.693 65.963-2.956 5.154-8.349 8.042-13.894 8.042z"/><path d="m463.101 368.839c-5.546 0-10.937-2.887-13.894-8.043-13.351-23.278-35.453-45.471-65.693-65.963-7.315-4.957-9.227-14.905-4.27-22.221s14.905-9.228 22.221-4.27c34.305 23.246 59.708 48.995 75.501 76.533 6.142 10.71-1.688 23.964-13.865 23.964z"/></g></svg>