<svg id="Layer_1" enable-background="new 0 0 512.002 512.002" height="512" viewBox="0 0 512.002 512.002" width="512" xmlns="http://www.w3.org/2000/svg"><path d="m256.001 296.828c-88.418 0-160.353 71.934-160.353 160.353v37.207c0 8.836 7.164 16 16 16h288.705c8.836 0 16-7.164 16-16v-37.208c.001-88.418-71.934-160.352-160.352-160.352z" fill="#fdaa6a"/><path d="m416.109 450.121c-4.586-84.34-74.643-151.549-160.108-151.549s-155.521 67.209-160.108 151.549c94.212 60.433 223.07 62.315 320.216 0z" fill="#fdaa6a"/><path d="m406.021 402.307c-22.932-60.56-81.524-103.735-150.02-103.735s-127.088 43.175-150.02 103.735c119.393 92.821 180.48 92.95 300.04 0z" fill="#db935d"/><path d="m388.885 8.358-133.335 81.275-132.321-81.186c-32.888-20.18-74.312 7.272-68.629 45.383l31.328 210.057c1.837 12.316 16.391 17.814 25.927 10.047l143.605-116.918 143.604 116.918c9.56 7.783 24.034 2.226 25.915-9.968l32.389-209.931c5.889-38.174-35.539-65.759-68.483-45.677z" fill="#fdaa6a"/><path d="m424.979 263.966 17.623-114.228c-33.362-46.56-92.816-74.574-148.595-83.546l-38.457 23.441-37.989-23.308c-54.468 8.951-114.758 36.395-148.593 83.85l16.959 113.712c1.826 12.244 16.324 17.869 25.927 10.047l143.605-116.918 143.604 116.918c9.571 7.792 24.032 2.242 25.916-9.968z" fill="#f0a567"/><path d="m439.479 239.028c0-47.978-25.523-86.406-65.587-112.468-33.605-21.861-77.677-34.913-117.891-34.913-73.994 0-183.478 46.841-183.478 147.381 0 51.157 40.571 93.963 77.131 122.147 16.207 42.954 75.131 75.166 104.661 75.166 28.724 0 85.18-30.442 103.142-71.462 37.73-28.063 82.022-72.399 82.022-125.851z" fill="#fdaa6a"/><path d="m357.457 304.987c-17.271 39.443-72.739 71.462-103.142 71.462-29.596 0-88.442-32.18-104.661-75.166-29.698-22.895-62.043-55.438-73.138-94.268-16.486 63.765 21.228 114.142 73.138 154.161 16.207 42.954 75.131 75.166 104.661 75.166 28.724 0 85.18-30.442 103.142-71.462 54.435-40.49 95.018-92.373 77.996-157.773-11.734 40.933-47.067 74.875-77.996 97.88z" fill="#f0a567"/><path d="m322.964 271.542c-37.083-29.462-96.833-29.469-133.926 0-37.532 29.819-37.533 78.376 0 108.195 37.083 29.462 96.833 29.469 133.926 0 37.532-29.819 37.533-78.376 0-108.195z" fill="#f9bf98"/><g fill="#7f604b"><circle cx="202.575" cy="244.385" r="19.841"/><circle cx="309.427" cy="244.385" r="19.841"/><path d="m290.896 335.37-18.895-5.843v-18.966l9.064-13.111c6.203-8.971-.219-21.218-11.126-21.218h-27.877c-10.907 0-17.328 12.247-11.126 21.218l9.064 13.111v18.966l-18.895 5.843c-8.442 2.611-13.169 11.571-10.559 20.013s11.571 13.172 20.013 10.56l25.44-7.867c28.031 8.668 26.955 8.585 30.172 8.585 6.831 0 13.157-4.409 15.281-11.277 2.613-8.443-2.115-17.402-10.556-20.014z"/><path d="m67.9 385.457c-12.184 0-20.005-13.256-13.865-23.963 15.794-27.539 41.197-53.288 75.502-76.533 7.315-4.957 17.265-3.045 22.221 4.27 4.957 7.315 3.045 17.264-4.271 22.221-30.239 20.491-52.342 42.685-65.693 65.963-2.957 5.154-8.349 8.042-13.894 8.042z"/><path d="m443.102 385.457c-5.546 0-10.937-2.887-13.894-8.043-13.351-23.278-35.454-45.472-65.693-65.963-7.315-4.957-9.227-14.905-4.27-22.221 4.957-7.315 14.905-9.227 22.221-4.27 34.304 23.245 59.707 48.994 75.501 76.533 6.141 10.711-1.688 23.964-13.865 23.964z"/><path d="m371.758 273.983c-8.148 0-15.114-6.196-15.908-14.474-.844-8.796 5.603-16.61 14.399-17.454l124.224-11.913c8.785-.856 16.611 5.603 17.454 14.399.844 8.796-5.603 16.61-14.399 17.454-132.992 12.754-124.572 11.988-125.77 11.988z"/><path d="m140.244 273.983c-1.197 0 7.299.774-125.77-11.987-8.796-.844-15.243-8.658-14.399-17.454.843-8.797 8.66-15.25 17.454-14.399l124.224 11.913c8.796.844 15.243 8.658 14.399 17.454-.794 8.275-7.761 14.473-15.908 14.473z"/></g></svg>