<svg id="Layer_1" enable-background="new 0 0 512.023 512.023" height="512" viewBox="0 0 512.023 512.023" width="512" xmlns="http://www.w3.org/2000/svg"><path d="m256.012 298.464c-88.418 0-160.353 71.934-160.353 160.353v37.207c0 8.836 7.164 16 16 16h288.705c8.836 0 16-7.164 16-16v-37.207c0-88.419-71.934-160.353-160.352-160.353z" fill="#fdaa6a"/><path d="m416.119 450.013c-4.586-84.34-74.643-151.549-160.108-151.549s-155.52 67.209-160.107 151.549c94.212 60.434 223.07 62.316 320.215 0z" fill="#fdaa6a"/><path d="m406.032 402.199c-22.932-60.56-81.524-103.735-150.02-103.735s-127.088 43.175-150.02 103.735c119.393 92.821 180.479 92.951 300.04 0z" fill="#e0e0e0"/><path d="m232.754 78.862-94.966-71.923c-22.344-16.923-54.428-.965-54.428 27.055v158.362c0 13.538 15.76 20.83 26.102 12.407l123.733-100.739c8.045-6.549 7.814-18.909-.441-25.162z" fill="#fdaa6a"/><path d="m374.235 6.939-94.965 71.923c-8.27 6.263-8.473 18.624-.441 25.162l123.733 100.739c10.373 8.448 26.102 1.085 26.102-12.407v-158.362c-.001-28.028-32.09-43.972-54.429-27.055z" fill="#fdaa6a"/><path d="m346.89 27.65-67.62 51.212c-8.27 6.263-8.473 18.624-.441 25.162l123.733 100.739c10.424 8.49 26.102 1.059 26.102-12.407v-105.933c-21.732-25.631-49.195-45.677-81.774-58.773z" fill="#f0a567"/><path d="m83.36 86.424v105.933c0 13.538 15.76 20.83 26.102 12.407l123.733-100.739c8.044-6.55 7.813-18.91-.442-25.162l-67.62-51.212c-33.113 13.309-60.415 33.584-81.773 58.773z" fill="#f0a567"/><path d="m256.012 38.406c-119.06 0-198.987 87.406-198.987 201.642 0 111.316 143.343 201.642 198.987 201.642 56.361 0 198.987-90.879 198.987-201.642 0-113.687-79.396-201.642-198.987-201.642z" fill="#fdaa6a"/><path d="m256.012 378.724c-51.977 0-176.433-77.219-196.211-174.586-1.834 11.678-2.776 23.681-2.776 35.911 0 109.173 141.104 201.642 198.987 201.642 57.495 0 198.987-92.099 198.987-201.642 0-12.23-.941-24.233-2.776-35.911-19.694 96.954-143.999 174.586-196.211 174.586z" fill="#f0a567"/><path d="m322.975 284.768c-37.083-29.462-96.833-29.469-133.926 0-37.532 29.819-37.533 78.376 0 108.195 37.083 29.462 96.833 29.469 133.926 0 37.532-29.818 37.533-78.376 0-108.195z" fill="#f9f9f9"/><g fill="#7f604b"><circle cx="202.586" cy="234.497" r="19.841"/><circle cx="309.437" cy="234.497" r="19.841"/><path d="m326.421 305.77c-8.837 0-16 7.163-16 16 0 6.619-5.386 12.005-12.005 12.005-14.297 0-25.929-11.632-25.929-25.929v-8.255l8.589-12.423c6.203-8.972-.219-21.218-11.126-21.218h-27.877c-10.907 0-17.328 12.246-11.126 21.218l8.589 12.423v8.255c0 14.297-11.631 25.929-25.929 25.929-6.62 0-12.005-5.386-12.005-12.005 0-8.837-7.164-16-16-16s-16 7.163-16 16c0 24.265 19.741 44.005 44.005 44.005 16.731 0 31.82-7.138 42.404-18.519 10.584 11.381 25.673 18.519 42.404 18.519 24.265 0 44.005-19.74 44.005-44.005.001-8.837-7.162-16-15.999-16z"/><path d="m495.996 292.736c-2.813.001-5.66-.741-8.245-2.299-33.803-20.378-70.24-24.874-111.392-13.747-8.528 2.309-17.314-2.737-19.622-11.269-2.307-8.53 2.738-17.315 11.269-19.622 49.326-13.34 95.172-7.541 136.267 17.231 13.836 8.343 7.903 29.706-8.277 29.706z"/><path d="m444.112 407.477c-5.546 0-10.937-2.887-13.894-8.043-13.352-23.278-35.454-45.472-65.694-65.963-7.315-4.957-9.227-14.905-4.27-22.221 4.955-7.314 14.904-9.226 22.221-4.27 34.305 23.245 59.707 48.995 75.501 76.533 6.143 10.71-1.686 23.964-13.864 23.964z"/><path d="m16.027 292.736c-16.148.003-22.132-21.351-8.275-29.705 41.094-24.772 86.94-30.571 136.266-17.231 8.53 2.307 13.575 11.092 11.269 19.622-2.307 8.529-11.091 13.57-19.622 11.269-41.15-11.129-77.587-6.632-111.392 13.747-2.585 1.557-5.434 2.298-8.246 2.298z"/><path d="m67.912 407.477c-12.184 0-20.005-13.256-13.865-23.963 15.794-27.539 41.196-53.288 75.501-76.533 7.315-4.957 17.265-3.045 22.221 4.27 4.957 7.315 3.045 17.264-4.271 22.221-30.24 20.491-52.342 42.685-65.693 65.963-2.956 5.154-8.348 8.042-13.893 8.042z"/></g></svg>