<svg id="Layer_1" enable-background="new 0 0 512.023 512.023" height="512" viewBox="0 0 512.023 512.023" width="512" xmlns="http://www.w3.org/2000/svg"><path d="m400.364 512.023h-288.705c-8.334 0-16.124-6.482-15.99-16.884.129-10.606-9-18.972-19.557-18.093l-23.873 1.965c-16.566 1.381-23.95-20.49-9.914-29.437 15.268-9.734 24.332-24.259 28.523-45.711.392-2.002-.382-4.03-1.971-5.165-18.679-13.294-34.901-19.086-44.535-15.912-15.944 5.252-29.052-11.258-17.981-26.11 10.169-13.643 31.697-52.389 61.656-158.619 19.879-74.852 93.945-135.113 187.994-135.113 94.032 0 168.104 60.221 187.994 135.113 29.958 106.23 51.487 144.976 61.656 158.619 11.052 14.828-2.014 31.371-17.981 26.11-9.637-3.173-25.857 2.619-44.502 15.889-1.621 1.158-2.395 3.185-2.003 5.187 4.191 21.452 13.255 35.977 28.523 45.711 14.014 8.934 6.673 30.818-9.914 29.437l-23.873-1.965c-10.606-.875-19.685 7.516-19.556 18.115.13 10.302-7.585 16.863-15.991 16.863zm80.065-135.649h.01z" fill="#e8d9d4"/><path d="m232.754 78.862-94.966-71.923c-22.345-16.922-54.428-.966-54.428 27.055v133.903c0 8.915 7.248 16 16 16 6.394 0-2.461 4.314 132.13-78.66 9.539-5.881 10.252-19.567 1.264-26.375z" fill="#e0c8bf"/><path d="m374.235 6.939-94.966 71.923c-8.934 6.767-8.333 20.458 1.264 26.375 134.432 82.875 125.66 78.66 132.13 78.66 8.75 0 16-7.085 16-16v-133.903c0-28.031-32.091-43.97-54.428-27.055z" fill="#e0c8bf"/><path d="m83.36 98.025v69.872c0 12.494 13.741 20.189 24.396 13.62l123.733-76.279c9.539-5.88 10.252-19.567 1.264-26.375l-52.482-39.748c-36.874 11.611-70.088 31.659-96.911 58.91z" fill="#d6bfb9"/><path d="m428.663 98.025c-26.799-27.226-60.003-47.288-96.911-58.91l-52.482 39.748c-8.934 6.767-8.333 20.458 1.264 26.375l123.733 76.279c10.635 6.558 24.396-1.104 24.396-13.62z" fill="#d6bfb9"/><path d="m444.006 198.058c-19.879-74.852-93.945-135.113-187.994-135.113-94.032 0-168.104 60.221-187.994 135.113-21.503 76.246-38.662 117.725-50.396 140.112 8.868 17.655 20.16 34.397 33.734 49.895 5.478 2.7 11.362 6.25 17.522 10.634 3.008 2.149 1.982 5.333 1.232 8.618 103.251 95.695 267.122 97.038 371.803 0-.785-3.435-1.768-6.475 1.264-8.641 6.147-4.375 12.022-7.918 17.492-10.615 13.573-15.497 24.864-32.239 33.731-49.892-11.732-22.386-28.892-63.865-50.394-140.111z" fill="#e0c8bf"/><path d="m392.261 114.284c-75.453-68.492-197.027-68.509-272.499 0-74.796 67.895-78.319 180.232 1.287 251.595 75.18 67.395 192.835 69.109 269.926 0 79.54-71.305 76.151-183.638 1.286-251.595z" fill="#e0c8bf"/><path d="m121.049 309.727c-30.228-27.098-49.563-61.169-56.065-97.975-19.468 111.819 79.035 205.398 191.028 205.398 111.355 0 210.597-92.996 191.027-205.398-23.792 134.691-208.87 202.968-325.99 97.975z" fill="#d6bfb9"/><path d="m357.935 177.243c-56.444-51.237-147.389-51.249-203.847 0-55.952 50.79-58.588 134.825.962 188.209 56.239 50.416 144.253 51.698 201.922 0 59.503-53.34 56.967-137.372.963-188.209z" fill="#dfb7a4"/><path d="m311.506 278.015c-30.732-24.416-80.249-24.422-110.989 0-31.104 24.712-31.105 64.953 0 89.665 30.732 24.416 80.249 24.422 110.989 0 31.104-24.711 31.105-64.953 0-89.665z" fill="#e8d9d4"/><g fill="#a57d6d"><circle cx="205.919" cy="240.048" r="19.841"/><circle cx="306.104" cy="240.048" r="19.841"/><path d="m342.421 322.287c0-8.837-7.163-16-16-16s-16 7.163-16 16c0 6.619-5.386 12.005-12.005 12.005-14.297 0-25.929-11.632-25.929-25.929v-4.047l8.589-12.423c6.203-8.972-.219-21.218-11.126-21.218h-27.877c-10.907 0-17.328 12.246-11.126 21.218l8.589 12.423v4.047c0 14.297-11.632 25.929-25.929 25.929-6.619 0-12.005-5.386-12.005-12.005 0-8.837-7.163-16-16-16s-16 7.163-16 16c0 24.265 19.74 44.005 44.005 44.005 16.731 0 31.82-7.138 42.404-18.519 10.584 11.381 25.673 18.519 42.404 18.519 24.266 0 44.006-19.74 44.006-44.005z"/><path d="m371.769 284.875c-8.148 0-15.114-6.196-15.908-14.474-.844-8.796 5.604-16.61 14.399-17.454l124.224-11.913c8.809-.848 16.61 5.603 17.454 14.399s-5.604 16.61-14.399 17.454c-132.992 12.755-124.574 11.988-125.77 11.988z"/><path d="m478.093 379.026c-4.898 0 2.883 2.86-113.304-49.741-8.051-3.645-11.622-13.125-7.978-21.175 3.646-8.051 13.128-11.62 21.175-7.978l106.715 48.313c15.602 7.064 10.576 30.581-6.608 30.581z"/><path d="m140.254 284.875c-1.197 0 7.299.774-125.77-11.987-8.796-.844-15.243-8.658-14.399-17.454.844-8.795 8.642-15.246 17.454-14.399l124.224 11.913c8.796.844 15.243 8.658 14.399 17.454-.794 8.276-7.76 14.473-15.908 14.473z"/><path d="m33.931 379.026c-17.19 0-22.203-23.521-6.608-30.58l106.715-48.313c8.052-3.644 17.53-.072 21.175 7.978s.073 17.53-7.978 21.175c-116.155 52.586-108.398 49.74-113.304 49.74z"/></g></svg>