<svg id="Layer_1" enable-background="new 0 0 512.023 512.023" height="512" viewBox="0 0 512.023 512.023" width="512" xmlns="http://www.w3.org/2000/svg"><path d="m232.754 78.862-94.966-71.923c-22.345-16.922-54.428-.966-54.428 27.055v133.903c0 8.915 7.248 16 16 16 6.394 0-2.461 4.314 132.13-78.66 9.539-5.881 10.252-19.567 1.264-26.375z" fill="#dfb7a4"/><path d="m374.235 6.939-94.966 71.923c-8.934 6.767-8.333 20.458 1.264 26.375 134.432 82.875 125.66 78.66 132.13 78.66 8.75 0 16-7.085 16-16v-133.903c0-28.031-32.091-43.97-54.428-27.055z" fill="#dfb7a4"/><path d="m83.36 98.025v69.872c0 12.494 13.741 20.189 24.396 13.62l123.733-76.279c9.539-5.88 10.252-19.567 1.264-26.375l-52.482-39.748c-36.874 11.611-70.088 31.659-96.911 58.91z" fill="#c69a85"/><path d="m428.663 98.025c-26.799-27.226-60.003-47.288-96.911-58.91l-52.482 39.748c-8.934 6.767-8.333 20.458 1.264 26.375l123.733 76.279c10.635 6.558 24.396-1.104 24.396-13.62z" fill="#c69a85"/><path d="m256.012 298.464c-88.418 0-160.353 71.934-160.353 160.353v37.207c0 8.836 7.164 16 16 16h288.705c8.836 0 16-7.164 16-16v-37.207c0-88.419-71.934-160.353-160.352-160.353z" fill="#e0c8bf"/><path d="m416.119 450.013c-4.586-84.34-74.643-151.549-160.108-151.549s-155.52 67.209-160.107 151.549c94.212 60.434 223.07 62.316 320.215 0z" fill="#f9f9f9"/><path d="m406.032 402.199c-22.932-60.56-81.524-103.735-150.02-103.735s-127.088 43.175-150.02 103.735c86.059 66.906 213.427 67.336 300.04 0z" fill="#727272"/><path d="m392.262 114.284c-75.454-68.492-197.027-68.509-272.5 0-36.903 33.5-57.228 78.163-57.228 125.764 0 44.165 2.275 90.113 29.469 123.941 29.156 36.269 81.271 53.161 164.009 53.161s134.853-16.893 164.009-53.161c27.193-33.828 29.469-79.777 29.469-123.941-.001-47.601-20.325-92.265-57.228-125.764z" fill="#dfb7a4"/><path d="m256.012 360.999c-145.791 0-186.378-53.444-192.421-139.562-.695 6.141-1.056 12.35-1.056 18.611 0 44.165 2.275 90.113 29.469 123.941 29.156 36.269 81.271 53.161 164.009 53.161s134.853-16.893 164.009-53.161c27.193-33.828 29.469-79.777 29.469-123.941 0-6.261-.361-12.47-1.056-18.611-6.046 86.118-46.632 139.562-192.423 139.562z" fill="#c69a85"/><path d="m142.348 307.364h-61.382c-8.066 0-14.871-6.004-15.875-14.007-2.253-17.943-2.557-37.018-2.557-53.309 0-104.513 97.347-184.529 208.752-176.554 8.372.599 14.858 7.565 14.858 15.959v84.114c0 79.29-64.506 143.797-143.796 143.797z" fill="#727272"/><path d="m311.506 287.175c-30.732-24.416-80.249-24.422-110.989 0-31.104 24.712-31.105 64.953 0 89.665 30.732 24.416 80.249 24.422 110.989 0 31.104-24.711 31.105-64.953 0-89.665z" fill="#f9f9f9"/><g fill="#3d3c3c"><path d="m296.19 329.293h-15c-5.062 0-9.179-4.117-9.179-9.178v-2.151l9.064-13.111c6.203-8.971-.219-21.218-11.126-21.218h-27.877c-10.907 0-17.328 12.246-11.126 21.218l9.064 13.111v2.151c0 5.061-4.117 9.178-9.179 9.178h-15c-8.837 0-16 7.164-16 16s7.163 16 16 16c15.898 0 27.14 1.48 40.179-8.629 12.982 10.065 24.384 8.629 40.179 8.629 8.837 0 16-7.164 16-16s-7.162-16-15.999-16z"/><circle cx="188.745" cy="220.206" r="19.841"/><circle cx="323.279" cy="220.206" r="19.841"/><path d="m496.012 307.045h-131.892c-8.837 0-16-7.164-16-16s7.163-16 16-16h131.892c8.837 0 16 7.164 16 16s-7.163 16-16 16z"/><path d="m148.903 307.045h-132.891c-8.837 0-16-7.164-16-16s7.163-16 16-16h132.892c8.837 0 16 7.164 16 16s-7.164 16-16.001 16z"/><path d="m53.534 405.692c-15.921 0-22.059-20.82-8.688-29.447l82.667-53.335c7.422-4.789 17.327-2.656 22.118 4.771 4.791 7.425 2.655 17.328-4.771 22.119-88.963 57.397-84.719 55.892-91.326 55.892z"/><path d="m458.489 405.692c-6.71 0-2.61 1.346-91.326-55.893-7.426-4.791-9.562-14.694-4.771-22.119 4.79-7.426 14.696-9.56 22.118-4.771l82.667 53.335c13.375 8.63 7.227 29.448-8.688 29.448z"/></g></svg>