<svg id="Layer_1" enable-background="new 0 0 511.988 511.988" height="512" viewBox="0 0 511.988 511.988" width="512" xmlns="http://www.w3.org/2000/svg"><path d="m388.878 7.479-133.334 81.275-132.322-81.186c-32.888-20.179-74.312 7.272-68.63 45.383l31.328 210.057c1.837 12.316 16.391 17.814 25.927 10.047l143.605-116.918 143.604 116.918c9.56 7.783 24.034 2.226 25.915-9.968l32.389-209.931c5.89-38.174-35.538-65.759-68.482-45.677z" fill="#727272"/><path d="m424.972 263.087 17.623-114.228c-33.362-46.56-92.816-74.574-148.595-83.546l-38.456 23.441-37.989-23.308c-54.468 8.951-114.758 36.395-148.593 83.85l16.958 113.712c1.826 12.244 16.324 17.869 25.927 10.047l143.605-116.918 143.604 116.918c9.572 7.792 24.032 2.241 25.916-9.968z" fill="#3f3f3f"/><path d="m255.994 296.935c-88.419 0-160.353 71.934-160.353 160.353v37.207c0 8.836 7.163 16 16 16h288.705c8.837 0 16-7.164 16-16v-37.207c.001-88.418-71.933-160.353-160.352-160.353z" fill="#727272"/><path d="m387.814 366.736c-66.191-95.397-208.496-90.842-268.762 7.851-3.225 5.281-3.115 11.948.28 17.12l73.755 112.326c2.959 4.505 7.985 7.218 13.375 7.218h88.258c5.338 0 10.324-2.662 13.295-7.098l79.948-119.395c3.66-5.465 3.602-12.616-.149-18.022z" fill="#e0e0e0"/><path d="m481.471 336.439-28.577-112.587c-22.442-155.882-218.322-208.007-330.1-114.33-34.665 29.051-57.263 69.626-63.699 114.33l-28.578 112.587c-3.463 13.647 11.156 24.753 23.359 17.878 18.611-10.48 33.997-10.761 49.688-.847 43.759 48.594 65.9 85.162 152.431 85.162 86.309 0 108.396-36.281 152.539-85.282 9.446-6.364 24.717-12.562 49.782 1.079 12.227 6.657 26.584-4.477 23.155-17.99z" fill="#727272"/><path d="m469.154 287.913c-1.356-5.344-4.949-10.226-10.839-13.432-25.065-13.641-40.336-7.443-49.782-1.079-43.756 48.572-65.901 85.282-152.539 85.282-86.492 0-108.665-36.561-152.431-85.162-15.69-9.914-31.077-9.634-49.688.847-5.656 3.186-9.417 7.145-11.04 13.54l-12.319 48.531c-3.463 13.647 11.156 24.753 23.359 17.878 18.611-10.48 33.997-10.761 49.688-.847 43.759 48.594 65.9 85.162 152.431 85.162 86.309 0 108.396-36.281 152.539-85.282 9.446-6.364 24.717-12.562 49.782 1.079 12.136 6.606 26.652-4.218 23.063-18.357z" fill="#606060"/><path d="m322.957 290.14c-37.083-29.462-96.833-29.469-133.926 0-37.532 29.819-37.533 78.376 0 108.195 37.083 29.462 96.833 29.469 133.926 0 37.533-29.819 37.533-78.376 0-108.195z" fill="#999"/><g fill="#3d3c3c"><circle cx="215.331" cy="248.972" r="19.841"/><circle cx="296.658" cy="248.972" r="19.841"/><path d="m290.888 332.802-22.015-6.807 12.185-17.625c6.203-8.971-.219-21.218-11.126-21.218h-27.877c-10.907 0-17.328 12.247-11.126 21.218l12.185 17.625-22.015 6.807c-8.442 2.61-13.17 11.57-10.56 20.013s11.57 13.17 20.013 10.56l25.441-7.867c28.031 8.668 26.955 8.585 30.172 8.585 6.831 0 13.157-4.409 15.281-11.277 2.612-8.444-2.115-17.404-10.558-20.014z"/><path d="m16.009 299.138c-16.148.003-22.132-21.351-8.275-29.705 41.094-24.773 86.94-30.572 136.266-17.232 8.53 2.307 13.575 11.092 11.269 19.622-2.307 8.529-11.093 13.573-19.622 11.269-41.15-11.129-77.587-6.632-111.392 13.747-2.584 1.557-5.434 2.299-8.246 2.299z"/><path d="m67.894 413.878c-12.184 0-20.005-13.256-13.865-23.963 15.794-27.539 41.197-53.288 75.502-76.533 7.314-4.956 17.264-3.044 22.221 4.27 4.957 7.315 3.045 17.264-4.271 22.221-30.239 20.491-52.342 42.685-65.693 65.963-2.957 5.154-8.349 8.042-13.894 8.042z"/><path d="m495.979 299.138c-2.813.001-5.661-.741-8.245-2.299-33.806-20.379-70.243-24.875-111.392-13.747-8.532 2.304-17.315-2.738-19.622-11.269s2.738-17.315 11.269-19.622c49.327-13.338 95.172-7.54 136.266 17.231 13.834 8.341 7.905 29.706-8.276 29.706z"/><path d="m444.095 413.878c-5.546 0-10.937-2.887-13.894-8.043-13.352-23.278-35.454-45.472-65.693-65.963-7.315-4.957-9.228-14.905-4.271-22.221 4.958-7.315 14.906-9.23 22.221-4.27 34.305 23.245 59.708 48.994 75.502 76.533 6.142 10.71-1.688 23.964-13.865 23.964z"/></g></svg>