<svg id="Layer_1" enable-background="new 0 0 512.023 512.023" height="512" viewBox="0 0 512.023 512.023" width="512" xmlns="http://www.w3.org/2000/svg"><path d="m232.754 78.862-94.966-71.923c-22.345-16.922-54.428-.966-54.428 27.055v133.903c0 8.915 7.248 16 16 16 6.394 0-2.461 4.314 132.13-78.66 9.539-5.881 10.252-19.567 1.264-26.375z" fill="#3f3f3f"/><path d="m374.235 6.939-94.966 71.923c-8.934 6.767-8.333 20.458 1.264 26.375 134.432 82.875 125.66 78.66 132.13 78.66 8.75 0 16-7.085 16-16v-133.903c0-28.031-32.091-43.97-54.428-27.055z" fill="#3f3f3f"/><path d="m83.36 98.025v69.872c0 12.494 13.741 20.189 24.396 13.62l123.733-76.279c9.539-5.88 10.252-19.567 1.264-26.375l-52.482-39.748c-36.874 11.611-70.088 31.659-96.911 58.91z" fill="#494949"/><path d="m428.663 98.025c-26.799-27.226-60.003-47.288-96.911-58.91l-52.482 39.748c-8.934 6.767-8.333 20.458 1.264 26.375l123.733 76.279c10.635 6.558 24.396-1.104 24.396-13.62z" fill="#494949"/><path d="m256.012 298.464c-88.418 0-160.353 71.934-160.353 160.353v37.207c0 8.836 7.164 16 16 16h288.705c8.836 0 16-7.164 16-16v-37.207c0-88.419-71.934-160.353-160.352-160.353z" fill="#727272"/><path d="m416.119 450.013c-4.586-84.34-74.643-151.549-160.108-151.549s-155.52 67.209-160.107 151.549c94.212 60.434 223.07 62.316 320.215 0z" fill="#e0e0e0"/><path d="m406.032 402.199c-22.932-60.56-81.524-103.735-150.02-103.735s-127.088 43.175-150.02 103.735c119.393 92.821 180.479 92.951 300.04 0z" fill="#d3d1d1"/><path d="m392.261 114.284c-75.453-68.492-197.027-68.509-272.499 0-36.904 33.499-57.228 78.163-57.228 125.764 0 44.164 2.275 90.113 29.469 123.941 29.156 36.269 81.271 53.161 164.008 53.161s134.853-16.893 164.008-53.161c27.194-33.828 29.469-79.777 29.469-123.941.001-47.601-20.323-92.265-57.227-125.764z" fill="#e0e0e0"/><path d="m431.058 305.364h-61.382c-33.629 0-65.294-11.556-90.398-31.863-13.538-10.951-32.995-10.951-46.533 0-25.103 20.307-56.769 31.863-90.398 31.863h-61.381c-8.089 0-14.878-6.041-15.883-14.068-2.245-17.926-2.548-36.975-2.548-53.248 0-102.947 95.165-183.491 206.468-176.697h.009c99.395 6.041 180.479 81.547 180.479 176.697 0 16.273-.303 35.323-2.548 53.248-1.008 8.027-7.796 14.068-15.885 14.068z" fill="#3f3f3f"/><path d="m322.975 277.244c-37.083-29.462-96.833-29.469-133.926 0-37.532 29.819-37.533 78.376 0 108.195 37.083 29.462 96.833 29.469 133.926 0 37.532-29.818 37.533-78.375 0-108.195z" fill="#d3d1d1"/><g fill="#2d2d2d"><path d="m296.19 333.293h-15c-5.061 0-9.178-4.117-9.178-9.179v-2.15l9.064-13.111c6.203-8.971-.219-21.218-11.126-21.218h-27.877c-10.907 0-17.328 12.247-11.126 21.218l9.064 13.111v2.15c0 5.062-4.117 9.179-9.178 9.179h-15c-8.836 0-16 7.163-16 16s7.164 16 16 16c15.898 0 27.14 1.48 40.178-8.629 12.982 10.065 24.384 8.629 40.178 8.629 8.836 0 16-7.163 16-16s-7.163-16-15.999-16z"/><circle cx="188.745" cy="218.206" r="19.841"/><circle cx="323.279" cy="218.206" r="19.841"/><path d="m496.012 305.046h-131.892c-8.836 0-16-7.163-16-16s7.164-16 16-16h131.892c8.836 0 16 7.163 16 16s-7.164 16-16 16z"/><path d="m148.903 305.046h-132.891c-8.836 0-16-7.163-16-16s7.164-16 16-16h132.892c8.836 0 16 7.163 16 16s-7.164 16-16.001 16z"/><path d="m53.535 403.692c-15.877 0-22.086-20.804-8.689-29.446l82.667-53.336c7.425-4.791 17.329-2.655 22.119 4.77 4.791 7.426 2.655 17.329-4.77 22.119-88.805 57.295-84.66 55.893-91.327 55.893z"/><path d="m458.489 403.692c-6.705 0-2.622 1.338-91.326-55.894-7.425-4.79-9.561-14.693-4.77-22.119 4.791-7.424 14.693-9.559 22.119-4.77l82.667 53.336c13.395 8.642 7.188 29.447-8.69 29.447z"/></g></svg>