<svg id="Layer_1" enable-background="new 0 0 511.988 511.988" height="512" viewBox="0 0 511.988 511.988" width="512" xmlns="http://www.w3.org/2000/svg"><path d="m255.995 297.129c-88.418 0-160.353 71.934-160.353 160.353v37.207c0 8.836 7.164 16 16 16h288.705c8.836 0 16-7.164 16-16v-37.207c0-88.419-71.934-160.353-160.352-160.353z" fill="#dfb7a4"/><path d="m416.102 449.804c-4.586-84.34-74.643-151.549-160.108-151.549s-155.521 67.21-160.107 151.549c94.212 60.434 223.069 62.316 320.215 0z" fill="#e0c8bf"/><path d="m406.014 401.99c-22.932-60.56-81.524-103.735-150.02-103.735s-127.088 43.175-150.019 103.735c119.393 92.821 180.479 92.951 300.039 0z" fill="#e8d9d4"/><path d="m388.877 8.042-133.333 81.275-132.322-81.186c-32.863-20.163-74.317 7.242-68.629 45.383l31.327 210.057c1.837 12.316 16.391 17.814 25.927 10.047l143.606-116.918 143.605 116.918c9.562 7.788 24.034 2.221 25.914-9.968l32.388-209.931c5.891-38.181-35.542-65.754-68.483-45.677z" fill="#e0c8bf"/><path d="m378.63 14.288-123.086 75.029-122.238-75c-28.622 15.679-54.421 37.17-75.099 63.427l27.713 185.827c1.837 12.316 16.391 17.814 25.927 10.047l143.606-116.918 143.605 116.918c9.562 7.788 24.034 2.221 25.914-9.968l28.702-186.04c-20.759-26.323-46.564-47.729-75.044-63.322z" fill="#e8d9d4"/><path d="m405.258 75.91c-82.577-78.468-215.933-78.484-298.527 0-83.05 78.917-83.056 206.998 0 285.921 82.577 78.468 215.933 78.484 298.527 0 83.051-78.918 83.056-206.998 0-285.921z" fill="#e0e0e0"/><path d="m405.258 288.71c-82.577 78.468-215.933 78.484-298.527 0-30.93-29.39-51.137-66.286-58.786-106.4-23.742 124.504 76.077 238.335 208.05 238.335 131.703 0 231.837-113.593 208.05-238.335-7.65 40.114-27.858 77.01-58.787 106.4z" fill="#eaeaea"/><path d="m322.957 253.058c-37.083-29.462-96.833-29.469-133.926 0-37.532 29.819-37.533 78.376 0 108.195 37.083 29.462 96.833 29.469 133.926 0 37.533-29.818 37.533-78.376 0-108.195z" fill="#f9f9f9"/><g fill="#727272"><circle cx="209.522" cy="218.871" r="19.841"/><circle cx="309.707" cy="218.871" r="19.841"/><path d="m290.888 315.847-16.934-5.236 18.16-26.267c8.938-12.929-.316-30.577-16.033-30.577h-40.173c-15.718 0-24.972 17.648-16.033 30.577l18.16 26.267-16.934 5.236c-8.442 2.61-13.17 11.57-10.56 20.013 2.607 8.43 11.558 13.172 20.013 10.56l25.441-7.867 25.44 7.867c8.442 2.604 17.401-2.118 20.013-10.56 2.61-8.443-2.118-17.403-10.56-20.013z"/><path d="m16.01 291.4c-16.148.003-22.133-21.351-8.275-29.705 41.094-24.772 86.94-30.569 136.265-17.23 8.53 2.307 13.575 11.092 11.269 19.622-2.307 8.529-11.091 13.571-19.622 11.269-41.15-11.129-77.587-6.631-111.392 13.746-2.584 1.557-5.433 2.298-8.245 2.298z"/><path d="m67.894 406.141c-12.184 0-20.005-13.256-13.865-23.963 15.794-27.539 41.196-53.288 75.501-76.533 7.315-4.957 17.265-3.045 22.221 4.27 4.957 7.315 3.045 17.264-4.271 22.221-30.24 20.491-52.342 42.685-65.693 65.963-2.955 5.154-8.348 8.042-13.893 8.042z"/><path d="m495.979 291.4c-2.813.001-5.66-.741-8.244-2.299-33.806-20.378-70.244-24.872-111.393-13.746-8.528 2.303-17.314-2.737-19.622-11.269-2.307-8.53 2.738-17.315 11.269-19.622 49.326-13.338 95.172-7.54 136.266 17.23 13.834 8.341 7.905 29.706-8.276 29.706z"/><path d="m444.095 406.141c-5.546 0-10.937-2.887-13.894-8.043-13.352-23.278-35.454-45.472-65.694-65.963-7.315-4.957-9.227-14.905-4.27-22.221 4.955-7.314 14.904-9.226 22.221-4.27 34.305 23.245 59.707 48.995 75.501 76.533 6.143 10.711-1.686 23.964-13.864 23.964z"/></g></svg>