<svg id="Layer_1" enable-background="new 0 0 512.002 512.002" height="512" viewBox="0 0 512.002 512.002" width="512" xmlns="http://www.w3.org/2000/svg"><path d="m232.743 79.415-94.966-71.923c-22.344-16.922-54.427-.966-54.427 27.054v133.903c0 8.915 7.248 16 16 16 6.394 0-2.461 4.314 132.13-78.66 9.538-5.88 10.251-19.566 1.263-26.374z" fill="#dfb7a4"/><path d="m374.225 7.492-94.966 71.923c-8.934 6.767-8.333 20.458 1.264 26.375 134.432 82.875 125.66 78.66 132.13 78.66 8.75 0 16-7.085 16-16v-133.904c-.001-28.03-32.092-43.969-54.428-27.054z" fill="#dfb7a4"/><path d="m83.35 98.577v69.872c0 12.494 13.741 20.189 24.396 13.62l123.733-76.279c9.539-5.88 10.252-19.567 1.264-26.375l-52.482-39.748c-36.875 11.612-70.088 31.66-96.911 58.91z" fill="#c69a85"/><path d="m428.652 98.577c-26.799-27.226-60.003-47.288-96.911-58.91l-52.482 39.748c-8.934 6.767-8.333 20.458 1.264 26.375l123.733 76.279c10.635 6.558 24.396-1.104 24.396-13.62z" fill="#c69a85"/><path d="m256.001 297.89c-88.418 0-160.353 71.934-160.353 160.353v37.207c0 8.836 7.164 16 16 16h288.705c8.836 0 16-7.164 16-16v-37.207c.001-88.419-71.934-160.353-160.352-160.353z" fill="#e8d9d4"/><path d="m416.109 450.566c-4.586-84.34-74.643-151.549-160.108-151.549s-155.521 67.209-160.108 151.549c94.212 60.434 223.07 62.315 320.216 0z" fill="#e0c8bf"/><path d="m406.021 402.752c-22.932-60.56-81.524-103.735-150.02-103.735s-127.088 43.175-150.02 103.735c119.393 92.821 180.48 92.951 300.04 0z" fill="#dfb7a4"/><path d="m403.896 89.212c-77.558-58.682-218.114-58.772-295.791 0-88.859 67.23-80.781 197.92-1.368 273.381 82.577 78.468 215.933 78.484 298.527 0 79.437-75.484 87.464-206.171-1.368-273.381z" fill="#dfb7a4"/><path d="m405.265 292.723c-82.577 78.468-215.933 78.484-298.527 0-31.23-29.676-51.538-67.002-59.014-107.57-23.153 119.412 74.136 236.253 208.277 236.253 132.787 0 231.693-115.483 208.278-236.253-7.477 40.568-27.784 77.894-59.014 107.57z" fill="#c69a85"/><path d="m322.964 253.819c-37.083-29.462-96.833-29.469-133.926 0-37.532 29.819-37.533 78.376 0 108.195 17.925 14.241 41.706-16.31 66.963-16.31s49.038 30.551 66.963 16.31c37.532-29.818 37.533-78.375 0-108.195z" fill="#f9f9f9"/><g fill="#7f604b"><circle cx="187.438" cy="228.886" r="19.841"/><circle cx="324.564" cy="228.886" r="19.841"/><path d="m372.397 352.407c-6.837-5.6-16.918-4.596-22.517 2.239-5.882 7.182-14.569 11.3-23.835 11.3-24.457 0-45.159-16.333-51.802-38.662l17.877-25.857c8.938-12.929-.316-30.577-16.033-30.577h-40.173c-15.718 0-24.972 17.648-16.033 30.577l17.877 25.857c-10.419 35.022-55.864 51.505-75.637 27.362-5.599-6.834-15.679-7.841-22.517-2.239-6.836 5.6-7.839 15.68-2.239 22.517 30.6 37.36 90.235 26.624 118.636-13.142 28.401 39.767 88.036 50.501 118.636 13.142 5.599-6.837 4.596-16.917-2.24-22.517z"/><path d="m471.272 321.227-106.715-21.646c-8.658-1.754-17.104 3.84-18.861 12.5s3.84 17.104 12.5 18.861l106.715 21.646c8.662 1.758 17.105-3.843 18.861-12.5 1.757-8.66-3.839-17.105-12.5-18.861z"/><path d="m166.306 312.081c-1.757-8.66-10.196-14.259-18.861-12.5l-106.716 21.646c-8.66 1.757-14.257 10.201-12.5 18.861 1.539 7.587 8.211 12.822 15.664 12.822 2.319 0-6.78 1.702 109.912-21.968 8.661-1.757 14.258-10.201 12.501-18.861z"/><path d="m511.928 255.986c-.844-8.797-8.646-15.246-17.454-14.399l-124.224 11.913c-8.796.844-15.243 8.658-14.399 17.454.794 8.277 7.76 14.474 15.908 14.474 1.197 0-7.299.774 125.77-11.987 8.795-.844 15.242-8.659 14.399-17.455z"/><path d="m140.243 285.428c8.148 0 15.114-6.197 15.908-14.474.844-8.796-5.604-16.61-14.399-17.454l-124.224-11.913c-8.813-.846-16.61 5.604-17.454 14.399s5.604 16.61 14.399 17.454c132.993 12.754 124.573 11.988 125.77 11.988z"/></g></svg>