<svg id="Layer_1" enable-background="new 0 0 512.002 512.002" height="512" viewBox="0 0 512.002 512.002" width="512" xmlns="http://www.w3.org/2000/svg"><path d="m388.885 7.486-133.335 81.275-132.321-81.186c-32.888-20.18-74.312 7.272-68.629 45.383l31.328 210.057c1.837 12.316 16.391 17.814 25.927 10.047l143.605-116.918 143.604 116.918c9.56 7.783 24.034 2.226 25.915-9.968l32.389-209.931c5.889-38.174-35.539-65.759-68.483-45.677z" fill="#606060"/><path d="m400.354 511.259h-288.706c-8.334 0-16.124-6.482-15.99-16.884.129-10.606-9-18.972-19.557-18.093l-23.873 1.965c-16.566 1.381-23.95-20.49-9.914-29.437 15.268-9.734 24.332-24.259 28.523-45.711.392-2.002-.382-4.03-1.971-5.165-18.679-13.294-34.901-19.086-44.535-15.912-15.944 5.252-29.052-11.258-17.981-26.11 10.169-13.643 31.697-52.389 61.656-158.619 19.88-74.851 93.946-135.113 187.995-135.113 94.032 0 168.104 60.221 187.994 135.113 29.958 106.23 51.487 144.976 61.656 158.619 11.052 14.828-2.014 31.371-17.981 26.11-9.637-3.173-25.857 2.619-44.502 15.889-1.621 1.158-2.395 3.185-2.003 5.187 4.191 21.452 13.255 35.977 28.523 45.711 14.014 8.934 6.673 30.818-9.914 29.437l-23.873-1.965c-10.606-.875-19.685 7.516-19.556 18.115.129 10.302-7.585 16.863-15.991 16.863zm80.064-135.65h.01z" fill="#e0c8bf"/><path d="m443.995 197.294c-19.879-74.852-93.945-135.114-187.994-135.114-94.032 0-168.104 60.221-187.994 135.113-21.503 76.246-38.662 117.725-50.396 140.112 8.868 17.655 20.16 34.397 33.734 49.895 5.478 2.7 11.362 6.25 17.522 10.634 3.008 2.149 1.982 5.333 1.232 8.618 103.251 95.695 267.122 97.038 371.803 0-.785-3.435-1.768-6.475 1.264-8.641 6.147-4.375 12.022-7.918 17.492-10.615 13.573-15.497 24.864-32.239 33.731-49.892-11.732-22.385-28.891-63.865-50.394-140.11z" fill="#dfb7a4"/><path d="m336.703 39.294-81.153 49.467-80.491-49.386c-45.742 15.488-84.063 43.631-110.727 78.842l21.595 144.797c1.837 12.316 16.391 17.814 25.927 10.047l143.605-116.918 143.604 116.918c9.56 7.783 24.034 2.226 25.915-9.968l22.409-145.249c-26.523-34.866-64.717-63.039-110.684-78.55z" fill="#727272"/><path d="m392.25 113.519c-75.453-68.492-197.027-68.509-272.499 0-74.796 67.895-78.319 180.232 1.287 251.595 75.18 67.395 192.835 69.109 269.926 0 79.541-71.305 76.151-183.637 1.286-251.595z" fill="#dfb7a4"/><path d="m121.038 308.963c-30.228-27.098-49.563-61.169-56.065-97.975-19.468 111.818 79.035 205.398 191.027 205.398 111.355 0 210.597-92.996 191.027-205.398-23.79 134.691-208.868 202.968-325.989 97.975z" fill="#e0c8bf"/><path d="m345.177 172.945c-49.385-44.829-128.955-44.84-178.352 0-48.954 44.438-51.261 117.963.842 164.67 23.79 21.326 55.987 2.1 88.334 2.1s64.544 19.227 88.334-2.1c52.06-46.668 49.842-120.191.842-164.67z" fill="#727272"/><path d="m311.495 277.251c-14.855-11.802-34.563-11.145-55.494-11.145s-40.64-.657-55.494 11.145c-31.104 24.712-31.105 64.953 0 89.665 14.855 11.802 34.563-27.2 55.494-27.2s40.64 39.002 55.494 27.2c31.105-24.712 31.105-64.953 0-89.665z" fill="#f9f9f9"/><g fill="#3d3c3c"><circle cx="187.438" cy="227.569" r="19.841"/><circle cx="324.564" cy="227.569" r="19.841"/><path d="m358.491 337.977c-6.837-5.601-16.917-4.597-22.517 2.239-15.985 19.516-53.418 5.972-62.088-22.969l18.234-26.374c8.938-12.929-.316-30.577-16.033-30.577h-40.173c-15.718 0-24.972 17.648-16.033 30.577l18.234 26.374c-8.753 29.217-46.307 42.236-62.088 22.969-5.599-6.835-15.679-7.84-22.517-2.239-6.836 5.599-7.839 15.68-2.239 22.517 26.953 32.906 78.743 24.441 104.729-9.234 25.985 33.674 77.776 42.141 104.729 9.234 5.601-6.838 4.598-16.919-2.238-22.517z"/><path d="m471.272 319.909-106.715-21.646c-8.654-1.754-17.104 3.84-18.861 12.5s3.84 17.104 12.5 18.861l106.715 21.646c8.662 1.758 17.105-3.843 18.861-12.5 1.757-8.66-3.839-17.104-12.5-18.861z"/><path d="m166.306 310.764c-1.757-8.66-10.2-14.259-18.861-12.5l-106.716 21.645c-8.66 1.757-14.257 10.201-12.5 18.861 1.539 7.587 8.211 12.822 15.664 12.822 2.319 0-6.78 1.702 109.912-21.968 8.661-1.756 14.258-10.2 12.501-18.86z"/><path d="m511.928 254.669c-.844-8.797-8.645-15.246-17.454-14.399l-124.224 11.913c-8.796.844-15.243 8.658-14.399 17.454.794 8.277 7.76 14.474 15.908 14.474 1.197 0-7.299.774 125.77-11.987 8.795-.845 15.242-8.659 14.399-17.455z"/><path d="m140.243 284.11c8.148 0 15.114-6.197 15.908-14.474.844-8.796-5.604-16.61-14.399-17.454l-124.224-11.912c-8.812-.846-16.61 5.604-17.454 14.399-.844 8.796 5.604 16.61 14.399 17.454 132.993 12.754 124.573 11.987 125.77 11.987z"/></g></svg>