<svg id="Layer_1" enable-background="new 0 0 512.007 512.007" height="512" viewBox="0 0 512.007 512.007" width="512" xmlns="http://www.w3.org/2000/svg"><path d="m256.004 297.9c-88.418 0-160.353 71.934-160.353 160.353v37.207c0 8.836 7.164 16 16 16h288.705c8.836 0 16-7.164 16-16v-37.207c0-88.419-71.934-160.353-160.352-160.353z" fill="#f9bf98"/><path d="m416.111 449.448c-4.586-84.34-74.643-151.549-160.108-151.549s-155.52 67.21-160.107 151.549c94.212 60.434 223.07 62.316 320.215 0z" fill="#f9b78a"/><path d="m406.024 401.634c-22.932-60.56-81.524-103.735-150.02-103.735s-127.088 43.175-150.02 103.735c119.393 92.821 180.479 92.951 300.04 0z" fill="#fdaa6a"/><path d="m231.453 76.288-114.375-70.176c-26.8-16.439-60.543 5.925-55.913 36.974l22.362 149.939c1.837 12.316 16.391 17.814 25.927 10.047l123.733-100.738c8.518-6.937 7.686-20.265-1.734-26.046z" fill="#fdaa6a"/><path d="m395.795 6.042-115.201 70.221c-9.411 5.737-10.343 19.093-1.774 26.07l123.733 100.739c9.562 7.781 24.034 2.225 25.915-9.969l23.119-149.851c4.799-31.105-28.955-53.567-55.792-37.21z" fill="#fdaa6a"/><path d="m72.48 118.953 11.047 74.072c1.826 12.244 16.324 17.869 25.927 10.047l123.733-100.738c8.517-6.936 7.685-20.265-1.734-26.046l-59.891-36.746c-38.782 18.102-73.996 46.564-99.082 79.411z" fill="#f0a567"/><path d="m428.468 193.104 11.376-73.735c-24.843-32.678-59.996-61.391-99.176-79.725l-60.074 36.619c-9.411 5.737-10.343 19.093-1.774 26.07l123.733 100.739c9.562 7.782 24.034 2.226 25.915-9.968z" fill="#f0a567"/><path d="m256.004 61.254c-80.94 0-183.478 79.838-183.478 177.103 0 54.583 40.885 102.346 85.096 134.286 39.778 68.651 147.316 71.164 190.826 4.177 46.852-32.198 91.033-81.691 91.033-138.463 0-95.108-100.19-177.103-183.477-177.103z" fill="#fdaa6a"/><path d="m348.448 301.693c-43.535 67.025-151.066 64.443-190.826-4.177-34.142-24.665-66.535-58.781-79.404-99.064-3.749 13.084-5.692 26.455-5.692 39.905 0 54.583 40.885 102.346 85.096 134.286 39.778 68.651 147.316 71.164 190.826 4.177 46.852-32.198 91.033-81.691 91.033-138.463 0-13.45-1.942-26.82-5.692-39.905-13.489 42.225-48.515 77.932-85.341 103.241z" fill="#f0a567"/><path d="m322.967 274.6c-37.083-29.462-96.833-29.469-133.926 0-37.532 29.819-37.533 78.376 0 108.195 37.083 29.462 96.833 29.469 133.926 0 37.532-29.818 37.533-78.375 0-108.195z" fill="#f9bf98"/><g fill="#7f604b"><path d="m215.204 456.461h-10.824c-8.836 0-16 7.163-16 16s7.164 16 16 16h10.824c8.836 0 16-7.163 16-16s-7.163-16-16-16z"/><path d="m307.627 456.461h-10.824c-8.836 0-16 7.163-16 16s7.164 16 16 16h10.824c8.836 0 16-7.163 16-16s-7.163-16-16-16z"/><circle cx="212.499" cy="240.424" r="19.841"/><circle cx="299.509" cy="240.424" r="19.841"/><path d="m286.176 365.988c6.831 0 13.157-4.409 15.281-11.277 2.611-8.441-2.117-17.401-10.559-20.013l-18.895-5.843v-18.966l9.064-13.111c6.203-8.971-.219-21.218-11.126-21.218h-27.877c-10.907 0-17.328 12.247-11.126 21.218l9.064 13.111v18.966l-18.895 5.843c-8.442 2.611-13.169 11.571-10.559 20.013s11.571 13.168 20.013 10.56l25.44-7.867c28.034 8.667 26.958 8.584 30.175 8.584z"/><path d="m149.568 425.375-28.472-10.082c-8.331-2.954-17.474 1.412-20.423 9.741-2.949 8.33 1.412 17.474 9.742 20.423l28.472 10.082c8.315 2.947 17.47-1.402 20.423-9.741 2.949-8.33-1.412-17.474-9.742-20.423z"/><path d="m388.637 415.293-28.472 10.082c-8.33 2.949-12.691 12.093-9.742 20.423 2.966 8.374 12.141 12.678 20.423 9.741l28.472-10.082c8.33-2.949 12.691-12.093 9.742-20.423-2.95-8.33-12.093-12.692-20.423-9.741z"/><path d="m511.573 200.021c-2.037-8.6-10.662-13.922-19.257-11.882l-124.224 29.423c-8.599 2.037-13.918 10.658-11.882 19.257 1.743 7.359 8.309 12.316 15.556 12.316 2.695 0-7.953 2.326 127.925-29.857 8.599-2.037 13.919-10.658 11.882-19.257z"/><path d="m471.275 289.931-106.714-21.646c-8.662-1.757-17.105 3.84-18.861 12.5-1.757 8.66 3.84 17.104 12.5 18.861l106.714 21.646c8.662 1.758 17.105-3.843 18.861-12.5 1.757-8.659-3.84-17.104-12.5-18.861z"/><path d="m140.241 249.136c7.247 0 13.813-4.958 15.556-12.316 2.037-8.599-3.283-17.22-11.882-19.257l-124.224-29.424c-8.6-2.036-17.22 3.284-19.257 11.882-2.037 8.599 3.283 17.22 11.882 19.257 135.543 32.104 125.202 29.858 127.925 29.858z"/><path d="m147.447 268.285-106.715 21.646c-8.66 1.757-14.257 10.201-12.5 18.861 1.761 8.68 10.223 14.254 18.861 12.5l106.714-21.646c8.66-1.757 14.257-10.201 12.5-18.861-1.755-8.659-10.197-14.256-18.86-12.5z"/><path d="m256.004 148.846c8.836 0 16-7.163 16-16v-51.592c0-8.837-7.164-16-16-16s-16 7.163-16 16v51.593c0 8.836 7.163 15.999 16 15.999z"/><path d="m256.004 200.087c8.836 0 16-7.163 16-16v-9.999c0-8.837-7.164-16-16-16s-16 7.163-16 16v9.999c0 8.837 7.163 16 16 16z"/><path d="m202.578 180.219c8.836 0 16-7.163 16-16v-67.921c0-8.837-7.164-16-16-16s-16 7.163-16 16v67.921c0 8.836 7.164 16 16 16z"/><path d="m309.429 80.298c-8.836 0-16 7.163-16 16v67.921c0 8.837 7.164 16 16 16s16-7.163 16-16v-67.921c0-8.837-7.163-16-16-16z"/></g></svg>