<svg id="Layer_1" enable-background="new 0 0 512.002 512.002" height="512" viewBox="0 0 512.002 512.002" width="512" xmlns="http://www.w3.org/2000/svg"><path d="m256.001 297.792c-88.418 0-160.353 71.934-160.353 160.353v37.207c0 8.836 7.164 16 16 16h288.705c8.836 0 16-7.164 16-16v-37.207c.001-88.419-71.934-160.353-160.352-160.353z" fill="#e8d9d4"/><path d="m416.109 450.665c-4.586-84.34-74.643-151.549-160.108-151.549s-155.521 67.209-160.108 151.549c94.212 60.433 223.07 62.315 320.216 0z" fill="#e8d9d4"/><path d="m406.021 402.851c-22.932-60.56-81.524-103.735-150.02-103.735s-127.088 43.175-150.02 103.735c119.393 92.821 180.48 92.95 300.04 0z" fill="#e0c8bf"/><path d="m488.952 33.399c-6.871-27.992-38.86-41.439-63.765-26.69l-169.186 100.215-169.187-100.216c-24.881-14.736-56.889-1.322-63.764 26.691-24.796 101.043 21.77 191.79 86.899 271.875 6.557 8.065 18.925 7.816 25.172-.44l120.879-159.757 120.88 159.757c6.256 8.268 18.622 8.496 25.172.44 65.115-80.066 111.7-170.82 86.9-271.875z" fill="#e0c8bf"/><path d="m340.667 56.773-84.666 50.151-84.667-50.151c-60.026 26.669-113.86 77.174-129.912 141.545 15.381 34.155 37.959 69.368 68.527 106.955 6.557 8.065 18.925 7.816 25.172-.44l120.879-159.757 120.88 159.757c6.256 8.268 18.622 8.496 25.172.44 30.569-37.588 53.146-72.8 68.527-106.955-16.035-64.309-69.837-114.854-129.912-141.545z" fill="#d3bbb4"/><path d="m424.874 241.552c0-87.793-95.091-154.301-168.873-154.301-73.486 0-168.873 66.204-168.873 154.301 0 45.839 35.118 84.307 67.914 110.233 8.205 50.605 47.532 71.269 99.42 71.269 62.112 0 91.418-28.806 98.932-68.49 33.761-25.916 71.48-65.507 71.48-113.012z" fill="#e0c8bf"/><path d="m353.393 298.484c-7.515 39.692-36.828 68.49-98.932 68.49-51.883 0-91.214-20.662-99.42-71.269-26.408-20.876-54.307-49.889-64.179-84.329-2.465 9.875-3.735 19.968-3.735 30.176 0 45.839 35.118 84.307 67.914 110.233 8.205 50.605 47.532 71.269 99.42 71.269 62.112 0 91.418-28.806 98.932-68.49 33.762-25.917 71.481-65.507 71.481-113.012 0-10.198-1.267-20.283-3.728-30.149-10.324 35.985-40.342 66.04-67.753 87.081z" fill="#d3bbb4"/><path d="m314.191 298.167c-32.225-25.602-84.147-25.608-116.38 0-32.615 25.912-32.616 68.108 0 94.02 32.225 25.602 84.147 25.608 116.38 0 32.615-25.912 32.616-68.108 0-94.02z" fill="#e8d9d4"/><g fill="#b29083"><path d="m230.938 324.413 7.025 10.161-16.855 5.212c-8.442 2.611-13.169 11.571-10.559 20.013 2.124 6.868 8.45 11.277 15.281 11.277 3.221 0 2.248.05 30.172-8.585l25.439 7.867c8.448 2.607 17.402-2.117 20.014-10.559 2.61-8.442-2.117-17.402-10.559-20.014l-16.855-5.212 7.025-10.161c6.203-8.971-.219-21.218-11.126-21.218h-27.877c-10.906.001-17.328 12.248-11.125 21.219z"/><circle cx="209.28" cy="265.25" r="19.841"/><circle cx="302.724" cy="265.25" r="19.841"/><path d="m67.901 385.804c-12.184 0-20.005-13.256-13.865-23.963 15.794-27.539 41.196-53.288 75.501-76.533 7.315-4.957 17.265-3.045 22.221 4.27 4.957 7.315 3.045 17.264-4.271 22.221-30.24 20.491-52.342 42.685-65.693 65.963-2.956 5.154-8.348 8.042-13.893 8.042z"/><path d="m443.102 385.804c-5.546 0-10.937-2.887-13.894-8.043-13.352-23.278-35.454-45.472-65.694-65.963-7.315-4.957-9.227-14.905-4.27-22.221 4.956-7.314 14.905-9.226 22.221-4.27 34.305 23.245 59.707 48.995 75.501 76.533 6.143 10.71-1.687 23.964-13.864 23.964z"/><path d="m371.759 274.329c-8.148 0-15.114-6.196-15.908-14.474-.844-8.796 5.604-16.61 14.399-17.454l124.224-11.913c8.807-.84 16.61 5.604 17.454 14.399s-5.604 16.61-14.399 17.454c-132.993 12.755-124.574 11.988-125.77 11.988z"/><path d="m140.244 274.329c-1.197 0 7.299.774-125.77-11.987-8.796-.844-15.243-8.658-14.399-17.454.843-8.796 8.658-15.238 17.454-14.399l124.224 11.913c8.796.844 15.243 8.658 14.399 17.454-.794 8.276-7.761 14.473-15.908 14.473z"/></g></svg>