<svg id="Layer_1" enable-background="new 0 0 512.002 512.002" height="512" viewBox="0 0 512.002 512.002" width="512" xmlns="http://www.w3.org/2000/svg"><path d="m231.451 76.849-114.376-70.176c-26.8-16.439-60.543 5.925-55.913 36.974l22.362 149.939c1.837 12.316 16.391 17.814 25.927 10.047l123.733-100.738c8.518-6.937 7.686-20.265-1.733-26.046z" fill="#727272"/><path d="m395.792 6.603-115.201 70.221c-9.411 5.737-10.343 19.093-1.774 26.07l123.733 100.74c9.562 7.781 24.034 2.225 25.915-9.969l23.119-149.851c4.799-31.107-28.955-53.569-55.792-37.211z" fill="#727272"/><path d="m72.477 119.514 11.047 74.072c1.826 12.244 16.324 17.869 25.927 10.047l123.733-100.738c8.517-6.936 7.685-20.265-1.734-26.046l-59.89-36.746c-38.783 18.101-73.997 46.564-99.083 79.411z" fill="#606060"/><path d="m428.465 193.665 11.376-73.735c-24.843-32.678-59.996-61.391-99.176-79.725l-60.074 36.619c-9.411 5.737-10.343 19.093-1.774 26.07l123.733 100.74c9.562 7.781 24.034 2.225 25.915-9.969z" fill="#606060"/><path d="m256.001 297.333c-88.418 0-160.353 71.934-160.353 160.353v37.207c0 8.836 7.164 16 16 16h288.705c8.836 0 16-7.164 16-16v-37.207c.001-88.418-71.934-160.353-160.352-160.353z" fill="#727272"/><path d="m416.109 450.009c-4.586-84.34-74.643-151.549-160.108-151.549s-155.521 67.21-160.108 151.549c94.212 60.434 223.07 62.316 320.216 0z" fill="#606060"/><path d="m406.021 402.195c-22.932-60.56-81.524-103.735-150.02-103.735s-127.088 43.175-150.02 103.735c119.393 92.821 180.48 92.951 300.04 0z" fill="#3f3f3f"/><path d="m422.514 159.702c-32.67-54.545-104.58-87.668-166.553-87.668-78.288 0-186.737 54.872-186.737 157.899 0 50.458 18.703 97.369 52.663 132.093 71.687 73.298 196.502 73.344 267.731-.044 51.021-52.567 69.795-140.674 32.896-202.28z" fill="#727272"/><path d="m389.618 300.826c-100.498 103.543-291.342 56.258-317.61-98.771-1.816 8.861-2.785 18.155-2.785 27.879 0 104.105 79.341 186.986 186.737 186.986 106.107 0 185.817-81.567 185.817-186.986 0-9.528-.925-18.823-2.76-27.852-6.307 37.593-23.3 71.855-49.399 98.744z" fill="#606060"/><path d="m314.191 291.332c-32.225-25.602-84.147-25.608-116.38 0-32.615 25.912-32.616 68.108 0 94.02 15.576 12.375 36.242-47.01 58.19-47.01s42.614 59.385 58.19 47.01c32.615-25.912 32.616-68.108 0-94.02z" fill="#999"/><g fill="#2d2d2d"><circle cx="187.438" cy="228.33" r="19.841"/><circle cx="324.564" cy="228.33" r="19.841"/><path d="m372.397 346.851c-6.837-5.6-16.918-4.596-22.517 2.239-5.882 7.182-14.569 11.3-23.835 11.3-25.232 0-46.476-17.383-52.397-40.8l18.473-26.719c8.938-12.929-.316-30.577-16.033-30.577h-40.173c-15.718 0-24.972 17.648-16.033 30.577l18.473 26.719c-9.391 37.137-56.438 53.669-76.232 29.5-5.599-6.834-15.679-7.84-22.517-2.239-6.836 5.6-7.839 15.68-2.239 22.517 30.6 37.36 90.235 26.624 118.636-13.142 28.401 39.767 88.036 50.501 118.636 13.142 5.597-6.838 4.594-16.918-2.242-22.517z"/><path d="m511.928 255.43c-.844-8.797-8.646-15.244-17.454-14.399l-124.224 11.912c-8.796.844-15.243 8.658-14.399 17.454.794 8.277 7.76 14.474 15.908 14.474 1.197 0-7.299.774 125.77-11.987 8.795-.844 15.242-8.658 14.399-17.454z"/><path d="m140.243 284.871c8.148 0 15.114-6.197 15.908-14.474.844-8.796-5.604-16.61-14.399-17.454l-124.224-11.913c-8.813-.844-16.61 5.604-17.454 14.399s5.604 16.61 14.399 17.454c132.993 12.755 124.573 11.988 125.77 11.988z"/><path d="m151.758 304.181c-4.957-7.315-14.905-9.227-22.221-4.27-34.305 23.245-59.707 48.995-75.501 76.533-6.143 10.71 1.687 23.963 13.864 23.963 5.545 0 10.938-2.888 13.894-8.043 13.352-23.278 35.454-45.472 65.694-65.963 7.316-4.957 9.227-14.905 4.27-22.22z"/><path d="m381.465 299.911c-7.315-4.956-17.265-3.045-22.221 4.27-4.957 7.315-3.046 17.264 4.27 22.221 30.24 20.491 52.343 42.685 65.694 65.963 2.957 5.156 8.348 8.043 13.894 8.043 12.185 0 20.005-13.256 13.864-23.963-15.794-27.539-41.196-53.289-75.501-76.534z"/></g></svg>