<svg id="Layer_1" enable-background="new 0 0 512.023 512.023" height="512" viewBox="0 0 512.023 512.023" width="512" xmlns="http://www.w3.org/2000/svg"><path d="m232.754 78.862-94.966-71.923c-22.345-16.922-54.428-.966-54.428 27.055v133.903c0 8.915 7.248 16 16 16 6.394 0-2.461 4.314 132.13-78.66 9.539-5.881 10.252-19.567 1.264-26.375z" fill="#7c7c7c"/><path d="m374.235 6.939-94.966 71.923c-8.934 6.767-8.333 20.458 1.264 26.375 134.432 82.875 125.66 78.66 132.13 78.66 8.75 0 16-7.085 16-16v-133.903c0-28.031-32.091-43.97-54.428-27.055z" fill="#7c7c7c"/><path d="m83.36 98.025v69.872c0 12.494 13.741 20.189 24.396 13.62l123.733-76.279c9.539-5.88 10.252-19.567 1.264-26.375l-52.482-39.748c-36.874 11.611-70.088 31.659-96.911 58.91z" fill="#727272"/><path d="m428.663 98.025c-26.799-27.226-60.003-47.288-96.911-58.91l-52.482 39.748c-8.934 6.767-8.333 20.458 1.264 26.375l123.733 76.279c10.635 6.558 24.396-1.104 24.396-13.62z" fill="#727272"/><path d="m256.012 298.464c-88.418 0-160.353 71.934-160.353 160.353v37.207c0 8.836 7.164 16 16 16h288.705c8.836 0 16-7.164 16-16v-37.207c0-88.419-71.934-160.353-160.352-160.353z" fill="#727272"/><path d="m416.119 450.013c-4.586-84.34-74.643-151.549-160.108-151.549s-155.52 67.209-160.107 151.549c94.212 60.434 223.07 62.316 320.215 0z" fill="#7c7c7c"/><path d="m406.032 402.199c-22.932-60.56-81.524-103.735-150.02-103.735s-127.088 43.175-150.02 103.735c86.059 66.906 213.427 67.336 300.04 0z" fill="#80b9ed"/><path d="m102.793 415.909c50.677 33.868 116.347 57.177 140.356 89.631 6.39 8.638 19.334 8.639 25.725 0 39.705-53.666 187.995-80.767 211.314-176.675 9.654-39.705-3.322-84.703-39.672-137.564-3.727-5.418-10.388-8.006-16.794-6.522l-167.711 38.847-167.71-38.848c-6.536-1.513-13.334 1.215-17.006 6.838-59.539 91.157-58.355 164.243 31.498 224.293" fill="#606060"/><path d="m392.262 114.284c-75.454-68.492-197.027-68.509-272.5 0-36.903 33.5-57.228 78.163-57.228 125.764 0 97.971 143.985 177.103 193.478 177.103 49.43 0 193.478-79.034 193.478-177.103-.001-47.601-20.325-92.265-57.228-125.764z" fill="#7c7c7c"/><path d="m256.012 360.999c-43.675 0-169.365-65.023-190.461-152.359-1.992 10.262-3.016 20.76-3.016 31.408 0 97.971 143.985 177.103 193.478 177.103 49.43 0 193.478-79.034 193.478-177.103 0-10.648-1.024-21.146-3.016-31.408-20.852 86.315-145.732 152.359-190.463 152.359z" fill="#727272"/><path d="m311.506 268.063c-30.732-24.416-80.249-24.422-110.989 0-31.104 24.712-31.105 64.953 0 89.665 30.732 24.416 80.249 24.422 110.989 0 31.104-24.712 31.105-64.953 0-89.665z" fill="#eaeaea"/><g fill="#3d3c3c"><circle cx="188.745" cy="220.206" r="19.841"/><circle cx="323.279" cy="220.206" r="19.841"/><path d="m511.938 255.433c-.844-8.797-8.659-15.24-17.454-14.399l-124.224 11.913c-8.796.843-15.243 8.658-14.399 17.454.794 8.277 7.76 14.474 15.908 14.474 1.197 0-7.299.774 125.77-11.987 8.796-.844 15.243-8.658 14.399-17.455z"/><path d="m474.701 348.447-106.715-48.313c-8.046-3.646-17.529-.074-21.175 7.977-3.645 8.05-.073 17.53 7.978 21.175l106.715 48.313c8.047 3.646 17.53.073 21.175-7.977 3.644-8.051.073-17.531-7.978-21.175z"/><path d="m140.254 284.875c8.148 0 15.114-6.197 15.908-14.474.844-8.796-5.604-16.611-14.399-17.454l-124.224-11.913c-8.791-.84-16.61 5.604-17.454 14.399-.844 8.796 5.604 16.611 14.399 17.454 132.992 12.755 124.574 11.988 125.77 11.988z"/><path d="m144.037 300.133-106.715 48.314c-8.051 3.645-11.622 13.125-7.978 21.175 3.645 8.05 13.126 11.621 21.175 7.977l106.715-48.313c8.051-3.645 11.622-13.125 7.978-21.175-3.645-8.051-13.123-11.623-21.175-7.978z"/><path d="m290.905 322.055-18.894-5.843v-18.967l9.064-13.111c6.203-8.972-.219-21.218-11.126-21.218h-27.877c-10.907 0-17.328 12.246-11.126 21.218l9.064 13.111v18.967l-18.894 5.843c-8.442 2.61-13.17 11.57-10.56 20.013 2.611 8.441 11.571 13.171 20.013 10.559l25.44-7.867c28.029 8.667 26.955 8.585 30.172 8.585 6.83-.001 13.157-4.41 15.281-11.277 2.613-8.443-2.114-17.403-10.557-20.013z"/><path d="m256.012 198.503c8.837 0 16-7.164 16-16v-103.558c0-8.836-7.163-16-16-16s-16 7.164-16 16v103.559c0 8.836 7.163 15.999 16 15.999z"/><path d="m188.744 163.211c8.837 0 16-7.164 16-16v-54.086c0-8.836-7.163-16-16-16s-16 7.164-16 16v54.085c0 8.837 7.163 16.001 16 16.001z"/><path d="m323.279 163.211c8.837 0 16-7.164 16-16v-54.086c0-8.836-7.163-16-16-16s-16 7.164-16 16v54.085c0 8.837 7.163 16.001 16 16.001z"/></g></svg>