<svg id="Layer_1" enable-background="new 0 0 512.023 512.023" height="512" viewBox="0 0 512.023 512.023" width="512" xmlns="http://www.w3.org/2000/svg"><path d="m232.754 78.862-94.966-71.923c-22.345-16.922-54.428-.966-54.428 27.055v133.903c0 8.915 7.248 16 16 16 6.394 0-2.461 4.314 132.13-78.66 9.539-5.881 10.252-19.567 1.264-26.375z" fill="#727272"/><path d="m374.235 6.939-94.966 71.923c-8.934 6.767-8.333 20.458 1.264 26.375 134.432 82.875 125.66 78.66 132.13 78.66 8.75 0 16-7.085 16-16v-133.903c0-28.031-32.091-43.97-54.428-27.055z" fill="#727272"/><path d="m83.36 98.025v69.872c0 12.494 13.741 20.189 24.396 13.62l123.733-76.279c9.539-5.88 10.252-19.567 1.264-26.375l-52.482-39.748c-36.874 11.611-70.088 31.659-96.911 58.91z" fill="#606060"/><path d="m428.663 98.025c-26.799-27.226-60.003-47.288-96.911-58.91l-52.482 39.748c-8.934 6.767-8.333 20.458 1.264 26.375l123.733 76.279c10.635 6.558 24.396-1.104 24.396-13.62z" fill="#606060"/><path d="m256.012 298.464c-88.418 0-160.353 71.934-160.353 160.353v37.207c0 8.836 7.164 16 16 16h288.705c8.836 0 16-7.164 16-16v-37.207c0-88.419-71.934-160.353-160.352-160.353z" fill="#727272"/><path d="m416.119 450.013c-4.586-84.34-74.643-151.549-160.108-151.549s-155.52 67.209-160.107 151.549c94.212 60.434 223.07 62.316 320.215 0z" fill="#999"/><path d="m406.032 402.199c-22.932-60.56-81.524-103.735-150.02-103.735s-127.088 43.175-150.02 103.735c119.393 92.821 180.479 92.951 300.04 0z" fill="#e0e0e0"/><path d="m387.731 114.728c-69.697-68.605-192.679-69.652-263.439 0-33.376 32.854-51.758 77.36-51.758 125.319 0 54.688 40.76 102.18 84.999 134.217 39.49 68.509 147.651 71.383 191.028 4.19 29.544-20.398 90.928-70.926 90.928-138.407 0-47.958-18.382-92.464-51.758-125.319z" fill="#727272"/><path d="m386.942 333.303c-.811-34.184-22.635-64.204-54.842-75.695-26.814-9.567-48.786-28.813-61.867-54.192-5.946-11.535-22.492-11.546-28.443 0-12.909 25.045-34.548 44.17-60.928 53.852-32.636 11.978-54.178 43.686-53.605 78.891.005 6.215-.812 12.321 5.245 17.823 7.767 7.057 16.174 13.869 25.031 20.283 39.485 68.502 147.644 71.388 191.025 4.196 11.977-8.249 23.162-17.191 33.289-26.615 5.562-5.179 5.27-10.953 5.095-18.543z" fill="#f9f9f9"/><g fill="#2d2d2d"><circle cx="182.837" cy="216.745" r="19.841"/><circle cx="329.187" cy="216.745" r="19.841"/><path d="m290.906 336.39-18.895-5.843v-18.965l9.064-13.11c6.203-8.972-.219-21.218-11.126-21.218h-27.877c-10.907 0-17.328 12.247-11.126 21.218l9.064 13.11v18.965l-18.895 5.843c-8.441 2.611-13.169 11.571-10.559 20.014 2.611 8.441 11.571 13.167 20.014 10.559l25.439-7.867c27.975 8.651 26.948 8.585 30.172 8.585 6.83 0 13.157-4.409 15.281-11.276 2.613-8.444-2.114-17.404-10.556-20.015z"/><path d="m371.769 270.132c-8.148 0-15.114-6.196-15.908-14.474-.844-8.796 5.604-16.61 14.399-17.454l124.224-11.913c8.81-.854 16.61 5.604 17.454 14.399s-5.604 16.61-14.399 17.454c-132.992 12.754-124.574 11.988-125.77 11.988z"/><path d="m468.093 387.172c-4.898 0 2.883 2.86-113.304-49.741-8.051-3.645-11.622-13.125-7.978-21.175 3.646-8.051 13.129-11.62 21.175-7.978l106.715 48.313c15.602 7.063 10.576 30.581-6.608 30.581z"/><path d="m140.254 270.132c-1.197 0 7.299.774-125.77-11.987-8.796-.844-15.243-8.658-14.399-17.454.844-8.795 8.643-15.253 17.454-14.399l124.224 11.913c8.796.844 15.243 8.658 14.399 17.454-.794 8.275-7.76 14.473-15.908 14.473z"/><path d="m43.931 387.172c-17.19 0-22.203-23.521-6.608-30.58l106.715-48.313c8.052-3.644 17.53-.072 21.175 7.978s.073 17.53-7.978 21.175c-116.155 52.586-108.398 49.74-113.304 49.74z"/></g></svg>