<svg id="Layer_1" enable-background="new 0 0 512.023 512.023" height="512" viewBox="0 0 512.023 512.023" width="512" xmlns="http://www.w3.org/2000/svg"><path d="m256.012 298.464c-88.418 0-160.353 71.934-160.353 160.353v37.207c0 8.836 7.164 16 16 16h288.705c8.836 0 16-7.164 16-16v-37.207c0-88.419-71.934-160.353-160.352-160.353z" fill="#e8d9d4"/><path d="m232.754 78.862-94.966-71.923c-22.345-16.922-54.428-.966-54.428 27.055v133.903c0 8.915 7.248 16 16 16 6.394 0-2.461 4.314 132.13-78.66 9.539-5.881 10.252-19.567 1.264-26.375z" fill="#727272"/><path d="m374.235 6.939-94.966 71.923c-8.934 6.767-8.333 20.458 1.264 26.375 134.432 82.875 125.66 78.66 132.13 78.66 8.75 0 16-7.085 16-16v-133.903c0-28.031-32.091-43.97-54.428-27.055z" fill="#727272"/><path d="m83.36 98.025v69.872c0 12.494 13.741 20.189 24.396 13.62l123.733-76.279c9.539-5.88 10.252-19.567 1.264-26.375l-52.482-39.748c-36.874 11.611-70.088 31.659-96.911 58.91z" fill="#727272"/><path d="m416.119 450.013c-4.586-84.34-74.643-151.549-160.108-151.549s-155.52 67.209-160.107 151.549c94.212 60.434 223.07 62.316 320.215 0z" fill="#e0c8bf"/><path d="m406.032 402.199c-22.932-60.56-81.524-103.735-150.02-103.735s-127.088 43.175-150.02 103.735c86.059 66.906 213.427 67.336 300.04 0z" fill="#dfb7a4"/><path d="m428.663 98.025c-26.799-27.226-60.003-47.288-96.911-58.91l-52.482 39.748c-8.934 6.767-8.333 20.458 1.264 26.375l123.733 76.279c10.635 6.558 24.396-1.104 24.396-13.62z" fill="#727272"/><path d="m387.731 114.728c-69.533-68.445-192.539-69.792-263.439 0-33.376 32.854-51.758 77.36-51.758 125.319 0 54.581 40.883 102.343 85.097 134.287 39.779 68.648 147.314 71.161 190.824 4.177 46.855-32.201 91.034-81.695 91.034-138.464 0-47.958-18.381-92.464-51.758-125.319z" fill="#dfb7a4"/><path d="m88.996 300.242c16.036 29.445 41.675 54.615 68.635 74.094 39.779 68.648 147.314 71.161 190.824 4.177 29.365-20.181 57.469-46.866 74.572-78.27-63.452-191.403-270.888-190.47-334.031-.001z" fill="#7c7c7c"/><path d="m311.506 290.799c-30.732-24.416-80.249-24.422-110.989 0-31.104 24.712-31.105 64.953 0 89.665 30.732 24.416 80.249 24.422 110.989 0 31.104-24.712 31.105-64.953 0-89.665z" fill="#727272"/><g fill="#3d3c3c"><circle cx="202.586" cy="232.572" r="19.841"/><circle cx="309.438" cy="232.572" r="19.841"/><path d="m290.906 336.39-18.895-5.843v-18.967l9.064-13.111c6.203-8.972-.219-21.218-11.126-21.218h-27.877c-10.907 0-17.328 12.246-11.126 21.218l9.064 13.111v18.967l-18.895 5.843c-8.442 2.61-13.169 11.57-10.559 20.012s11.571 13.172 20.013 10.559l25.44-7.867c28.029 8.667 26.955 8.585 30.172 8.585 6.831-.001 13.157-4.41 15.281-11.278 2.614-8.44-2.114-17.4-10.556-20.011z"/><path d="m371.769 254.529c-8.148 0-15.114-6.196-15.908-14.474-.844-8.796 5.603-16.611 14.399-17.454l124.224-11.913c8.787-.85 16.611 5.603 17.454 14.399.844 8.796-5.603 16.611-14.399 17.454-132.992 12.754-124.572 11.988-125.77 11.988z"/><path d="m468.093 348.68c-4.902 0 2.882 2.86-113.304-49.742-8.05-3.645-11.621-13.125-7.977-21.175s13.124-11.622 21.175-7.977l106.715 48.314c15.601 7.064 10.573 30.58-6.609 30.58z"/><path d="m140.254 254.529c-1.197 0 7.299.774-125.77-11.987-8.796-.843-15.243-8.658-14.399-17.454.843-8.796 8.662-15.244 17.454-14.399l124.224 11.913c8.796.843 15.243 8.658 14.399 17.454-.793 8.275-7.76 14.473-15.908 14.473z"/><path d="m43.93 348.68c-17.191 0-22.199-23.521-6.608-30.58l106.714-48.313c8.05-3.646 17.53-.074 21.175 7.977 3.645 8.05.073 17.53-7.977 21.175-116.154 52.587-108.397 49.741-113.304 49.741z"/></g></svg>