<svg id="Layer_1" enable-background="new 0 0 512.023 512.023" height="512" viewBox="0 0 512.023 512.023" width="512" xmlns="http://www.w3.org/2000/svg"><path d="m256.012 298.464c-88.418 0-160.353 71.934-160.353 160.353v37.207c0 8.836 7.164 16 16 16h288.705c8.836 0 16-7.164 16-16v-37.207c0-88.419-71.934-160.353-160.352-160.353z" fill="#f9b78a"/><path d="m232.754 78.862-94.966-71.923c-22.345-16.922-54.428-.966-54.428 27.055v133.903c0 8.915 7.248 16 16 16 6.394 0-2.461 4.314 132.13-78.66 9.539-5.881 10.252-19.567 1.264-26.375z" fill="#f9b78a"/><path d="m374.235 6.939-94.966 71.923c-8.934 6.767-8.333 20.458 1.264 26.375 134.432 82.875 125.66 78.66 132.13 78.66 8.75 0 16-7.085 16-16v-133.903c0-28.031-32.091-43.97-54.428-27.055z" fill="#f9b78a"/><path d="m83.36 98.025v69.872c0 12.494 13.741 20.189 24.396 13.62l123.733-76.279c9.539-5.88 10.252-19.567 1.264-26.375l-52.482-39.748c-36.874 11.611-70.088 31.659-96.911 58.91z" fill="#fdaa6a"/><path d="m416.119 450.013c-4.586-84.34-74.643-151.549-160.108-151.549s-155.52 67.209-160.107 151.549c94.212 60.434 223.07 62.316 320.215 0z" fill="#fdaa6a"/><path d="m406.032 402.199c-22.932-60.56-81.524-103.735-150.02-103.735s-127.088 43.175-150.02 103.735c86.059 66.906 213.427 67.336 300.04 0z" fill="#f0a567"/><path d="m428.663 98.025c-26.799-27.226-60.003-47.288-96.911-58.91l-52.482 39.748c-8.934 6.767-8.333 20.458 1.264 26.375l123.733 76.279c10.635 6.558 24.396-1.104 24.396-13.62z" fill="#fdaa6a"/><path d="m463.87 320.123-26.168-105.604c-5.928-42.125-26.742-80.374-58.672-107.784-103.11-88.511-283.975-39.535-304.708 107.784l-26.168 105.604c-3.382 13.649 11.32 24.748 23.524 17.708 16.621-9.586 29.771-9.893 43.693-.931 39.986 45.508 60.972 80.25 140.641 80.25 77.324 0 97.757-31.463 140.744-80.367 16.624-11.306 32.104-5.352 43.794 1.164 12.195 6.797 26.68-4.264 23.32-17.824z" fill="#f9b78a"/><path d="m454.247 281.289c-4.399 1.748-9.432 1.492-13.697-.886-11.689-6.515-27.17-12.47-43.794-1.164-40.045 45.557-61.019 80.367-140.744 80.367-79.681 0-100.764-34.867-140.641-80.25-13.922-8.962-27.072-8.656-43.693.931-4.301 2.481-9.426 2.778-13.901 1l-9.624 38.836c-3.382 13.649 11.32 24.748 23.524 17.708 16.621-9.586 29.771-9.893 43.693-.931 40.014 45.54 61.012 80.25 140.641 80.25 79.79 0 100.852-34.984 140.744-80.367 16.624-11.306 32.104-5.352 43.794 1.164 12.195 6.797 26.681-4.264 23.32-17.824z" fill="#fdaa6a"/><path d="m311.506 290.799c-30.732-24.416-80.249-24.422-110.989 0-31.104 24.712-31.105 64.953 0 89.665 30.732 24.416 80.249 24.422 110.989 0 31.104-24.712 31.105-64.953 0-89.665z" fill="#f4d3bd"/><g fill="#7f604b"><circle cx="202.586" cy="232.571" r="19.841"/><circle cx="309.437" cy="232.571" r="19.841"/><path d="m290.906 336.39-18.895-5.843v-18.967l9.064-13.111c6.203-8.972-.219-21.218-11.126-21.218h-27.877c-10.907 0-17.328 12.246-11.126 21.218l9.064 13.111v18.967l-18.895 5.843c-8.442 2.61-13.169 11.57-10.559 20.012s11.571 13.172 20.013 10.559l25.44-7.867c28.029 8.667 26.955 8.585 30.172 8.585 6.831-.001 13.157-4.41 15.281-11.278 2.614-8.441-2.114-17.401-10.556-20.011z"/><path d="m371.769 283.937c-8.148 0-15.114-6.196-15.908-14.474-.844-8.796 5.603-16.611 14.399-17.454l124.224-11.913c8.785-.847 16.611 5.603 17.454 14.399.844 8.796-5.603 16.611-14.399 17.454-132.992 12.755-124.572 11.988-125.77 11.988z"/><path d="m140.254 283.937c-1.197 0 7.299.774-125.77-11.987-8.796-.843-15.243-8.658-14.399-17.454.843-8.796 8.66-15.246 17.454-14.399l124.224 11.913c8.796.843 15.243 8.658 14.399 17.454-.793 8.276-7.76 14.473-15.908 14.473z"/><path d="m73.349 398.334c-14.102 0-21.435-17.172-11.325-27.302l73.665-73.815c6.242-6.256 16.373-6.265 22.627-.023s6.265 16.373.023 22.627l-73.665 73.815c-3.125 3.132-7.225 4.698-11.325 4.698z"/><path d="m438.674 398.334c-4.1 0-8.2-1.566-11.325-4.698l-73.665-73.815c-6.242-6.255-6.232-16.385.023-22.627 6.254-6.242 16.385-6.231 22.627.023l73.665 73.815c10.115 10.135 2.773 27.302-11.325 27.302z"/></g></svg>