<svg id="Layer_1" enable-background="new 0 0 512.023 512.023" height="512" viewBox="0 0 512.023 512.023" width="512" xmlns="http://www.w3.org/2000/svg"><path d="m233.074 78.862-94.966-71.923c-22.344-16.922-54.427-.966-54.427 27.055v133.903c0 8.915 7.248 16 16 16 6.394 0-2.461 4.314 132.13-78.66 9.538-5.881 10.251-19.567 1.263-26.375z" fill="#7c7c7c"/><path d="m374.556 6.939-94.966 71.923c-8.934 6.767-8.333 20.458 1.264 26.375 134.432 82.875 125.66 78.66 132.13 78.66 8.75 0 16-7.085 16-16v-133.903c-.001-28.031-32.092-43.97-54.428-27.055z" fill="#7c7c7c"/><path d="m83.681 98.025v69.872c0 12.494 13.741 20.189 24.396 13.62l123.733-76.279c9.539-5.88 10.252-19.567 1.264-26.375l-52.482-39.748c-36.875 11.611-70.088 31.659-96.911 58.91z" fill="#727272"/><path d="m428.983 98.025c-26.799-27.226-60.003-47.288-96.911-58.91l-52.482 39.747c-8.934 6.767-8.333 20.458 1.264 26.375l123.733 76.279c10.635 6.558 24.396-1.104 24.396-13.62z" fill="#727272"/><path d="m256.332 298.464c-88.419 0-160.353 71.934-160.353 160.353v37.207c0 8.836 7.163 16 16 16h288.705c8.837 0 16-7.164 16-16v-37.207c.001-88.419-71.933-160.353-160.352-160.353z" fill="#606060"/><path d="m388.151 367.508c-66.191-95.397-208.496-90.842-268.762 7.851-3.225 5.281-3.115 11.948.28 17.12l73.755 112.326c2.959 4.505 7.985 7.218 13.375 7.218h88.258c5.338 0 10.324-2.662 13.295-7.098l79.948-119.395c3.661-5.466 3.602-12.617-.149-18.022z" fill="#eaeaea"/><path d="m392.582 114.284c-75.454-68.492-197.027-68.509-272.5 0-76.367 69.323-76.367 182.206 0 251.528 75.454 68.492 197.027 68.509 272.5 0 76.368-69.323 76.367-182.205 0-251.528z" fill="#f9f9f9"/><path d="m392.581 113.284c-75.452-68.492-197.027-68.509-272.498 0-48.915 44.402-65.998 105.886-53.118 162.225 1.663 7.275 8.135 12.435 15.598 12.435h91.08c37.021 0 67.141-30.119 67.141-67.141v-4.241c0-8.573 6.976-15.548 15.549-15.548s15.549 6.975 15.549 15.548v4.241c0 37.021 30.119 67.141 67.141 67.141h91.08c7.463 0 13.935-5.159 15.598-12.435 12.869-56.304-4.163-117.785-53.12-162.225z" fill="#606060"/><path d="m311.826 290.799c-30.732-24.416-80.249-24.422-110.989 0-31.104 24.712-31.105 64.953 0 89.665 30.732 24.416 80.249 24.422 110.989 0 31.105-24.712 31.105-64.953 0-89.665z" fill="#eaeaea"/><g fill="#3d3c3c"><path d="m296.511 325.915h-15c-5.062 0-9.179-4.117-9.179-9.178v-2.151l9.064-13.111c6.203-8.972-.219-21.218-11.126-21.218h-27.877c-10.907 0-17.328 12.246-11.126 21.218l9.064 13.111v2.151c0 5.061-4.117 9.178-9.179 9.178h-15c-8.837 0-16 7.164-16 16s7.163 16 16 16c15.898 0 27.14 1.48 40.179-8.629 12.982 10.065 24.384 8.629 40.179 8.629 8.837 0 16-7.164 16-16s-7.162-16-15.999-16z"/><circle cx="175.306" cy="220.206" r="19.841"/><circle cx="337.358" cy="220.206" r="19.841"/><path d="m468.439 357.918c-2.319 0 6.78 1.702-109.912-21.968-8.66-1.757-14.257-10.201-12.5-18.861s10.203-14.258 18.861-12.5l106.715 21.646c8.66 1.757 14.257 10.201 12.5 18.861-1.539 7.586-8.21 12.822-15.664 12.822z"/><path d="m44.225 357.918c-7.453 0-14.125-5.235-15.664-12.822-1.757-8.66 3.84-17.104 12.5-18.861l106.715-21.646c8.665-1.758 17.104 3.84 18.861 12.5s-3.84 17.104-12.5 18.861c-115.951 23.519-107.588 21.968-109.912 21.968z"/><path d="m153.643 287.943h-137.189c-8.837 0-16-7.164-16-16s7.163-16 16-16h137.188c8.837 0 16 7.164 16 16s-7.163 16-15.999 16z"/><path d="m495.569 287.943h-136.548c-8.837 0-16-7.164-16-16s7.163-16 16-16h136.548c8.837 0 16 7.164 16 16s-7.163 16-16 16z"/></g></svg>